<?xml version="1.0" encoding="UTF-8"?>
<!DOCTYPE svg PUBLIC "-//W3C//DTD SVG 1.1//EN" "http://www.w3.org/Graphics/SVG/1.1/DTD/svg11.dtd">
<!-- Creator: CorelDRAW 2020 (64-Bit) -->
<svg xmlns="http://www.w3.org/2000/svg" xml:space="preserve" width="3.68746in" height="3.98427in" version="1.1" style="shape-rendering:geometricPrecision; text-rendering:geometricPrecision; image-rendering:optimizeQuality; fill-rule:evenodd; clip-rule:evenodd"
viewBox="0 0 3392.93 3666.03"
 xmlns:xlink="http://www.w3.org/1999/xlink"
 xmlns:xodm="http://www.corel.com/coreldraw/odm/2003">
 <defs>
  <style type="text/css">
   <![CDATA[
    .fil0 {fill:#E6E7E8}
   ]]>
  </style>
 </defs>
 <g id="Capa_x0020_1">
  <metadata id="CorelCorpID_0Corel-Layer"/>
  <path class="fil0" d="M2060.62 898.37l-0.2 -16.04c1.1,-32.74 -1.79,-7.1 10.32,-17.67l9.58 15.35 18.5 -2.29 -4.58 32.25 -18.36 6.71 -13.32 -0.98 -1.94 -17.31zm-290.8 2646.88l-0.44 -17.3 -16.73 0.2 -2.85 -16.52 1.4 -16.46 -17.83 -8.24 0.32 -30.02c-23.44,-8.82 -1.3,-5.16 -30.15,-14.39l-1.81 88.15 -23.67 -2.25c-6.46,-37.55 -2.51,7.26 -19.41,-37.05l-8.85 -2.61 -1.65 2.24 -3.54 55.82 125.21 -1.57zm-245.72 -40.44c-31.43,10.11 -11.44,-5.3 -17.37,18.58l20.17 5.54 -2.8 -24.12zm2.81 -82.55l-1.31 -15.9 -17.18 1.79 -2.13 18.3 20.62 -4.19zm1401.95 120.98l-2.08 -29.66 -0.15 -160.55 0.47 -19.26 -33.15 0.65 -1.87 16.73 0.76 111.18 -2.55 80.79 38.58 0.14zm360.67 -135.46l-0.39 -19.31 -14.84 2.13 -2.33 14.98 17.56 2.21zm-1796.79 -179.57c1.58,1.47 6.39,6.94 7.43,7.97 17.38,17.14 6.06,11.28 24.54,15.65l-1.53 -17.5 -30.43 -6.11zm116.26 -185.09l-11.63 0.21 -2.38 32.75 -16.79 3.24 -1.22 48.82 19.34 2 -2.17 33.31 -17.33 -0.22c0.7,34.83 -1.34,9.64 7.01,19.16l22.7 -2.04 6.05 -27.52 -0.05 -42.1 23.18 0.11 -6.51 -15.16c-14.6,-5.81 -3.27,2.61 -16.97,-7.07l-3.22 -45.5zm315.44 16.56l-17.36 0.73 0.53 58.22 0.58 3.52 46.34 5.11c2.5,-40.48 -3.64,-21.31 -16.14,-49.4l-14.93 -2.37 0.98 -15.81zm793.97 158.83l0.77 16.58 16.03 -0.8 -0.13 16.4 -0.07 0.92c20.95,4.2 22.05,5.44 39.55,18.14l45.85 0.24 3 -17.95 16.87 -3.82 -0.17 -14.5 -1.84 -16.41 3.44 -16.19 15.69 -0.08 0.64 -191.84 -67.17 -0.9 -2.62 -16.25 -17.27 -0.2 -2.21 16.28 -17.72 3.14 1.56 14.22 -15.98 0.32 -1.05 13.5 -0.62 19.7 -17.01 1.74 0.47 15.98 0.18 36.66 -0.84 31.91 0.62 73.21zm-103.31 -193.62l0.09 -16.62 -18.49 1.17 0.29 16.62 -12.64 -1.17 -4.25 16.34 -16.95 2.61 -1.67 37.66 1.21 13.87 35.87 -0.3 -0.85 -16.44 16.18 -0.03 1.23 -53.72zm724.95 -51.77l-68.63 18.84 -2.87 15.84 -29.03 8.84 -1.63 6.54 -20.85 20.79 -9.71 0.41 -2.44 16.62 -19.83 1.5 0.2 13.75 -1.07 18.1 -16.21 2.54 -2.6 15.75 -16.78 4.08 2.61 14.86 -16.76 -0.96 -1.47 103.86 16.18 1.6 2.01 47.41 -18.57 0.76 0.33 18.54 -1.78 17.66 -18.5 2.36 4.44 -18.09 -36.01 -1.45 5.77 16.46 -36.68 -0.34 -3.46 -17.7 -48.17 -22.08 2.4 55.8 -4.81 38 -2.63 15.61 -15.21 -0.33 -0.8 38.97 -0.06 14.88 16.3 0.03 1.8 19.26 1.08 15.06 14.81 -0.29 -0.76 16.66 1.24 19.09 67.35 31.7 -0.36 -15.88 23.04 -0.03 27.73 -0.32 3.12 -15.94 17.99 -3.68c5.64,-21.18 -2.11,-6.63 12.75,-19.84 16.69,-14.83 -1.73,-5.84 21.73,-10.54 1.09,-1.08 2.77,-4.31 3.22,-3.26 0.16,0.36 4.41,-4.6 6.31,-6.53 1.22,-1.24 9.17,-9.25 9.36,-9.47l-0.22 -16.87 17.98 -0.43 -1.91 -0.82 0.67 -18.23 16.12 1.1 -15.24 -17.8 -18.11 0.37 -3.49 -15.32 -15.28 0.12 1.88 -34.35 18.41 -3.87 2.94 -16.96 29.03 2.06c1.48,-31.77 -1.14,-8.46 7.23,-17.13 15.75,9.95 4.55,-3.77 10.37,16.69l27.7 0.24 6.28 18.52 21.33 -0.85 11.05 0.39 3.2 -31.96 16.07 -3.3 1.96 -26.3 -0.79 -18.44c15.4,-17.04 15.27,-16.93 13.65,-44.01l-61.03 3.37c-14.22,22.4 2.83,10.1 -22.82,17.92l-13.53 -1.65 -2.91 16.4 -32.53 -1.33 -2.77 -18.48 18.9 -65.33c4.28,-18.15 0.03,-8.69 9.01,-20.32 5.28,-6.84 10.36,-9.5 13.96,-12.87l2.01 -3.06 9.67 -29.2 15.72 -3.2 18.07 -0.24 0.35 -21.19 -1.72 -29.36 2.02 -18.75 14.3 0.39 -2.16 -20.55 7.07 -30.55c27.9,3.89 9.91,-5.39 11.41,13.56 24.13,-9.17 10.87,15.11 18.49,-21.68 -8.82,-21.5 4.71,-7.29 -16.45,-12.15zm-1469.56 34.85l0.11 -3.2 1.55 42.86 -16.99 -2.78 -11.68 0.03 -7.15 -14.57c-3.55,-8.98 0.04,-3.56 -5.36,-14.16 -10,-19.66 -7.7,11.93 -11.4,-24.92l-2.65 -19.86 -14.82 -0.17 1.96 -50.7 27.77 2.49 4.56 16.55 3.2 18.37 16.1 4.46 -0.37 27.13 -0.78 19.12 15.93 -0.62zm156.03 1.38l0.41 14.11 16.25 3.01 18.33 0.56 0.93 18.49c5.87,26.15 61.91,15.8 86.61,14.96l45.97 2.66 3.35 15.25c22.51,-2.59 32.89,-9.03 35.96,15.47l17.65 1.34 -3.92 -17.04c-5.22,-45.6 -16.37,8.63 -29.11,-32.51l-18.2 -3.15 -4.55 -16.49 -13.69 -0.79 -17.25 0.66 1.81 -14.3 -17.34 -2.94 -1.31 -17.59 -2.33 -16.82 -19.69 -0.62c-14.46,-3.6 -9.06,2.03 -11.68,-12.28l-15.83 -5.55 -2.49 -16.57 -16.45 -2.31 -7.36 -30.33c-11.13,-7.9 -26.42,-23.55 -29.55,-35.67l-15.97 -3.04 0.11 -17.21c-41.1,-5.41 11.6,-8.09 -35.25,-14.42l-16.2 -3.13 -3.47 -16.44 -30.26 3.06 -3.01 36.69 16.25 1.93 3.18 120.36c5.86,17.37 2.04,12.11 30.06,13.83l21.56 0.17 17.25 -1.08 -1.03 14.72 0.26 3.01zm225.1 104.78l-0.28 14.79 16.38 1.43c3.31,25.14 -4.66,41.63 -36.41,60.54 -11.89,7.08 4.73,1.13 -15.62,6.39l1.71 14.88c-19.25,8.26 -13.02,2.46 -21.78,22.52l19.99 1.36 0.38 15.02 18.86 -0.38c24.66,6.62 7.78,-5.88 21.23,17.12l12.18 -0.12c7.46,17.4 4.69,14.91 5.77,37.95l8.94 -3.25 0.64 -30.84 19.84 -1.2 15.69 -11.02c12.59,-8.26 -5.7,-2.91 17.79,-8.1l20.2 0.9 -0.37 -35.42 -16.62 -1.17 -4.72 -17.34 -14.44 1.23c-31.73,-3.19 -10.92,7.09 -16.56,-13.2 6.34,-3.86 9.15,-11.56 28.58,-3.82 21.7,8.65 -9.57,2.77 20.61,15.24l3.14 19.07 10.96 -1.34 2.47 -16.12 5.49 12.82c34.15,-8.34 -4.32,3.1 25.18,-11.91 10.76,11.68 5.73,10.32 25.37,13.7 11.94,2.06 36.72,2.4 49.52,2.98 -2.77,-31.11 3.37,-22.12 -14.45,-39.63l-1.05 -13.44 -2.01 -15.78 -15.62 -3.01c-32.73,-9.42 0.37,-10.99 -36.3,-13.52l3.51 -18.38 -20.54 -1.37 -2.72 -16.18 -26.31 -1.09 -56.31 -0.11c-36.04,-5.37 3.12,-7.1 -26.13,-7.38 -22.36,-0.21 3.23,0.68 -25.83,8.27l-0.37 18.92zm-68.43 47.87l-12.27 3.36 -4.8 -16.04 -16.42 -2.96c-32.79,-5.24 -6.61,-3.59 -35.5,-12.29 -3.85,9.15 16.83,14.28 -53.39,13.59l-3.48 -17.12 -62.13 -0.93 -1.64 34.86 16.51 2.5 1.94 32.61 13.61 -1.18 1.42 16.66 89.64 3.4 3.42 -16.96 1.98 0.63c28.98,20.2 37.18,12.94 77.16,15.29 -0.52,-58.02 -6.92,-17.76 -16.03,-55.44zm-67.28 105.85l-17.21 1.59c1.29,38.13 2.21,7.51 -8.52,19.78l-47.97 -9.07c-17.84,13.78 -42.08,23.42 -67.96,21.08l-1.11 -17.87 -15.12 2.83 1.21 -14.7 -16.02 -4.23 -1.82 -16.77 -17.61 -2.16 -4.1 -18.23 -29.41 -15.82 -18.37 1.78 0.53 -16.38 -15.12 -1.31 -21.44 -17.74 -17.15 -0.91 -0.66 -33.06 -14.26 -1.02 -1.88 -12.66 -16.49 -4.4 0.8 -16.48 -0.42 -17.54 -18.11 1.66 0.63 34.57 -28.59 -2.41 -6.68 -31.88 3.19 -18.5 -20.14 4.11 -0.99 47.63 -0.59 12.86c13.1,7.52 16.58,11.23 24.91,19.91l15.46 -13.66 -6.89 20.99c-33.58,-4.47 -20.69,-0 -32.09,-16.01 -20.38,5.22 -13.43,-8.47 -16.58,9.67l-18.66 0.28 -0.45 51.55 0.32 19.01 -16.63 2.84 0.27 17.61 0.42 45.47 12.43 1.67 7.83 -30.04 14.41 -1.37c14.33,15.39 10.99,49.44 15.88,71.24l17.58 2.9 -0.63 10.83 17.75 1.67 1.39 19.39 16.36 -4.38 -1.46 18.59 -0.12 14.91 16.93 1.65 18.94 2.94c-0.12,-74.69 -10.35,10.59 -17.81,-90.34l0.89 -18.08 -18.17 -0.5 -0.58 -20.15 17.9 6.73 3.61 -18.47c-4.95,-8.09 3.89,-9.28 -9.41,-12.54l7.42 -3.1 17.25 14.87 15.88 0.12 -0.21 16.84 17.02 18.08 35.28 -0.14 2.18 21.12 14.35 -4.47 -0.19 17.7 1.8 34.78 16.86 2.3 7.05 29.58 28.68 2.4c4.72,-27.76 -0.09,-7.31 7.11,-18.12l13.26 -15.01 11.82 -1.97 35.85 -0.93 17.31 -0.12 16.08 2.43 0.35 15.45 18.19 0.22 1.95 18.74 7.55 1.56c14.31,13.42 4.84,2.97 15.55,25.72 7.19,15.27 4.28,-1.98 8.64,24.74 38.99,1.03 36.51,-8.09 59.88,16.24l23.06 -13.63 23.24 13.66 15.46 2.83 -1.47 15.45 39.17 -9.8c10.26,-17.34 16.72,-15.51 12.85,-41.07l-14.9 -2.96 -0.44 -16.48 16.61 3.43 -1.27 16.01 16.78 -2.68 2.18 18.18 2.29 14.82 15.71 0.93 -12.95 70.06 220.67 0.51 -3.73 -18.24c2.42,-33.24 -0.17,-7.53 8.81,-17.98l19.58 3.57 8.95 16.43 -4.6 15.05 25.39 1.95 -2.24 -71.77c-24.52,5.52 -7.35,2.08 -17.16,6.43 -21.83,9.69 12.51,0.91 -22.94,9.72l-12.62 2.66 -1.25 -52.03 1.05 -14.01 18.1 -25.84c-18.2,-33.24 -20.8,-18 -18.48,-66.15l0.3 -32.86 -1.81 -17.02 -16.79 -2.91 -15.86 3.83 -0.08 -17.13 -19.83 -1.04 0.77 16.16 -15.84 2.85 -16.57 -1.87 -18.09 0.45 -0.55 16.95 -16.9 -0.49 -33.91 0.74c-4.55,22.74 10.07,14.36 -14.18,17.53 -36.43,4.76 -18.43,-10.13 -20.79,-16.58 17.08,-3.39 7.97,2.51 17.22,-7.15 -9.91,-22.1 4.53,-7.11 -16.92,-15.22l-0.3 22.37 -16.69 4.19 -2.19 30.27 18.75 2.09 4.52 34.24c-39.34,5.76 -15.94,0.84 -25.74,-4.51l4.29 -14.53 -34.75 -0.48 5.17 29.32c23.8,6.27 23.41,9.06 46.58,29.3l1.23 38.19 -18.2 6.41c6.04,-36.82 4.65,-2.88 10.76,-33.71l-26.98 -1.76c-2.02,-19.12 -5.69,-25.59 -13.39,-38.42 -1.09,-0.96 -2.64,-4.13 -3.23,-2.94 -0.62,1.23 -2.89,-2.21 -3.74,-2.54 -10.15,-3.93 10.66,-0.25 -15.23,-3.98 -10.07,2.18 -8.39,4.12 -20.2,1.77 -14.67,-2.92 -6.74,-0.48 -16.19,-7.37l32.16 2.49 5.14 -16.95 -15.54 -1.24 -21.1 0.38 -0.56 -15.36 -14.99 -2.4 -0.07 -17.32 -1.97 -17.04 -3.93 -13.89c-27.04,2.42 -39.63,12.55 -50.79,-1.8 -33.15,-0.01 -24.72,-0.18 -28.15,-18.17zm-504.63 -18.99l-15.12 0.58 -2.32 32.8 -15.97 3.12c-8.19,44.71 -8.07,-4.85 -17.03,31.77 -2.44,9.95 -0.05,38.64 0.57,50.07l13.31 5.31 18.15 -1.41c3.48,-29.12 9.98,-25 14.01,-47.91 4.2,-23.87 5.75,-50.76 4.4,-74.33zm430.53 279.25l1 15.21 34.6 2.58c10.35,-49.75 14,15.86 21.31,-49.3 -45.88,11.37 2.96,10.46 -37.13,10.62l-0.9 18.88 -18.88 2.01zm-308.89 -663.85l0.62 -10.05 -16.25 -1.65 -1.62 -20.39 -0.25 -14.53 -17.27 -0.84 1.98 106.48 15.92 0.03 -0.81 13.57 15.24 4.18 4.37 17.18 14.45 -2.85 1.26 -44.9 -15.65 -6.27 -2.37 -16.66 0.37 -23.31zm940.52 42.04l-3.98 -0.21 -2.46 -17.54 -18.95 -0.65 -16.05 -2.24 -1.3 17.68 -18.33 2.38 0.97 36.65 2.16 15.45 33.35 0.1 16.41 -1.36 2.13 -16.06c2.75,-30.15 5.15,-10.72 6.06,-34.2zm615.43 -71.27l1.64 -33.11 -55.05 -0.37 -6.32 33.5c-41.94,34.04 -57.1,17.03 -61.76,52.08l-2.71 17.55 -15.32 -2.51c7.49,26.67 3.4,10.05 10.66,24.54 0.94,1.87 3.79,4.05 6.7,13.56l34.04 -0.42 3.54 -17.04 -0.81 -16.49 16.21 -0.08 1.02 -16.84 15.49 -1.6c5.29,-27.46 -0.88,-8.79 7.8,-16.82l29.5 -0.08 -1.72 -28.09 17.11 -7.79zm-277.18 105.82c-22.11,7.42 -4.92,-3.54 -20.21,12.24 -10.41,10.75 -7.69,3.26 -11.44,20.9 -9.6,24.71 3.69,7.88 -20.6,24.16l-0.09 44.79 71.52 17.99 -0.62 -17.12 16.73 1.66 15.37 -1.91 1.09 -17.62 18.06 -1.9 0.01 -13.81 1.46 -17.32 16.2 -3.55 2.37 -14.92 15.72 0.16 -0.24 -51.93 -48.32 -1.05c-58.05,9.43 7.6,8.95 -45.36,16.36l-11.66 2.87zm-1087.42 -155.87l-1.87 -37.57 -15.53 -0.03 -0.86 -34.07 3.47 -12.26 -17.94 -4.59 -2.46 -16.79 -16.77 -1.81 -2.71 -17.25 -15.26 2.54 -0.03 -16.36 -50.98 -2.62 -2.15 67.14 -16.53 2.71 0.34 69.57 17.59 7.38 -2.06 29.53 16.13 -1.2 2.51 16.24 16.52 0.6 2.63 -16.95 19.44 -1.65 31.28 0.16 0.58 -14.65 15.52 -2.63 1.37 -15.81 17.79 0.36zm433.09 34.79l18.69 -2.88 -4.55 -81.27 -16.7 -1.25 -1.22 -20.14 -15.08 -0.63 -15.98 -1.22 -2.65 16.98 -16.51 1.71 -1.36 33.94 17.59 3.76 2.11 21.89c7.26,13.63 0.06,4.53 11.56,15.09 16.18,14.86 -7.72,4.18 24.08,14.03zm723 -243.58l-16.04 0.59 -2.7 16.48 -16.07 0.67 -33.28 35.13c-6.67,24.6 2.37,6.37 -12.56,21.52 -13.71,13.91 3.07,5.32 -19.47,12.19l-4.49 16.33 -15.57 2.65 -15.6 28.14 -1.49 22.6 -16.56 3.51 -2.03 13.46 0.24 16.16 -15.52 2.81 -1.11 15.69 -16.7 0.15 -17.11 50.59 -0.31 17.98 -1.85 69.85 40.92 0.01 11.72 -0.57 0.07 -16.49 19.75 1.01 12.03 1.65 3.88 -18 17.33 -2.42 2.36 -16.68 28.44 -5.01 4.33 -16.25 16.87 -2.46 0.14 -11.11 2.91 -15.7 15.44 -6.29 -0.59 -12.78 15.32 4.27 1.71 -19.67 17.41 -1.79 1.4 -17.51 22.12 -0.18 27.54 -14.7c5.64,-11.8 12.59,-18.79 13.35,-33.09 2.21,-41.7 1.92,-7.03 -12.49,-31.99l0.75 -41.2 -0.43 -18.1 -17.53 -1.39 -1.97 -18.44 -15.21 3.28 0.05 -16.77 -2.38 -17.55 -17.02 -0.58zm-1329.44 17.66l-0.68 -31.66 -16.75 -3.75 3.18 -16.98 -25.6 1.15 4.66 17.97 -16.65 -1.04 -0.24 47.45c17.66,5.16 10.14,-2.71 17.54,15.1 -9.82,12.35 0.87,4.27 -17.05,9.86l-1.5 51.03 16.63 -0.61 2.56 15.96 -2.74 13.02c29.59,6.63 11.22,7.92 36.51,-1.44l-0.67 -29.59 -0.36 -70.44 1.15 -16.03zm208.09 89.72c14.93,2.71 13.91,6.13 30.28,19.15 1.06,0.84 2.64,2.15 3.66,2.93 0.99,0.76 2.77,2.06 3.66,2.73 6.68,4.97 -1.66,1.74 10.62,6.81l2.49 16.84 16.84 0.14 18.07 0.45 0.48 -18.03 0.46 -17.08 -17.48 -1.05 -0.5 -22.47 -0.81 -11.86 -16.57 0.22 1.06 -17.56c-5.87,-39.14 -10.19,8.22 -19.42,-33.65l-17.42 -0.24 -15.43 -1.35 -0.01 74.02zm811.79 -107.1l-1.38 17.11c-4.08,18.42 -0.5,8.51 -9.09,20.57 -1.05,1.48 -10.95,11.75 -11.49,12.42l2.84 18.59 -17.16 -1.7 1.68 16.81 -17.92 3.14 -1.17 -0.64 0.61 17.16 -20.85 -0.08 -10.43 -0.67 -2.21 19.54 -17.66 1.56 0.3 13.35c-6.45,42.1 -0.84,-2.6 -13.56,33.18 17.86,0.07 6.58,-2.85 10.99,11.42 10.85,14.28 25.75,13.05 45.1,5.49 17.82,-6.96 24.51,-11.48 25.79,-32.78 1.79,-26.79 -3.46,-32.03 18.75,-27.44l-0.33 -20.94 17.42 -1.86 1.21 -17.2c61.47,-3.25 9.6,-8.85 48.77,-17.11l1.77 -16.75 1.48 -54.82 -35.78 1.4 -17.71 0.25zm-864.58 -0.61l16.89 -5.84 0.04 -63.33 -15.1 -0.16 -2.63 -19.68 1.81 -13.22 -18.01 -1.04 -17.46 -0.93 -16.36 7.99 15.26 89.28c8.62,7.49 -9.69,2.51 15.45,8.44l20.11 -1.53zm65.79 -30.93l18.24 -2.74c-1.72,-23.46 -5.4,-29.09 -23.77,-42.27l-25.93 6.18 -1.78 34.43 21.76 4.79c-6.05,-29.48 -8.41,-16.98 5.86,-36.01 13.36,20.5 10.2,9.65 5.6,35.62zm1317.3 -123.95l-0.32 -16.92 -17.67 -3.1 1.11 -16.79c-14.23,-34.32 -11.21,9.09 -17.36,-41.02 -2.34,-19.08 3.11,-24.81 -4.81,-42.73 -15.44,4.12 -8.3,-11.83 -12.93,16.74l-21.63 51.56 2.44 17.53 -17.03 -2 1.69 30.03 -17.68 7.1 1.05 32.76 -2.53 73.42 2.61 15.25 16.17 2.49 0.95 12.98c40.28,-3.64 53.52,5.65 101.07,-3.8 1.53,-128.6 -10.2,-38.18 -15.12,-133.49zm-466.69 12.63c-4.81,-21.17 -1.14,-12.38 -35.58,-14.38l-0.66 17.16 -17.84 1.7 2.24 52.33 16.71 3.27 -0.37 15.88 34.86 -2.57c4.25,-15.28 3.68,-9.15 7.55,-14.86 8.84,-13.06 1.2,6.45 8.67,-9.72 3.8,-8.24 2.47,-18.71 2.7,-28l-14.7 -17.13c-0.73,-0.79 -2.4,-2.45 -3.58,-3.69zm-414.97 -168.23l-14.87 -0.07 -40.01 0.09 -16.79 16.37 0.7 17.09 -13.12 0.63 -4.12 14.9 -16.64 2.16 -0.7 17.07c-4.79,22.87 -1.45,13.35 -20.59,33.95l-10.02 1.31c-18.11,-3.32 -15.58,-4.26 -26.29,-16.57 -24.31,16.09 -1.1,8.98 -29.22,14.73l-0.83 18.12 -15.99 0.97 0.49 15.42 -1.07 18.26 -19.4 0.82 -27.99 -0.32 -29.56 0.4c-13.06,13.61 1.27,-11.39 -12.59,16.96l-16.54 0.33 2.64 36.87 1.7 15.03c23.77,5.99 19.58,6.1 18.47,35.99l12.7 0.8 3.81 16.39 -1.8 16.4 -0.19 14.53 16.6 3.6 3.74 17.38 31.74 -12.81 2.79 -73.64 19.04 0.4c23.39,-9.39 3.64,3.66 21.99,-19.05l42.38 -0.89 0.95 -18.55 2.78 -14.96c25.27,-1.6 15.83,-4.87 32.11,4.37l15.59 15c31.72,7.14 -0.38,-2.17 29.41,12.82 26.61,-25.64 31.5,-11.56 74.08,-14.08 -0.01,-14.99 1.24,-38.61 -1.52,-52.74 -6.55,-33.53 -4.51,-3.17 -13.34,-32.29 2.11,-43.1 11.44,-0 9.65,-51.73 -1.03,-29.83 -6.6,-28.92 -9.48,-54.28l-0.7 -17.17zm568.43 85.41l-11.2 -3.83c-12.1,31.93 3.18,15.21 -22.01,22.26l-0.32 0.38 0.25 16.52 -16.25 -0.89 -0.41 0.8 -0.7 17.54 -16.54 3.07 -0.59 13.61 -1.77 20.43 -15.98 0.13 1.02 47.7 15.22 0.3 18.16 3.47 -0.88 15.53 37.3 0.36 -0.85 -15.83 17.27 -2.24c18.27,-1.74 13.57,-2.06 23.5,-13.12 8.68,-9.66 6.54,-3.14 10.73,-18.47l-0.52 -90.59 -15.23 -0.18 -3.28 -14.06 -16.94 -2.9zm-1174.08 27.77l1.35 -7.13 -17.54 -3.8 -3.79 -16.21 -14.1 1.7 -1.35 13.36 1.62 53.12 0.38 18.3c10.79,3.65 5.51,1.43 12.04,6.44l39.34 14.05 -2.71 -55.37 -15.93 0.08 1.56 -14.81 -0.87 -9.73zm223.65 78.59l0.05 9.35 19.1 6.91 -0.05 -55.01 -0.42 -49.74 -17.2 -1.47 -1.51 -20.16c6.84,-47.24 -5.67,-11.55 -16.54,-49.42l-1.74 3.12 -16.55 2.6 1.96 43.73 17.63 1.29 0.08 25.01 1.16 67.17 14.35 -2.09 -0.3 18.7zm21.42 -121.97c29.66,8.03 0.28,0.07 15.89,7.9 4.44,2.23 2.11,3.34 11.83,5.73l19.46 3.4 0.79 17.45 46.76 -0.25c9.58,-10.25 8.32,14.6 7.97,-15.42l-1.46 -37.27 -1.75 -17.15 -15.65 -1.75 -16.55 2.16 0.9 -17.02 -21.01 -0.56 -1.92 16.91 -28.99 0.67 -17.96 0.21 1.68 35zm796.53 -18.71l45.15 -0.49 2.87 -16.17 -0.07 -17.99 15.23 -0.12c-4.84,-39.61 -0.84,4.86 -15.65,-29.35l-47.46 -4.8 -0.08 68.91zm-1060.26 -34.64c9.39,4.51 -6.54,2.47 14.45,4.1 0.68,0.05 18.35,-2.61 18.46,-2.63 4.8,-21.25 12.32,-51.52 -13.79,-52.04l0.67 46.3 -19.79 4.27zm467.81 18.66l35.71 -0.18c0.16,-68.7 -4.14,-42.66 -16.24,-63.53l-40.07 -5.52 3.65 34.69 -3.6 11.18c25.27,11.76 21.04,-2.67 20.55,23.36zm863.76 -71.95l2.33 -47.32 -15.66 -0.15 -2.22 -18.74 -18.12 -1.07 -3.78 17.98 -32.93 -1.96 2.43 15.87 -16.95 3.26 -0.29 1.74 -0.18 16.84c-5.38,22.58 -1.91,7.71 -23.7,30.36l-10.13 2.19 -1.45 13.03 2.69 27.31c5.63,19.61 29.01,13.04 51.27,11.64l-0.23 -16.49 16.16 1.05 14.74 -0.64 20.56 -1.93 0.95 -18.38 0.28 -13.01 -1.16 -21.41 15.37 -0.17zm156.81 -19.06l-12.75 3.6 -24.76 -0.85 -15.09 2.29 -0.51 47.63 25.15 20.09c25.89,-15.56 1.08,-9.15 28.76,-13.56l-0.81 -59.19zm-1227.14 -31.36l-45.85 0.15c-8.4,9.64 -6.93,-15.48 -6.77,18.27l16.81 2.34 -0.74 16.56c35.56,7.5 -0.59,-1.74 29.69,11.87 0.14,-0.19 8.86,-9.93 9.18,-10.16 8.18,-6.08 4.77,-3.17 14.18,-5.62 -3.77,-26.08 0.42,-3.12 -6.35,-14.16 -10.39,-16.92 -0.58,15.79 -10.13,-19.24zm53.23 36.18l16.41 -2.2 0.55 -26.92 -15.29 -6.9 -1.68 36.02zm155.8 -53.91l-8.41 -17.5c-16.26,7.73 -8.51,-7.59 -12.72,18.4l5.11 -0.01 16.02 -0.88zm-1.35 20.53l18.17 -6.82c-6.22,-15.61 10.11,-7.04 -16.83,-13.71l-1.23 15.67 -0.12 4.86zm985.2 -69.29l0 -47.47c-10.44,-9.48 14.96,-7.78 -15.85,-7.85l-36.49 1.34c-3.6,24.41 -3.31,18.9 -19.1,35.32l1.58 15.59 -1.64 33.33 17.25 3.31 1.83 16.6c7.95,-1.29 27.27,0.55 32.17,-29.6l3.22 -19.35 17.03 -1.21zm-229.17 -84.33l5.14 12.83 -2.39 49.41 17.22 3.67 1.98 16.5 34.92 -0.79 -0.22 -16.05 16.86 1.17 0.93 -0.77 16.77 -3.52 2.31 -43.66 -21.38 -5.66 1.43 -15.62 -55.63 -0.98 -17.95 3.47zm-631.34 64.22l30.66 1.95 -0.31 -35.61 4.22 -17.86 32.65 2.38 -2.31 -38.83 -13 1.5c-23.79,-8.85 -23.37,0.52 -56.66,0l4.75 86.47zm913.07 -121.43l-1.97 -34.44 -31.13 -4.38 -2.29 19.61 -0.38 19.81 -17.37 0.81 0.59 33.71 16.1 2.55 4.65 18.77 29.99 -2.8 2.25 -15.61 -0.43 -38.03zm-774.28 53.82l43.58 -0.44c14.15,-35.36 5.88,-3.6 17.46,-31.16 -19.65,0.08 -6.94,3.11 -12.42,-12.12l-1.22 -6.4 -18.47 -1.65 -1.51 -17.85 -13.54 0.75 -38.95 -0.99 -14.58 -3.02 0.48 42.08c7.9,18.53 -3.86,5.86 16.6,11.16l15.63 3.49 6.93 16.16zm357.62 -104.3l-28.59 1.56 -20.34 -1.96 -1.37 -16.94 -18.25 -1.8 -3.91 -17.11 -12.08 1.14 0.68 -12.56 -15.9 -5.06 -2.6 -16.47 -35.63 14.73 0.4 16.62 -16.58 3.13 -1.69 14.95 -15.3 53.46 50.68 2.04 3.97 15.99 -21.28 0.88 0.51 20.05 2.76 14.57 31.19 -1.88 0.24 14.03c-9.56,7.02 2.32,3.29 -13.24,6.66 -12.98,2.81 -9.87,-0.12 -19.4,-1.08l-12.24 -33.62 -8.5 -20.71 -20.44 1.07 4.08 15.65 -1.59 33.68 -17.2 1.62 3.75 14 -1.96 20.03 -17.4 1.29 -16.8 0.75c-7.19,24.79 2.63,6.1 -12.48,21.65 -14.84,15.27 2.14,6.49 -21.67,12.43l-30.27 17.02 -0.04 16.1 -19.21 1 -3.27 14.46 -0.24 19.92 -14.81 -0.05 -6.21 1 -9.97 -1.1 -3.53 31.4 -17.12 2.47 -0.07 17.4 -1.96 19.55 -17.16 4.02 0.97 27.19 16.79 4.25 2.52 12.19 -1.31 21.21 2.78 15.87 31.16 1.27 17.31 0.75 3.56 17.5 15.55 -0.93 33.93 2.3 2.18 -17.48 15.46 -4.24 3.16 -14.99 15.41 1.99 -1.56 -17.32 16.28 -2.52 15.25 -0.07 3.6 -16.62 15.95 0.49 -3.09 -105.17 -8.41 -0.41c-17.57,-21.03 -22.21,-37.75 -19.52,-66.97l19.61 -2.47 28.54 0.77 -0.58 -16.19 19.54 -2.9 15.54 34.68 17.23 3.18 3.02 17.67 83.89 17.74 -0.1 -17.1 17.29 -2.1 1.38 -15.6 1.12 -22.73 17.03 -2.8 -18.7 -111.67 16.98 -2.15 0.91 -33.9 -11.29 -1.15c-13.22,-8.13 -3.85,5.98 -7.31,-17.62zm-950.07 91.48l-1.61 30.15 0.93 16.56 -16.93 -2.96 -1.56 20.63 -17.54 1.29 -12.78 13.47 -15.47 1.12 -1.6 18.48 13.32 34.62 0.54 19.43 -1.9 32.31 2.55 16.73 -17.25 0.13 0.31 18.46c15.36,4.03 8.05,-1.44 16.71,7.82l-0.7 27.38 2.04 15.08 15.44 1.92 -0.53 17.37 18.45 68.76c17.75,3.58 12.03,0.79 22.26,12.26 15.42,17.3 5.32,-2.14 9.45,23.1 6.67,17.41 0.42,10.42 18.98,16l4.3 -26.02 -2.42 -3.9 -1.01 -71.39c-3.42,-10.53 -3.79,-8.56 -7.71,-17.3 -5.92,-13.19 -2.13,6.07 -7.39,-20.85l-1.36 -17.91 -1.98 -14.84 -15.84 -3.55 -0.41 -33.56 -16.28 1.25 0.61 -12.65 -16.39 -12.94 -1.99 -22.17 18.17 -6.5 14.97 2.23 16.43 2.42 3.87 16.82 15.34 -1.55 4.67 -19.03c-0.24,-0.3 -10.93,-11.79 -11.47,-12.57 -8.51,-12.11 -4.9,-1.77 -8.84,-20.53l-0.75 -15.38 0.48 -18.31 -0.73 -16.51 16.97 -3.23 67.62 -45.27 5.97 -20.36c22.74,5.1 4.29,-12.31 19.42,15.74l11.58 0.76 16.62 -1.01 -0.54 16.54 35.27 0.44c7.78,-21.25 -17.96,-13.57 28.03,-17.05 7.95,8.59 9.38,-13.37 4.93,16.31l90.73 4.01 -4.33 -37.89 -14.3 -0.66 -2.93 -15.34 -15.29 -1.89 0.78 -15.75 -20.74 0.02 -3.28 -16.46 -63.54 -51.8 -16.48 -2.05 -27.25 0.14c-14.03,-11.94 -29.4,-11.41 -42.22,-21.11l-16.91 4.62 0.74 -17.22 -33.57 -0.7 -16.56 0.09 -3.51 -13.81 -0.67 -0.95c-25.93,-12.39 -4.93,7.96 -23.2,-19.98l-45.66 -0.89 -0.16 52.98 0.79 17.08 17.39 1.48 16.76 -0.57c3.08,27.85 -0.69,2.56 6.7,15.85 6.39,11.49 5.23,-0.51 7.99,18.52l17.75 1.19 3.02 17.43 15.84 1.06c12.75,38.3 5.86,0.49 14.86,28.15l-48.31 2.89 -1.64 18.46 -16.05 4.85zm-16.27 186.96l-0.33 -39.17 0.33 39.19 0 -0.01zm1244.27 -348.39c-3.63,-30.61 1.84,-5.34 -6.36,-17.36 -9.44,-13.83 -23.11,-17.81 -39.42,-16.23l-36.93 4.19 -7.6 -0.7 4.14 31.91 -2.81 16.97 -19.08 -1.29 -13.45 1.02 -4.19 16.31 -41.65 2.03c-10.49,9.52 -9.56,-15.54 -7.76,18.73l3.35 14.64 18.27 -0.11 47.9 -0.18 3.68 19.03c11.67,1.58 5.9,-12.03 13.9,10 24.28,15.28 13.35,22.58 37.55,20.49 42.93,-3.71 -9.3,-7 33.19,-13.6l0.58 -27.38c1.07,-1.01 2.72,-2.29 3.36,-2.86 0.64,-0.57 2.54,-2.18 3.33,-2.89 0.78,-0.71 2.42,-2.13 3.29,-2.93 18.49,-17.31 21.54,-21.66 23.19,-47.38l-15.15 -0.11 -1.31 -22.32zm137.97 52.37l34.79 0.95 -0.46 -53.03 -34.18 1.42 -0.16 50.65zm-18.37 -120.29c0.69,-12.1 2.68,-14.4 -1.72,-26.78 -13.21,-37.13 -40.21,-25.64 -50.72,-24.6l0.35 66.22 16.04 3.4 21.39 -1.75 -1.79 -16.02 16.45 -0.47zm-710.75 -104.79l-46.28 0.02 -3.31 17.16 -0.53 17.74 7.54 17.2 39.24 0.13c1.13,-1.4 2.61,-3.27 3.33,-4.24l16.84 -23.62c-0.79,-0.62 -8.18,-7.05 -10.04,-9.55 -4.58,-6.13 -4.2,-7.44 -6.79,-14.83zm-101.13 51.93c-20.84,3.12 -10.62,-3.71 -24.58,13.18 -0.97,1.17 -2.17,2.72 -2.97,4.04 -24.86,40.47 1.8,30.36 8.72,49.02 27.56,12.03 9.79,-4.13 22.13,19.55l64.69 -0.12 1.86 -36.69 3.55 -10.56c-24.54,-7.84 -10.53,-2.53 -25.39,-15.98 -17.67,-16 -5.63,5.17 -17.23,-20.43l-17.15 0.18 -13.63 -2.19zm640.19 -54.96l1.54 -6.86 -53.88 -7.72 -0.02 38.54c23.18,0.18 12.57,-1.61 28.31,11.79 10.48,-8.95 11.08,-10.89 25.95,-14.97l-1.91 -20.78zm-1730.46 -50.96l0.89 -10.2 -71.09 -1.96 3.19 14.85 -3.98 15 -13.34 0.04 -2.04 56.81 38.67 -1.59 49.31 -0.79 0.72 -49.48 -2.32 -22.68zm904.93 39.42c24.82,8.96 3.31,15.26 46.86,14.72l1.32 -17.61 15.56 5.68 -4.43 -55.04 -7.93 1.33 -18.84 -4.1 -2.55 -16.22 -16.75 -2.59 -4.48 -18.58 -4.87 -13.1c-29.18,32.05 -24.96,3.67 -59.6,21.38 -1.45,18.55 -8.79,48.21 12.53,43.33l2.94 19.97 17.74 1.6 16.65 2.69 5.85 16.55zm1033.82 -71.24l-15.42 -0.7 -23.91 0.29c-12.39,3.06 -7.16,0.23 -13.89,6.73l1.39 24.22 53.18 1.99 -1.35 -32.52zm-140.84 15.54l1.95 -17.59 -16.29 0.19 -3.67 -14.65 -17.55 -1.68 1.17 -13.73 -67.21 -4.7 -0.74 40.54c42.7,3.81 -9.03,2.19 31.6,13.33 7.32,2.01 24.92,2.16 33.25,2.55l37.47 -4.26zm-2104.85 -33.76c-8.49,-20.15 -1.56,-7.99 -9.61,-15.61l-30.64 -2.87 -14.71 2 0.33 14.51 13.79 5.9 40.84 -3.92zm-746.15 -33.21c1.91,26.8 2.79,40.26 32.79,33.02l4.72 -34.07 -37.52 1.05zm2421.97 177.09c-3.22,28.39 -12.77,45.18 14.64,45.5l17.24 2.87 1.46 16.06c39.46,13.56 -4.62,12.08 44.56,16.93 14.15,1.4 39.36,0.87 55.1,1.5l19.62 -0.33 17.04 -0.46 2.03 -20.07 16.02 -2.5 -2.07 -12.1c10.94,-23.93 -2.71,-7.29 20.88,-23.94 -2.39,-52.03 -9.51,0.7 -18.21,-45.48 -27.02,-4.01 -12.36,3.34 -16.28,-12.91l18.3 -3.46 -1.65 -16.33 0.71 -18.31 16.44 -4.49 2.23 -26.24 -16.77 -4.44 -1.8 -19.11c-47.04,-4.11 5.19,-6.65 -35.28,-13.71l-16.78 -3.43 -0.65 -13.46c-28.43,5.03 -22.04,2.13 -49.49,-3.13l-1.78 -17.07 -2.05 -49.91 -33.52 -1.83 -1.2 15.62 -18.26 1.86 0.96 15.48 -16.16 4.58 -16.88 8.94 -2.6 42.24 16.41 -1.29 2.66 15.94 16.57 2.15 2.75 16.43 15.96 2.49 -1.22 16.5c25.37,-2.76 20.69,17.06 20.85,41.23 8.24,8.36 1.53,3.77 15.89,8.09l-0.39 -15.24 13.9 -3.16 9.31 -16.42c15.74,13.02 -0.01,-2.47 12.97,10.39 12.03,11.93 3.08,2 12.27,14.34l1.54 9 18.74 1.33c2.66,25.89 7.42,26.46 -10.99,34.84l-6.79 -18.08 -18.57 1.2 -2.12 15.82 -29.69 1.94 -2.77 -16.35c-15.53,-5.27 -14.8,-7.84 -24.35,-19.37 -10.99,11.81 -8.68,13.57 -26.13,17.04l-2.34 17.09 -30.25 5.22zm621.94 -180.83l-5.59 -29.64c-16.38,3.68 -8.63,-4.56 -13.21,13.99l-1.78 22.46 20.59 -6.82zm-970.21 2.93l17.47 0.85 18.08 1.09 6.11 29.68c11.19,15.03 6.69,14.67 28.38,21.7 3.47,-16.96 -2.93,-8.44 10.26,-17.07 7.39,-4.84 12.61,-3.3 23.74,-5.27l0.67 -10.06 -15.62 -0.32 -1.69 -21.14c-4.74,-41.01 -7.61,7.88 -18.05,-35.13l-16.11 1 -0.04 -14.36 -53.49 -2.59 -16.83 -2.09 0.3 35.81 0.53 2.04 16.55 1.43 -0.25 14.44zm-1796.94 -51.76l-36 -0.54 -1.03 23.45 34.04 -5.3 3 -17.61zm667.38 -18.83l-157.32 1.1 -6.57 19.18c21.55,5.47 4.92,-13.76 18.76,16.95l98.21 -0.05 38.1 0.92 16.59 -1.1 15.07 -1.66 1.59 -17.65 -16.53 -0.2 -7.91 -17.51zm1303.4 18.44c3.72,25.98 11.93,26.57 37.02,18.85 4.79,-23.55 6.39,-18.09 -4.88,-39.52 -17.66,-2.66 -16.38,-7.1 -33.96,6.32l27.57 -1.65c5.37,6.48 4.26,4.51 7.29,16.26l0.11 16.99 -12.03 -2.46c-9.32,-14.48 -3.53,-9.94 -21.12,-14.78zm590.52 30.87l-1.18 -28.35 -18.23 -3.17 -3.17 -17.16 -48.06 0.42 -1.51 18.74c25.95,1.36 20.53,8.84 19.67,31.96l52.48 -2.44zm83.45 -14.13l32.62 2.89c3.57,-24.08 8.8,-27.91 -9.03,-38.8l-22.74 -20.66c-3.65,-14.29 3.95,-3.88 -6.93,-12.36l-19.84 1.88c-8.46,9.7 -5.29,-12.75 -7.99,15.91 22.35,0.39 15.94,9.6 17.68,34.68l-0.57 0.81 16.98 -1.14 -0.18 16.8zm-537.34 -68.31l-33.96 -1.08 1.56 36.7c3.39,20.14 -5.05,7.28 5.76,16.3l24.1 -0.74 2.53 -51.18zm-1641.61 -2.4c-8.84,-34.92 -7.35,7.9 -16.48,-32.22l-35.89 0.01c-6,27.87 -14.49,9.43 -15.83,51.83 71.3,-0.51 33.91,-9.86 68.2,-19.62zm1187.73 -15.7l-8.79 -0.2 -36.32 -0.16 -2.06 21.15 3.31 16.23 15.56 -1.03 32.86 1.2 -4.56 -37.19zm-1362.66 -34.71l-11.25 1.4 -0.3 14.94 -19.95 2.73 -0.45 -0.55 -1.61 16.46 -16.17 -1.75 4.55 0.79 -5.68 19.17 18.08 0.44 36.44 0.34 15.54 -1.39 -1.05 -34.12 -18.13 -2.68 -0.02 -15.78zm487.43 36.14l-1.28 -33.24 -17.18 -1.8 -2.61 -31.45 -80.08 -2.67 -18.3 -1.83 -11.2 -28.64c-10.82,8.2 -10.07,10.31 -25.81,13.18l-0.05 18.51 16.54 3.13 -0.81 96.11c20.78,0.52 41.6,0.71 62.38,0.84 30.13,0.17 35.96,7.35 38.85,-18.42l20.39 3.63 2.92 -16.56 16.24 -0.78zm1036.04 -52.7l-15.45 1.52 -5.35 47.81 9.3 -2.78c10.97,2.19 20.79,3.51 34.23,4.5 14.72,-3 3.67,3.82 13.36,-6.84l-1.1 -42.01 -14.16 -1.64 -20.83 -0.56zm-69.57 35.14l0.96 -52.78 -32.99 2.23 -1.25 52.2 -3.91 16.73 25.11 -2.19 -3.26 -17.95 15.33 1.75zm-1521.54 -50.88l-33.52 -0.43 0.15 14.54 -3.13 20.39 39.19 -1.02 -2.7 -33.48zm639.47 38.79l-1.9 27.06c53.14,7.6 25.84,17.94 69.16,18.18 8.23,-22.37 -4.71,-9.48 16.37,-16.51 32.41,9.2 11.78,-6.05 20.09,18.16l19.7 -0.61 88.4 18.3 -8.73 -36.75 -8.95 1.73 -19.04 -1.33 -0.85 -13.38 -17.92 -13.59c23.12,-13.74 8.67,4.09 17.32,-17.85l-26.67 -6.38c-12.07,10.21 -5.04,-0.07 -11.51,18.52 -10.67,-0.38 -11.7,1.2 -22.37,-3.92 -27.59,-13.25 16.6,-4.25 -28.02,-14.31 -18.26,-4.12 -47.36,-3.94 -65.87,-1.42l-2.66 17 -16.55 7.1zm329.02 26.21l-14.62 2.43 -1.96 35.85 34.44 -1.12 2.46 -10.22 -35.17 10.8c1.17,-27.42 0.5,-23.22 14.85,-37.74zm1015.09 3.6l4.25 16.04 17.94 2.79 36.74 1.11 -17.94 -53.95 -16.61 -1.9 -3.92 -17.33c-24.51,-7.35 -3.3,0.92 -15,-9.4 -1,-0.88 -2.33,-2.36 -3.3,-3.31 -23.23,-22.66 0.51,-15.05 -27.54,-21.49l-21.89 0.77 1.51 16.56 -16.62 0.51c-0.74,20.64 -6.43,34.01 12.54,34.58l22.96 17.21c23.5,-0.06 31.89,-4.11 26.87,17.81zm462.07 -16.22c14.95,6.17 6.61,-4.05 5.16,13.41l22.54 2.3 1.22 -17.36 -0.78 -18.99 -1.44 -14.79c-18.28,-5.72 -4.73,-2.24 -12.62,-6.8 -19.38,-11.17 9.48,-1.57 -22.28,-11.38l8.2 53.6zm-2600.16 -69.38l-19.88 -2.4 2.16 19.91 16.62 -1.97 1.1 -15.54zm2314.75 -4.95c-22.5,6.78 -10.84,-3.26 -16.93,18.53l18.76 3.97 -1.83 -22.5zm-1866.83 38.9l36.26 1.74 -0.11 -17 15.89 -2.13 1.74 -17.24 -0.08 -15.14 -0.11 -6.3 -17.07 0.2 2.27 -14.96 -16.73 0.9 -2.69 -15.98 -17.25 -2.47 -1.87 -16.31 -15.84 -2.22 0.65 -17c-30.97,2.07 -49.82,-8.16 -52.08,18.34l-1.79 17.45 -16.27 0.26c-1.08,62.37 5.31,14.71 15.49,50.93l17.97 2.4c34.1,6.22 2.25,-2.16 22.76,10.27 1.04,0.63 3.05,2.09 3.88,2.61 1.14,0.72 6.31,3.55 8.32,4.34l17.12 0.54 -0.46 16.8zm607.88 -51.95l-0.34 -18.62 -17.83 -1.55 2.74 -16.44c-14.2,-20.34 0.68,-8.32 -22.08,-20.18 -0.37,0.3 -11.35,10.9 -12.66,11.81 -12.08,8.36 -2.04,5.01 -20.39,9.23l1.28 17.8 15.78 -0.14 -0.63 13.5 54.12 4.59zm-762.67 34l18.1 -5.01 1.07 -27.91 -1.38 -18.81 16.38 0 1.38 -13.33 1.75 -39.93 -40.53 1.26 3.8 17.29 -16.33 1.91c-4.68,16.23 -0.21,9.27 -14.61,15.88l-4.39 57.78 2.42 13.25 32.33 -2.38zm1921.07 -86.05l-0.5 -0.39 -18.07 -2.12 -0.72 -15.58c-29.03,5.36 -26.01,-1.86 -47.24,0.09 -48.74,4.48 5.75,4.37 -37.05,19.45l-1.46 15.83 15.74 -0.77 18.34 -1.39c25.81,0.58 16.52,1.41 35.25,8.6 17.58,6.75 15.62,4.95 38.6,5.93l-2.9 -29.64zm-711.06 -103.23l3.97 -14.65 -7.34 0.66c-25.11,-3.87 -9.22,-3.74 -31.17,-0.22l-1.24 31.91 -14.97 0.01 -0.19 11.62 0.04 18.23 -16.06 3.25 -1.65 17.44 0.31 37.44 5.92 14.91 46.51 -0.32 2.3 -16.33 17.92 -4.64 -3.31 -11.55 -1.07 -87.79zm-223.89 172.42l-16.46 2.38 -0.99 14.97 -0.63 36.31c6.56,38.67 8.01,-8.08 18.56,33.58l-1.07 17.61 17.2 -0.5c6.09,38.76 3.33,-2.25 15.32,29.28 16.68,20.72 1.81,9.99 18.25,21.15l0.77 22.64 0.64 7.57 31.16 6.57 2.13 15.44 19.44 0.05 1.96 -16.85 19.1 -3.16 7.46 0.68 6.28 -36.28 -16.78 3.33 -1.68 -16.58 -9.03 -16.85c-5.7,-10.76 -2.49,5.22 -7.35,-18.61 -8.48,-43.02 -16.21,4.45 -32.63,-29.52l-17.4 -5.38 -2.22 -17.04 -0.52 -32.56 15.57 -0.84 4.22 -17.29 16.25 0.04c27.28,-5.83 10.09,2.22 15.18,-17.51l1.35 -36.05 -17.13 -1.4 -4.71 -30.76c-15.58,-7.92 -7,4.94 -12.75,-15.21l-16.16 -5.35 -1.26 -50.51 -32.6 0.45 -1.17 19.32 -17.05 2.84 -2.03 27.08 -0.36 19.71 0.55 18.32 16.3 -0.05 1.84 17.98c32.76,-3.86 8.59,-2.82 17.19,5.22l-15.23 11.21c1.01,24.64 5.35,29.09 -19.52,34.55zm-708.82 -155.95l-1 -16.93 -13.23 -1.84 -35.61 1.67 -19.31 4.41 0.43 48.2 16.24 -0.3 -0.42 17.6c3.24,17.1 2.41,6.83 6.68,13.13 7.34,10.81 6.19,3.94 12.24,18.91l16.36 1.72 0.46 -16.21 20.53 -1.06 9.11 2.06 6.65 -17.29 16.4 0.5 -1.66 -21.1c-23.05,-4.97 -6.52,3.36 -21.35,-11.52 -15.31,-15.36 -5.46,4.24 -12.54,-21.95zm1123.66 73.62c13.32,24.06 0.89,-3.35 10.79,12.38 5.01,7.96 3.8,-7.5 5.88,18.72l17.15 -0.73 4.11 16.95 14.02 -4.69 -0.56 -29.51 -16.9 -3.13 -0.95 -32.27 -15.24 -0.12 -3.37 -17.21 -13.32 -1.45 -0.04 -14.92 -16.44 -1.53 -2.56 -17.63 -17.02 -0.94 0.4 56.29c17.21,2.99 8.04,-0.03 19.54,7.51 1.74,1.14 13.1,11.16 14.51,12.27zm-1587.17 -21.6l26.44 1.32 26.81 -0.72c13.44,-3.54 5.67,0.5 13.12,-7.1l-22.21 -28.25 -39.26 -0.21 -21.76 -0.37 -6.49 17.46 21.2 1.6 2.15 16.27zm48.48 40.38l-0.91 25.15c6.34,0.1 24.13,1.28 29.53,0.72 40.15,-4.18 5.68,1.9 21.29,-8.01 -8.69,-29.48 -14.73,-22.17 -49.9,-17.86zm104.62 -45.33l2.79 -8.32c0.11,-33.56 2.27,-12.33 -7.73,-20.99 -17.33,2.02 -24.78,5.54 -35.58,12.37l-4.16 6.55c-0.37,0.58 -2.3,5 -2.61,3.91 -0.34,-1.18 -1.73,2.95 -3.39,4.15l-2.38 28.22 32.05 -4.17c10.6,-24.54 -4.05,-8.1 21.02,-21.72zm1745.75 -12.66l-0.38 -33.79 -17.35 -3.91 -1.28 -22.74c-7.67,-11.98 -16.8,-8.74 -35.52,-10.26 -7.99,35.75 -38.49,39.63 18.34,58.92l-1.14 14.23 22.67 -0.28 14.65 -2.17zm-104.17 35.5l-0.63 15.92 17.02 1.46 0.7 19.65 35.05 -3.48 -0.24 -51.42c-24.81,-4.94 -1.5,0.62 -13.81,-5.34 -20.96,-10.16 12.99,-0.34 -22.17,-10.4l1.94 11.56 -0.97 21.38 -16.9 0.67zm432.33 -90.18l0.78 38.4 19.2 1.09 13.87 -6.4 -1.42 -31.44 -13.36 -0.93 -19.07 -0.72zm-240.16 3.21l-1.23 -35.75 -16.67 0.04 -2.46 -15.49 -15.14 -2 0.25 48.31 35.25 4.9zm-226.66 15.36c8.59,-2.07 19.28,9.21 18.59,-18.53 -0.78,-30.9 3.93,-8.59 -15.52,-18.6l-3.08 37.13zm-36 -69.17c-17.98,1.07 -4.31,-8.3 -16.17,5.4l0.49 29.14 17.61 3.79 -1.92 -38.33zm-1019.73 -32.74l-15.41 0.6 -0.01 16.03 -17.61 -0.65 -34.88 -0.13 -18.75 1.34 -0.25 -16.44 -15.98 5.72 0.18 61.78 0.27 17.14 14.24 2.22 17.55 -1.24 3.58 16.08 16.3 1.18 33.68 -0.26 18.78 -0.19 -0.93 -35.06 16.18 0.97c11.97,-9.96 10.94,-7.74 18.16,-23.96 -10.05,-26.49 -11.49,-22.4 -33.85,-32.42l-1.27 -12.72zm1.9 121.04l-1.43 16.18 20.82 0.7 2.89 16.03 28.19 1.94 22.38 10.33c1.09,0.82 2.86,2.74 3.72,3.46l7.94 7.13c6.05,16.3 -8.07,5.41 11.97,13.29l27.84 -0.12 -3.79 -34.66 -0.09 -12.96 -16.54 -6.36 0.73 -15.67 -1.92 -16.35 -15.92 -0.84 -18.41 0.05 -1.1 16.38 -19.44 1.86 -27.8 -1.25 -2.26 -15.76 -17.97 -1.24 0.2 17.86zm137.71 -86.64l-0.19 15.56 16.75 2.19 -0.05 -18.58 -16.57 -7.85 0.06 8.69zm671.2 -68.22c0.98,-28.58 3.99,-7.8 -5.75,-17.24l-25.05 85.23 20.81 1.76 -0.55 15.44 4.88 -1.83c13.81,-51.54 2.82,-37.3 5.67,-83.35zm608.37 -0.23c-30.81,-0.93 -63.54,-0.52 -69.75,33.69l-2.26 36 2.11 16.34 72.27 0.08 7.85 -18.07c0.77,-1.07 2.74,-2.94 3.45,-3.82 0.72,-0.91 2.63,-2.37 3.84,-3.67l-3.89 -44.75 -13.78 0.38 0.16 -16.19zm-920.53 63.75l2.97 19.95 19.86 3.57 0.45 -17.5 -1.69 -35.66 -1.8 -17.17 -15.81 -3.4 0.52 -16.84 -19.19 1.28 0.52 15.27 -16.72 3 0.28 30.44c0.14,0.11 11.68,9.77 14.24,11.34 12.45,7.65 0.91,4.67 16.38,5.71zm452.97 23.16l0.83 0.28 3.57 -18.57 14.4 -0.41 -3.25 -27.94c-19.21,-15.79 -8.26,5.71 -15.42,-23.38l-18.01 -0.51 -32.43 -2.52 0.91 36.5 -0.36 3.52 15.47 -2.12 -2.04 14.7 16.94 2.19 1.94 17.86 17.43 0.39zm261.66 -56.99l-0.79 -22.09 -1.37 -24.18 -17.42 -1.56 -6.02 -15.87c-14.67,6.38 -9.22,-2.08 -11.61,13.03l1.26 19.13 -16.74 0.4 -0.79 52.45 16.06 0.78 0.64 16.44 33.27 0.13 2.2 -13.61 1.33 -25.03zm344.99 -31.19l-0.92 0.62 -16.98 -1.16 0.95 -16.64 -0.72 -0.16c-17.96,-4.53 -12.98,-4.94 -15.92,-6.27 -9.89,-4.47 0.47,-3.12 -20.71,-8.89l0.88 14.48c-6.2,39.01 -16.09,-2.91 -15.33,55.41l14.6 -1.42c44.51,0.59 25.1,12.1 70.12,14.96 -1.91,-22.2 0.69,-12.64 -7.23,-31.35 -7.77,-18.37 0.06,16.32 -8.74,-19.57zm205.84 35.36l36.01 0.68 -2.48 -33.86 -30.76 -1.92 -1.7 -17.28 -34.9 0.03 -0.68 18.37 -15.35 -0.9 -19.34 0.05 0.18 16.56 -15.14 -1.71 -1 58.54 0.49 -4.18 16.25 0.87 -1.8 16.06 33.18 0.41 5.28 -0.43 -4.05 -66.34c5.74,-7.05 -16.93,-8.18 16.29,-5.62l17.89 3.45 1.63 17.19zm-1966.63 -34.16l29.38 1.63 1.87 -20.6 -17.43 0.28 1.59 -16.34 -1.97 -28.4 -15.61 -5.56 -3.52 -18.44 0.48 -11.61 -47.72 -7.03 -2 -16.36 -17.32 -0.09c-3.83,-11.09 17.41,-21.72 -21.86,-16.66 -27.64,3.56 -8.13,-3.09 -15.63,16.77l-29.8 -0.79 -2.52 28.05c25.97,30.07 11.82,21.84 33.7,25.78l15.96 0.24 10.66 0.29 25.24 -0.47 1.35 16.59 16.92 3.29 -2.35 16.34 16.75 -2.21 2.45 15.6 15.06 3.72 6.3 16zm-179.58 -48.56l2.49 79.59 0.04 21.13 19.66 0.36 14.54 -0.53 35.49 2.12 0.22 -4.7 -0.31 -14.92 1.09 -18.05c4.84,-21.16 1.81,-5.29 10.16,-17.71 10.12,-15.05 3.76,14.55 7.77,-16.87 -44.5,-6.14 3.97,-2.55 -29.7,-17.6l-8.31 -0.6 -14.64 0.39 0.58 -15.42 -39.07 2.83zm539.6 -23.68l-1.67 -14.4c-11.25,-3.28 -3.88,1.46 -13.7,-6.31l-39.11 -12.94 0.58 19.2 16.82 0.83 2.14 20.55c9.79,30.01 -1.83,-4.49 7.98,14.24 2.71,5.17 2.82,1.49 4.67,12.49l33.99 0.75c-8.46,-26.49 -6.85,0.53 -11.7,-34.42zm1105.24 -48.8l-32.18 0.47 -3.45 16.52 -33.07 1.12 -0.32 34.18 16.76 2.06 2.61 16.81 15.98 -2.2 0.11 15.76 16.98 0.95c26.45,-6.19 7.13,2.93 22.42,-11.93 15.49,-15.05 5.69,3.38 12.14,-21.65 19.61,-3.66 10.45,-2.4 16.96,-7.44 -1.09,-33.28 6.83,-22.01 -12.78,-28.61l-18.1 0.44 -4.07 -16.47zm-1884.72 -20.75l1.69 -12.27 -18.01 -1.57 -2.5 -17.87 -11.87 -0.53 -20.59 0.13 -16.62 -1.65 -57.04 1.18 -31.6 0.14c-1.1,25.19 -8.07,20.68 -30.38,20.59l-7.06 14.94 -29.86 0.61 -2.22 63.94 -17.77 2.33 1.4 15.41 1.26 18.49 -17.68 3.15 -0.51 0.85 0.83 16.07 -17.12 -0.42c-7.59,27.16 0.76,12.58 -18.55,15.44l0.27 16.57 -17.02 2.21c-41.08,6.08 6.77,3.4 -32.39,17.29l-2.25 18.05 -17.43 2.06 -0.44 15.64 17.09 1.98 0.62 16.03 35.73 -0.77 15.78 -1.64 4.96 -17.71 35.93 1.76c-1.46,-14.34 -3.62,-38.01 -4.07,-55.14l19.76 -0.94 12.49 5.6 0.49 -16.44 18.71 -2.02 44.48 -0.16 7.59 -16.56 17.97 -1.32 31.93 -0.53c-6.61,-42.31 -6.79,7.34 -15.13,-35.73l-18.42 -0.7 2.88 -30.68 34.98 -0.9 15.99 -2.67c5.91,-19.2 -16.56,-12.6 25.99,-15.39 2.11,4.23 3.52,4.79 5.43,15.47 0.01,0.08 -0.2,17.68 -0.24,19.01l21.26 0.84 -4.48 -26.87c10.49,-11.25 -15.2,-10.61 17.13,-8.76l3.27 -14.19 16.49 -0.52 -1.15 -21.85zm-52.22 109.84l1.74 11.41 16.55 0.93 18.97 4.13 -0.02 -19.05 13.22 -1.48 2.1 17.77 17 2.62 0.68 47.29 -17.9 2.09 -5.25 16.9c-33.24,10.34 -12.67,6.49 -46.35,1.03l-0.04 17.12 15.77 1.33 3.06 18.16 70.78 -3.79 49.59 0.02 -0.29 -15.95 16.28 0.92 0.41 -50.38 -15.07 -4.92c-24.04,-6.85 -10.04,13.07 -20.49,-19.08 6.25,-19.28 -3.59,-8.14 17.48,-14.66l0.15 -16.25 -15.57 0.09 2.25 -15.46 -18.67 -2.27 -2.89 -16.03 -32.74 -1.11 -1.53 16.41 -18.1 2.43 -15.77 -0.86 -1.63 -16.88 -12.74 -0.11 -0.67 31.62 -20.29 6.03zm1678.9 -56.8l1.31 -10.7 -17.22 -3.48 -1.85 -19.34 -17.25 -1.35 -5.97 -32.06c-29.01,-16.45 8.72,-10.85 -27.48,-17.42 -3.44,17.62 -2.75,14.64 -12.9,25.43 9.35,12.65 8.27,9.72 10.14,28.86l-16.48 -7.26 1.35 20.96 16.97 1.4 6.14 17.27 63.24 -2.3zm-914.73 3.16c-12.54,-34.01 -0.62,-3.17 -12.43,-22.85 -2.11,-3.51 -1.97,1.42 -6.19,-11.04l-16.78 -4.1 -2.31 -16.29 -15.3 -1.66 0.73 -17.8c-20.46,6.53 -9.57,-2.18 -20.13,10.98 2.12,14.25 0.21,11.28 6.48,22.98l21.6 22.87c4.98,5 2.95,0.39 8.44,10.69l35.9 6.23zm1623.03 -52.13l-0.26 -1 -16.79 -3.02 -1.57 -14.02c-33.86,-15.54 10.31,5.31 -14.73,-10.65 -4.3,-2.75 8.51,-7.97 -18.53,-7.54 -20.21,0.33 -12.42,4.96 -32.73,23.44l-4.17 11.69 16.42 0.26 2.97 16.34c31.39,6.04 3.77,-2.76 19.27,11.17l13.03 12.95c19.28,14.79 20.08,13.19 52.6,9.34l1.25 -32.99 -17.29 0.38 0.54 -16.35zm-1209.43 -39.97l-2.6 -14.21c-28.91,-3.44 -24.85,0.84 -39.52,-14.35 -27.56,9.5 4.42,10.87 -32.39,7.98l-14.25 23.86 0.16 35.34 16.23 1.48 5.02 15.79 64.66 1.26 2.68 -57.15zm-0.61 106.44c3.25,26.19 0.99,8.69 6.79,17.58 0.92,1.41 4.91,5.39 5.68,6.34 2.56,3.16 4.48,5.42 5.88,7l-0.4 -0.02c-3.99,-8.27 -0.08,-3.56 2.27,0.1l68.8 2.98 -2.34 -31.25 -17.35 -2.76 -3.01 -16.95 -14.98 -0.59 -15.61 1.38 0.82 -14.47 -32.57 -3.47 -3.97 34.15zm-1020.43 -33.48l0.11 14.87 17.54 1.67 0.8 18.9 15.3 -0.61 1.6 17.25 -4.81 13.6 19.19 3.95 1.67 17.36 31.13 -0.9 2.52 -16.84 18.69 -1.13 0.26 -35.86 -1.85 -13.51 -16.82 -3.7 -0.07 -33.12 -15.34 0.01 -2.6 -14.5 -14.78 -2.99 0.28 -15.02 -50.4 -0.79 -1.88 -18.55c-38.38,-7.69 7.6,-11.11 -46.13,-14.34l-22.13 21.87 16.19 11.9c33.23,-3.09 28.8,-3.66 28.52,16.51l19.92 0.33 3.08 33.65zm1815.96 -34.51c1.24,16.88 -0.48,9.56 12.89,23.29 0.78,0.8 2.54,2.14 3.26,2.83 0.72,0.68 2.61,2.27 3.2,2.82 0.9,0.82 4.57,4.27 6.17,6.74l72.38 -2.04 4.33 -16.24 3 -17.27 19.32 -3.15 8.41 2.16 4.99 -17.7 17.36 -2.19c-7.6,-21 8.87,-10.6 -15.1,-15.32l-89.82 0.77c-2.38,26.42 -9.18,21.91 -31.66,20.19l-2.13 12.23 -16.61 2.88zm-245.08 35.56l1.49 12.43 -28.48 23.73c-0.99,0.83 -2.74,2.5 -4.1,3.76l7.99 45.29 6.36 1.6 21.59 -1.58c20.79,-6.34 19.1,-18.69 32.37,-25.23l0.78 -45.33c-17.13,-3.63 -11.3,-4.1 -13.98,-5.25 -11.15,-4.77 5.01,-2.54 -24.02,-9.42zm88.96 -89.51l0.16 -15.15 -17.17 0.91 1 15.78 16.01 -1.54zm-1867.72 -84.77c-38.73,10.53 3.72,8.93 -35.52,16.56l0.62 19.28 20.63 -0.17 13.86 -0.95 -0.89 -16.4 18.25 1.31 65.84 -2.64 3.97 -31.74 -14.73 -1.8c-23.79,-3.14 -14.46,-1.07 -37.71,0.21 -28.36,6.6 -9.21,3.54 -17.07,7.9 -15.21,8.44 12.64,0.36 -17.28,8.43zm1713.38 -35.23l-86.98 -0.42 -1.29 58.22c35.14,7.71 12.47,14.35 69.54,9.82l4.92 -13.36 45.44 0.06 2.64 -20.78 -16.88 1.25 -3.39 -15.57 -15.2 -1.39 1.19 -17.83zm-623.63 1.18l-0.39 -0.87 -16.46 0.6 0.37 -16.4 -18.73 -2.26 0.05 54.73c21.86,3.65 14.07,-1.23 19.62,32.32l14.69 1.08 0.84 -69.19zm37.25 33l34.19 0.15 -0.76 -24.39c-7.54,-7.48 13.37,-5.67 -16.08,-8.25l-35.64 0.35c4.88,18.41 1.3,4.14 10.48,18.54 8.59,13.47 0.72,-7.75 7.82,13.6zm1033.52 18.99l1.19 2.02 16.03 -1.42 -0.57 17.73c2.08,14.71 1.35,9.22 7.93,16.97l24.06 -0.12 20.09 0.34 -0.05 16.92 2.66 -2.29 34.49 3.73c-11.5,-42.04 -8.09,-1 -15.41,-29.42 -8.54,-33.15 -6.48,-19.84 11.02,-21.33l19.49 -7.52c-5.55,-21.43 13.19,-6.42 -15.23,-17.12l-13.42 2.6 -23.58 -16.73 -16.46 0.03 -16.77 0.51 0.77 -16.41c-22.41,-1.51 -15.25,-0.13 -32.93,-7.94 -12.19,-5.39 5.24,-1.38 -18.57,-7.68 -9.84,-2.61 -8.94,-1.75 -18.75,-2.26 -3.32,16.84 -5.13,14.87 -16.19,26.1 10.95,12.19 12.36,9.44 14.92,27l18.2 0.02 17.71 -0.44 -0.64 16.7zm-1876.73 36.05c13,-7.74 10.74,7.59 9.68,-20.95 -1.26,-33.63 -33.42,-32.5 -50.59,-34.92l-2.44 -32.95 -16.18 0.06 1.03 -16.04 -15.15 -0.07c-8.01,28.04 2.08,12.24 -15.41,16.34l-3.73 -18.18 -16.97 1.54 -2.45 -18.3c-2.76,-15.46 10.06,-5.93 -9.3,-15.77l-28.2 0.31 4.79 17.3 -16.49 -0.67 -0.84 16.47 15.54 0.17 3.2 21.01c1.13,34.59 -0.53,2.59 30.84,19.08l4.15 40.63 29.97 6.93 2.01 16.94c44.92,6.34 -5.47,10.89 39.4,13.21 17.8,0.92 25,-5.54 37.17,-12.15zm1187.81 -69.59l10.45 -2.72 3.25 17.38 18.48 1.96 17.36 1.84 5.38 17.48c1.26,0.5 2.78,1.78 3.43,2.21l39.39 12.43c5.57,-11.16 0.89,7.29 5.45,-15.06 1.13,-5.54 0.33,-11.61 0.21,-17.21l-1.85 -18.58 -17.28 -1.93c-24.17,-5.28 -6.23,3.08 -21.62,-11.15 -15.5,-14.34 -5.49,4.71 -13.62,-21.06l-51.35 -4.48 2.31 38.9zm-1162.24 -53.26l3.69 16.01 18.41 1.97 -3.45 -16.99 -18.65 -0.99zm53.71 55.87l-0.07 14.28c24.31,2.48 20.7,8.39 20.81,30.05l47.34 -17.42c-5.34,-14.81 -11.96,-13.81 -16.71,-31.25l-16.41 -1.71 1.31 -15.91 -39.03 -0.97 2.74 22.92zm68.14 63.13l-0.31 0.09 0.44 -0.12 35.41 2.45c5.72,22.41 -2.39,9.77 17.95,25.82l-0.5 22.85 -16.25 3.45 -15.46 -0.23 -5.08 -0.33 0.9 -18.03 -16.77 3.21 -0.34 -39.15zm122.24 53.59l17.23 0.97 15.68 -6.88 -3.11 -45.68 -11.33 0.6 -1.68 -18.47 -15.94 1.27 0.06 -15.94 -28.97 -3.11c-41.47,1.1 -12.58,-1.89 -23.85,9.54l0.75 30.55 14.5 -2.71 2.63 17.82 16.2 0.57 -2.05 16.69 17.3 -1.92 2.58 16.71zm39.79 33.76l8.35 4.14c21.36,18.3 17.32,6.5 21.25,32.41l-15.63 -2.56 1.78 17.56 -6.57 0.83 -31.79 1.21 -0.78 19.39c2.4,22.13 -1.55,20.99 17.99,38.59 13.23,11.91 10.99,10.4 31.4,12.08l20.28 -1.01c1.65,-12.45 3.11,-29.61 -1.84,-42.06 -11.24,-28.25 -11.61,18.79 -13.4,-27.98l17.29 0.48c10.27,-30.03 7.38,1.61 15.14,-37.72l-0.25 -18.07 -15.27 3.6 0.86 -14.47 -44.92 -3.19 -3.89 16.75zm132.64 103.8c13.83,9.37 15.69,13.86 34.72,18.27l0.7 -16.45 0.86 -38.26 -17.41 2.7 -4.44 -17.13 -13.1 0.24 -19.99 -0.85 -2.16 -16.07 -30.77 -0.6 -4.21 17.81 21.25 0.59 0.39 19.6 16.32 -2.8 3.3 15.65 14.71 1.56 -0.18 15.73zm657.64 -381.53c-30.69,-3.48 -2.58,-18.55 -67.16,-14.79l-1.81 17.87 -18.09 0.71 0.04 15.38 -17.27 -0.65 -56.09 27.83c-1.2,0.6 -2.91,1.37 -4.09,2.01 -34.81,18.69 -16.42,-7.57 -26.36,23.21l17.41 2.4 0.33 15.5 14.77 -0.34 19.11 0.93 3.89 16.99c39.25,12.52 -10.87,19.78 30.65,32.73l16.98 2.45 2.73 16.29c36.76,10.09 -10.78,14.88 48.25,16.86l1.59 17.69 17.37 1.97 1.58 19.38 15.41 -5.08 -0.16 14.55 48.16 4.48 2.69 17.2 2.33 -0.33 17.11 -0.82 -0.76 16.18c4.35,16.02 15.08,31.86 31.57,36.77l38.45 14.61 -8.77 -33.09 -8.32 -0.51 -0.11 -17.96c-5.31,-24.37 8.29,-10.41 -17.02,-16.87 -30.67,-8.32 -3.47,-1.29 -18.67,-9.39 -11.83,-6.3 4.08,-3.46 -17.33,-6.4l1.81 -16.97 -17.5 -1.85 -1 -17.66 -51.01 -20.28 -17.33 4.34 0.85 -13.06 -1.37 -19.92 -17.34 -1.63c-9.25,-41.94 -11.51,8.33 -15.88,-33.82l-15.13 0.72 -1.67 -17.15c-0.01,-0.01 -6.91,-12.36 -7.06,-12.58l-11.7 -14.88 16.26 -10.44 34.14 2.23 54 -1.63 13.61 -9.61c-9.85,-8.2 -10.7,-5.98 -15.54,-23.65l-16.57 -2.75 0.05 -17.17zm138.21 313.82l34.99 1.91 15.62 1.72 0.95 14.89 9.33 -2.94c5.13,-31.31 12.88,-45.39 -0.08,-68.28l-32.59 -1.12 -13.02 6.27 3.09 25.89 -14.69 5.71 -3.59 15.96zm-1467.24 -295.11l-0.97 -16.97 -18.54 3.06 1.07 14.92 18.44 -1.01zm-57.75 -0.55l-18.23 -11.75c-0.62,-2.31 -2.43,-2.67 -3.72,-4l-26.42 0.25 -0.93 35.89 16.88 -0.38 35.32 -2.27 -2.9 -17.73zm1592.52 9.91l-0.75 8.15 19.31 1.39 17.19 -0.09c6.05,-56.97 -9.58,-9.14 -16.02,-52.81l-17.71 -1.82 2.16 -13.29c-38.27,-1.47 -10.81,-2.62 -21.02,8.53 1.07,29.24 2.03,32.12 16.84,49.93zm89.24 -7.12l-1.74 16.82 17.34 -0.31 1.49 16.19 16.12 1.35 -0.64 16.48 18.8 0.19 1.78 17.24 14.12 -0.71 15.88 2.29 4.8 15.84 15.07 -1.81 1.19 -19.54 -1.66 -9.18 -18 -4.19 2.27 -17.45 -17.76 -0.38 -0.63 -17.95 -15.6 1.76 -18.66 -1.56 -3.65 -15.98 -14.59 -2.02 0.05 -14.74c-20,8.32 -8.8,-3.3 -15.99,17.63zm245.35 34.32c19.72,7.07 5.3,3.24 13.84,8.73 3.91,2.51 4.27,4.18 14.95,8.3l0.7 12.9 16.55 4.94 2.58 16.09 14.68 -4.32 -0.95 -48.43c-41.14,-10.82 13.83,-10.81 -30.14,-16.12l-17.7 -0.48 -20.39 -0.48 5.88 18.88zm10.65 120.18l-29.63 -2.85 0.01 -15.27 -16.49 1.34 -3.48 -17.38 3.01 -29.47 -18.11 -3.21 -1.68 -20.01 -34.79 1.15 -1.09 52.01 17.86 -0.43 0.99 15.01 14.74 4.46 -1.7 14.27 22.45 0.14 2.86 17.14c13.46,6.07 8.67,-1.44 12.41,15.44l17.95 2.82 0.13 16.71 35.19 1.54 -4.38 -34.3c-15.15,-7.97 -10.63,-1.78 -16.23,-19.12zm54.37 20.17l34.33 -3.1 1.33 -36.44c5.52,-36.09 5.53,11.42 16.44,-30.77l-16.57 -2.56 -18.49 -1.73 0.94 -14.18 -17.71 3.01 -0.42 29.13 -18.15 -0.65c-0.59,22.54 -4.33,18.19 6.02,35.97 12.67,21.75 3.81,-16.11 12.27,21.33zm-70.1 -176.44l0.7 -16.09 -15.56 -2.42 -1.98 16.9 16.83 1.61zm-1715.1 -69.32l-13.9 3.2 0.66 30.22 16.95 2.16 -3.71 -35.58zm1284.56 86l16.2 1.29 19.39 -0.76 16.13 -3.48 -4.98 -15.45 -26.2 0.67 -2.88 -13.62 -19.29 -1.62 -1.62 -17.65c-16.4,-5.78 -9.74,-3.59 -19.47,-13.2 -8.28,-8.18 -7.09,-4.41 -12.97,-17.91l-53.07 -3.94 0.49 19.19 16.61 0.03 1.41 19.32 0.71 11.76 16.17 0.78 17.33 2.06 -1.62 15.89 34.65 0.21 3.01 16.42zm-1241.85 -177.19l-5.56 -29.04 -14.21 -0.05 -20.49 1.19 0.3 32.28 39.96 -4.38zm117.27 5.64c16.56,-4.3 7.47,1 17,-8.78 -10.44,-11.91 15.02,-11.77 -15.23,-9.29l-1.77 18.07zm849.83 -13.64c3.8,11.33 12.9,8.51 49.47,38.57 9.33,7.67 62.5,30.67 68.24,-5.93l-15.96 -0.33 -2.97 -16.83 -14.16 -3.96 -0.01 -15.66 -0.87 -0.82 -16.71 0.72 -0.16 -16.81 0.82 -1.24c-29.65,-8.98 -4.89,-2.88 -18.71,-9.89 -12.14,-6.16 10.39,-3.14 -17.51,-5.34l0.93 -18.13 -36.28 -1.7 -16.59 1.5c0.82,33.31 3.09,35.3 20.47,55.83zm-123 82.55c5.69,42.32 9.67,-8.96 14.49,33.82l16.66 -0.9 2.72 18.07 4.65 18.22 61.87 1.87 3.33 -17.55 17.8 -4.49c6.98,-21.58 -2.34,-8.9 15.58,-13.28l0.15 -38.36c-8.55,-22.54 1.54,-9.6 -16.88,-13.18l-17.2 -2.4 1.22 -15.89 -20.91 0.16 -2.68 -16.86 -56.2 -1.28c-1.12,1.19 -2.24,3.19 -2.93,3.93l-22.7 14.78 1.04 33.35zm36.24 -120.92l-4.59 -49.62 -13.52 -1.07 -19.3 -2.38 0.84 -16.14 -37.52 -2.3c5.76,59.12 8.99,19.51 20.22,54.75l16.25 -0.27 0.12 15.28 37.5 1.75zm-658.28 -92.94c-17.34,-14.94 9.04,-4.53 -13.86,-6.96 -21.21,-2.25 1.9,-2.97 -9.69,6.96 9.42,4.54 2.34,3.23 14.52,3.96l9.03 -3.96zm291.79 -322.75l15.44 0.59 2.56 16.73 18.01 3.46 0.35 19.17 15.72 -4.76 -0.14 17.03 1.84 17.21 16.05 0.15 -0.95 17.48 0.45 17.03 1.49 15.1 16.95 4.8 0.09 26.57 -1.43 21.51 -16.44 2.59 -0.28 13.81 0.73 16.6 17 3.51c9.26,44.36 22.39,15.88 35.56,48.14l29.65 4.14 3.75 15.95 17.42 0.88c25.37,4.43 12.33,5.48 34.48,18.09l51.32 -2.49 16.11 3.42 -0.18 14.11 51.34 2.41 2.18 16.45 33.71 -0.31c42.34,0.31 45.17,-1.05 70.99,20.79l51.69 -3.52 16.42 2.51 -0.74 16.26 35.4 0.25 16.84 -1.46 -0.17 16.26 16.77 0.8 35.52 0.92 17.32 -0.78 -0.26 16.02 0.37 4.8 18.16 -3.8 19.75 1.4 -0.64 14.56 48.84 2.17 2.82 17.12 30.38 0.22 17.83 1.14 6.31 17.16 11.26 -0.1 19.26 -1.68 -0.19 16.67 12.46 0.82 19.62 -0.89 1.48 20.44 0.01 10.4 16.6 4.3 0.51 -18.19 72.15 2.7 3.43 16.87 52.6 -2.28 13.03 2.92 14.7 -1.35 -1.44 16.62 105.21 -2.5c-6.71,-28.07 -4.33,-6.6 6.81,-15.45 16.49,8.57 7.77,1.47 14.07,20.58l48.6 -1.74 19.75 -0.96 0.18 15.95 85.35 1.41 32.86 0.03 34.2 -0.83 81.97 4.19 6.69 16.65 15.36 -2.97 -1.43 15.11 34.45 4.12 1.18 17.82 17.45 -3.37 16.13 2.71 8.13 16.47 11.61 -0.8c31.27,1.05 28.87,-4.37 30.68,17.17l28.92 -0.32c9.59,8.81 3.79,-5.04 8.27,16.61l17.01 2.22 3.21 17.23 29.28 10.95 18.38 6.1 2.38 16.24 -0.31 11.78 17.12 2.7 6.94 18.07 6.11 -0.85 19.81 3.33 1.93 16.77 0.96 11.13 17.7 0.85 12.02 40.81 19.88 0.44 2.04 17.01 16.34 2 -0.04 15.29 13 0.58 3.64 16.36 -3.19 29.3 0.49 1.81 -14.98 1.07 2.43 19.85c19.6,4.56 12.67,-1.18 20.18,18.18l15.49 0.65 -0.64 -19.78 27.55 6.79 22.46 27.66 0 2715.27 -1888.7 0 -30.1 -206.69 -15.38 -4.1c-2.17,-30.39 -9.6,-246.42 4.33,-251.65l-6.4 -53.5 17.21 -3.09 1 -66.27 -0.32 -22.26c15.38,-5.42 -1.27,5.9 17.36,-18.94l-2.28 -49.3 2.93 -46.21 16.35 -2.42 -0.04 -35.02c-22.45,-5.86 -7.69,7.83 -19.07,-12.16 9.71,-7.83 -13.84,-7.74 16.85,-5.76l1.05 -18.37 17.65 -1.78 0.79 -30.51c-0.27,-28.61 -7.28,-34.7 18.78,-34.49l-1.79 -37.09 1.27 -30.2 15.58 -2.19 -0.45 -19.38 18.13 -1.59 0.13 -11.49 -0.03 -52.54 2.88 -17.27 14.4 -9.63 0.61 -10.48 -0.34 -17.9 15.65 4.89 1.34 -19.86 17.19 -1.63 -0 -19.45 0.96 -27.76 17.07 -8.52 -1.35 -48.43 0.21 -104.22 1.43 -131.19 -1.89 -25.12 4.16 -47.98 14.43 0.05 -0.5 -28.79 0.17 -20.89 0.93 -21.21 16.31 -2.09 -0.35 -47.99 1.24 -39.91 -16.93 0.39 -5.6 -16.79 -12.68 1.65 2.17 -15.71 -17.78 -2.19 -1.59 -18.67 1.03 -13.22 -1.05 -18.41 17.54 -2.18 16.1 3.24 3.08 -18.09 35.81 -0.79 46.62 -1.47c-0.34,-29.77 -1.97,-5.46 9.31,-15.95l27.66 0.37 15.47 -0.65 1.53 -17.36 15.53 4.09 1.8 -18.42 16.88 -2.25 -2.14 -35.04 4.16 -34.2 46.92 -9.31 1.76 -5.33 18.4 -2.55 1.7 -18.42 49.26 -0.01 2.68 -17.31 16.7 2.49 -1.66 -22.65 -16.22 -12.66 -16.95 -3.07 -0.52 -20.18 32.71 -14.39 17.05 3.31 0 16.27 19.25 34.7 15.53 -0.11 -2.14 15.5 17.79 1.74 2.82 16.58 16.92 2.52 3.13 16.61 14.15 -1.31 -1.32 14.12 16.37 3.34 2.01 17.04 1.44 16.98 16.2 2.29 -0.58 16.46c10.09,-1.1 22.68,-4.47 34.17,-1.24 27.92,7.85 9.39,-4.06 15.23,17.9l20.22 -2.08c23.02,7.53 8.71,-3.52 21.72,18.05l46.68 1.54 2.78 -17.19 18.08 -0.9 11.41 0.51 22.39 17.83 18.01 0.84 0 16.55 32.73 -18.47 -17.13 -0.32 -0.54 -18.66 -16.54 0.97 -2.04 -15.33 -15.28 -2.83 0.25 -15.07 -20.03 -0.44 -3.02 -16.74 -29.31 -1.44c-5.91,-24.23 -8.51,-20.79 -33.81,-22.15l-0.85 3.83 -16.97 1.43 -0.45 -16.88 -0.54 -16.73 -16.79 -2.2 -2.4 -20.05 -25.74 3.8 -3.53 -17.88 -18.71 -0.08 -1.54 -19.85 -16.77 2.7 -2.64 -14.73c-25.54,-3.14 -40.47,6.31 -47.44,-16.16l-17.16 -3.88 -2.17 -16.88 -15.74 -2.09 -7.86 -14.98 -22.34 -0.5 -6.65 -14.62c-23.63,2.11 -27.27,4.9 -33.18,-18.15l-17.25 -2.61 -6.67 -16.25 -11.99 -0.8 0.18 -15.99 -14.31 1.68 -50.43 -0.47 -5.95 -17.12 -16.22 -1.04 -0.44 16.11 0.46 16.05 -0.52 18.84 -19.16 2.28 2.34 11.97c44.14,11.92 2.84,38.73 0.34,51.24 6.89,53.4 5.82,-5 16.73,41.37l-50.57 30.51 -1.39 20.5 15.62 1.1 6.65 15.46 12.29 -0.44 1.67 17.19 -16.66 -0.69 2.7 -16.06 -21.66 -1.14 -3.92 17.65c-41.35,-4.99 -90.86,4.11 -130.28,-0.91l-6.96 18.64 -49.45 -1.83 -17.51 1.05 -3.49 17.69 -31.47 0.96 -16.67 -0.74 -15.86 -0.09 0.07 15.23 -2.95 -0.93c-4.56,4.94 -1.57,2.67 -9.32,10.22 -12.57,12.25 2.37,-2.14 -10.21,9.1l-30.64 1.03c6.53,24.35 -3.27,2.47 16.33,25.56l-43.73 -9.77c-10.13,10.89 -2.9,-0.55 -7.94,18.44l-25.35 -0.74c-9.82,-8.27 -3.63,-0.15 -9.15,-14.78l1.17 -19.9 -17.83 0.21 0.84 34.77 -2.21 16.33 -15.97 2.34 -14.01 -0.49 -1.85 16.88 -19.13 1.79 -19.11 30.73 22.11 17.3c11.76,5.13 7.88,4.61 12.57,7.66 9.43,6.13 3.6,5.05 16.03,9.54l18.86 2.3 1.99 15.63c36,12.91 -1.51,12.49 33.98,17.25l5.05 20.9 -24.26 -0.55c-35.51,-17.87 11.8,-9.7 -29.83,-19.24l-15.86 0.18 -3.87 -15.08c-27.8,-8.97 -8.99,8.22 -19.26,-17.23l-17.15 -0.23 -2.34 -1.43c-13.34,-4.35 -8.01,0.69 -13.44,-13.19l-29.1 17.84c-19.84,22.63 -15.38,5.11 -24.17,41.63l-17.23 2.89 1.26 18.42 -1.67 17.06 -17.23 5.78 -11.82 7.97 -4.21 20.38 -16.03 2.99 -30.66 29.37c-7.79,27.19 -2.77,9.29 -10.7,19.35 -8.68,11.02 -5.72,-0.66 -10.93,14.45l-21.91 21.18 -10.73 16.6 -2.93 32.11 -16.49 1.78 -0.04 19.21 -12.02 28.23c-12.43,23.71 3.66,5.87 -13.23,21.31l-9.46 0.45 -1.66 18.29 -16.45 1.24 1.53 38.49 -1.05 14.42 -5.59 16.21c-11.62,-8.75 -8.6,13.82 -9.74,-15.6l-57.37 -0.03 4.09 15.87 -14.74 -2.22 -6.84 20 -66 -1.62 -27.66 1.42 -72.96 -1.53 -4.57 -17 -27.44 -1.56c-9.62,24.5 0.45,10.98 -17.53,20.34l-7.33 -19.35 -12.44 -1.13 -18.21 2.3 -0.09 -13.48 -15.49 -4.79 -2.06 -16.48 -16.06 -2.53 -10.07 -29.33 -4.5 1.05 -22.56 -0.85c3.76,-22.18 9,-15.92 10.14,-22.5 0.37,-2.14 2.3,-2.09 3.34,-3.23 -11.4,-29.58 -5.76,0.67 -9.52,-29.47l-13.76 -17c-12.27,-7.3 -15.17,13.43 -12.89,-24.94 0.02,-0.33 7.13,-20.86 8.07,-25.1l15.56 -2.45 -0.53 -12.19 1.71 -54.58 -0.47 -17.91 15.43 -1.56 14.29 1.85 22.14 29.31 -15.2 9.27 -5.56 49.56 19.81 17.69 16.03 13.63 17.83 -7.53 1.43 -23.93 17.97 -1.85 15.12 2.04 5.37 16.63 13.34 -13.16 1.48 -22.47 18.62 -0.66 -1.83 -15.67 11.77 -4.52c98.14,26.31 67.72,-49.84 116.68,2.91 30.23,-2.46 86.21,-8.93 109.52,2.07l18.95 19.38c-10.97,26.02 -4.06,-3.61 -13.61,29.78 21.54,-3.8 21.51,-4.46 34.79,-16.46l12.45 -0.1 2.3 -18.2 16.88 -1.6c13.24,-32.42 0.93,0.92 10.87,-15.71 7.93,-13.27 2.6,14.93 6.21,-18.4l3.87 -15.11 15.18 1.14 -1.72 -15.94 17.04 -3.76 1.08 -16.48c3.88,-24.92 1.52,-15.02 20.74,-33.09l-3.33 -18.06 0.87 -20.62 15.77 -0.26 0.52 -25.31 0.14 -19.45 0.72 -39.38 -18.4 0.46 0.59 -17.38 -0.39 -16.19 16.62 -0.62 -0.68 16.01 34.47 2.72c-6.2,-21.71 -6.47,-15.75 -7.74,-18.45 -6.36,-13.53 -1.2,11.32 -7.92,-18.28l-17.4 -2.2 -5.92 -16.94c-13.16,-2.66 -7.03,3.48 -10.46,-8.85l-35.33 -7.15 -1.19 -16.85c-4.65,-16.77 6.22,-3.69 -8.03,-13.15 -13.31,7.51 -10.7,-11.47 -10.66,14.92l-17.83 0.02 2.47 -16.95c-60.68,-2.8 -12.85,-8.17 -53.29,-17.61l-2.18 15.44 1.39 17.17 20.88 1.45 15.9 -0.72 -0.63 17.54 18.86 -0.3 0.06 15.03 29.84 2.76 1.72 15.72 20.45 1.23 -1.43 17.69 -20.45 0.29 -15.44 0.72 1 -17.78 -17.3 -1.27c-21.45,-6.05 -5.73,-0.04 -24.48,-15.1 -1.42,-1.14 -6.9,-5.62 -8.69,-6.83l-11.52 -11.28 -21.91 -2.09 -1.41 -16.97c-5.88,-17.37 5.03,-4.16 -11.9,-15.45l-5.3 16.33 -16.66 -1.66 -4.83 -14.82 -14.49 -2.04 -14.93 0.11 -1.34 -15.18 -14.53 -1.1 -15.89 1.2 -4.72 13.37 15.16 3.28 2.58 16.49 16.74 2.05 5.15 15.55 83.21 92.27c1.1,1.28 2.33,2.77 3.4,4.02 0.98,1.14 2.11,2.67 3.06,3.77l27.79 31.53 1.12 23.98 -22.13 0.18 2.22 -16.29c-25.14,-9.08 -9.67,7.28 -18.14,-19.48l11.75 -7.73 -11.9 -2.28c-17.04,-7.22 -18.24,-13.66 -33.01,-29.45l-54.07 -55.76c-9.59,-6.69 5.21,-3.61 -17.13,-5.09l-0.38 -19.4 -11.16 2.95 -2.96 10.73 -2.82 18.53 -15.66 0.44 -16.58 1 2.09 16.1c-9.83,9.8 14.42,6.41 -15.71,10.21 7.98,9.97 10.48,10.54 13.59,24.75l0.79 17.47 16.4 3.56 1.49 31.28 9.81 0.82c17.4,22 17.46,7.98 24.31,36.51l13.5 -0.38 4.11 32.56 -34.01 -1.33 -1.26 -19.26c-12.95,-38.78 -3.73,6.41 -20,-30.57l3.54 -18.34 -18.76 0.67 -0.89 -19.77c-23.97,-3.96 -19.24,-11.07 -21.42,-33.5l-3.94 -1.08 -13.7 -8.53c-29.83,7.43 8.23,6.06 -34.29,10.43l-15.23 -1.21c3.42,27.52 10.2,27.43 7.15,51.97l12.52 1.29 -0.22 22.41 1.85 10.99 -3.33 31.43 -18.14 3.83 -12.56 1.92 -2.4 -17.73 -19.68 -1.86 -3.16 -16.82 -28.34 0.68c-34.77,-7.38 -2.33,-3.76 -33.34,-14.88l0.66 62.36 -2.53 19.12 -16.75 2.9 -21.21 -0.74 -47.61 -0.5c-17.76,-4.58 -11.39,-1 -22.08,-11.78 -10.14,-10.23 -6.93,-4.11 -11.6,-21.07l-17.92 -0.57 -2.44 -17.57 -13.35 0.87 -12.76 -14.87 -6.72 13.88 3.42 17.1c-7.11,11.06 12.34,6.71 -17.65,9.52l-21.6 -42.29c8.74,-19.25 -1.49,-12.49 16.06,-17.99 -5.09,30 9,9.8 -16.06,17.99 -0.58,-2.34 -6.4,-17.78 -7.11,-19.46 -2.31,-5.54 -3.51,-5.13 -6.73,-17.27l-4.23 -32.82 -15.79 -3.95c-7.43,-34.71 -5.58,-31.01 1.84,-62.67l31.36 -1.89 3.21 52.24 -1.02 20.75 34.96 10.9c-2.23,-33.09 -2.18,-7.92 5.86,-17.08 16.78,7.86 7.86,0.21 13.19,17.97l6.73 -0.73 19.44 1.73 22.5 -9.48 1.65 -43.26 0.48 -16.16 15.08 0.04 0.81 -15.2 0.81 -18.96 16.93 -2.7 -1.22 -12.52 19.47 -0.46 -3.73 47.71 -16.55 0.63 1.52 34.89c-0.53,25.75 6.47,34.84 -16.29,34.62l-1.37 16.92 -0.79 30.61 35.56 5.96 2.31 -50.24 14.68 -1.67 0.82 -29.37c5.43,-4.76 -6.44,-6.36 17.69,-3.87l2.59 -18.93 49.28 -0.78 -2.04 -36.06 -15.21 -1.14 -1.62 -19.68 2.95 -13.52 -16.4 0.12 -3.05 -13.38c-0.86,-1.41 -2.08,-3.33 -2.65,-4.2l-13.38 -19.84 -1.42 -10.59 -0.15 -8.23c-15.21,-4.94 -9.55,14.71 -14.14,-12.56 -5.21,-30.91 -1.79,-3.03 8.17,-17.4 9.44,10.78 9.27,-15.45 7.34,16.17l15.46 4.39c9.14,27.26 -3.71,8.72 14.22,15.9l10.26 11.82c0.89,1.1 2.35,2.55 3.18,3.65 8.63,11.47 3.21,-2.88 7.88,16.07l1.01 14.5c12.58,11.72 15.58,13.95 18.2,37.52l14.04 0.75 12.16 14.94c12.95,-9.79 18.44,-12.73 38.8,-15.53l-6.41 -18.7 -13.35 -10.95c-16.1,-16.38 -5.26,8.08 -12.22,-22.7l14.46 -4.77c-8.38,-11.31 12.64,-11.94 -15.46,-7.45 -20.24,-1.76 -5.3,4.94 -27.08,-17.11l-7.54 -6.63 17.53 -0.02 0.87 -16.88 -15.19 3.79 -20.09 -0.93c-6.59,-44.55 -10.24,8.27 -14.16,-36.23l-18.3 -1.34 -0.79 -27.05c21.96,-11.13 22.82,-8.05 48.09,-8.74 -13.5,-30.74 -7.18,7.53 -17.73,-33.71 38.41,7.86 9.93,0.87 36.63,21.93l16.44 0.35 -0.23 17.88 8.72 -1.82 12.31 3.2 -0 13.93 13.79 3.22 3.4 -21.59 13.45 -2.54 31.14 -11.34c1.28,-0.54 3.54,-1.5 5.39,-2 53.57,5.59 -10.49,9.15 37.06,13.17 26.52,1 27.83,-3.17 31.73,18.95l18.63 2.96 16.55 -1.82 -0.56 16.83 12.18 0.12c13.41,10.66 4.42,-1.27 8.6,17.52l-3.08 18.3 19.49 -1.26 16.75 -1.02 -17.12 -18.38c28.38,2.29 28.49,-3.22 32.51,19.29l18.39 1.92c27.13,-0.59 7.74,-4.85 23.29,16.96l15.84 -1.36c29.71,12.7 -8.79,13.19 44.74,18.8l1.35 17.8 15.46 0.04 39.33 1.94 -2.91 -37.91 -15.88 0.49 -0.03 -18.28 -0.72 -17.73 0.94 -12.53 -29.65 -4.6 -20.47 0 -1.34 -16.91 -19.55 -0.01c-14.96,-3.54 -11.58,-4.2 -16.13,-6.9 -15.23,-9.02 7.4,-0.73 -10,-7.2 -8.47,-3.15 -32.28,-2.68 -42.12,-2.78l-16.37 -2.23 1.06 -15.77 -36.6 0.7 -21.11 -2.2 0.85 -12.62 -50.4 -2.09c-31.83,-0.8 -26.77,4.17 -30.96,-18.14 -18.18,2.45 -33.2,0.42 -48.75,-6.14 -11.75,-4.95 8.29,-3.47 -24.53,-9.73 -9.14,-1.74 -18.71,-1.27 -27.87,-1.27l-18.77 -0.96 -2.25 -14.99c-39.97,-0.89 -9.6,1.13 -21.37,-7.35 0.05,-0.04 4.9,-28.96 66.94,-4.73 29.47,11.51 34.27,6.54 60.5,13.43 26.05,6.85 0.15,2.46 18.7,9.71 12.63,4.94 20.45,2.6 33.11,6.56 28.61,8.97 -1.78,15.37 62.91,15.79l18.42 1.6 1.85 15.94 34.58 0.73c42.07,8.05 -13.61,7.77 32.79,14.22 18.63,2.59 26.2,0.13 27.85,-14.31l-58.57 -53.09 -18.68 -1.37 -1.49 -19.53c-4.2,0.7 -38.35,6.04 -40.98,5.9 -31.87,-1.64 -21.69,-4.39 -24.56,-19.36l-89.82 -15.83c-19.42,-5.17 -11.44,2.99 -15.06,-14.04l18.78 -1.7 -0.27 -22 -42.69 3.23 -8.07 6.51c13,12.47 10.81,6.2 13.91,27.19 -41.4,0.29 -28.78,4.74 -51.54,-20.7l0.37 -14.35 -17.03 -0.73 -1.39 -19.39c-36.06,-4.04 2.45,-1.96 -34.87,-9.97l-1.22 11.98 3.49 17.01 15.38 8.35c4.85,34.87 1.28,18.25 -4.63,27.48l-32.58 28.6c-0.99,1.47 -2.74,1.72 -3.15,4.29 -1.11,7.09 -6.42,-2.98 -10.42,37.62 20.25,3.06 10.1,-6.18 16.46,16.24 -23.82,-6.38 -10.85,3.34 -16.46,-16.24l-70.09 4.29 -45.84 10.84 -8.99 16.13 -16.05 3.13 2.95 15.66 14.73 1.63 0.03 16.86 -16.69 -2.55 1.93 -15.94 -18.37 0.64 1.26 13.85 -2.87 21.15 -15.13 0.64 0.64 14.16c-1.46,0.79 -3.64,0.36 -4.48,2.16 -0.87,1.84 -3.56,1.51 -4.81,1.65l-11.39 0.92c-7.82,0.22 -22.81,-1.05 -33.69,-0.51l18.49 14.52 16.91 1.66 -1.46 18.68 0.84 12.42c43.85,16.42 -11.06,8.29 34.92,20.61l1.14 15.78 14.87 -0.15 0.37 13.67 19.6 3.69 -32.61 1.07 -2.23 -18.29c-42.03,3.81 -65.18,0.03 -89.62,-21.09l-47.91 3.07 -19.1 2.2 -15.81 -3 -0.28 -15.49 -30.82 2.51 -18.48 -2.71 -3.85 -16.96 -20.41 1.2 2.06 49.02 17.67 22.76 0.83 11.31 17.87 1.89 -1.71 48.34 -16.15 2.63 -0.19 36.9 0.32 65.02 -2.52 32.75 -16.65 8.56 -4.09 14.75c-14.96,-11.62 -6.2,0.14 -9.93,-18.69l1.54 -171.09 -21.79 -2.52 0.74 19.47 -2.74 26.37 -14.36 9.79c-5.53,34.51 -11.96,0.6 -15.85,47.54l-19.95 6.69 0.43 -22.67c-22.87,2.51 -5.09,2.76 -12,-8.37l12.11 -4 -16.25 -14.32c5.79,-6.92 36.61,-7.28 13.36,-71.19 -9.38,4.81 -6.27,0.69 -9.38,13.95 -3.34,42.83 1.64,46 -20.23,56.12 40.66,43.47 -5.24,13.69 -3.32,99.17l19.88 4.03 0.71 11.16 -1.25 15.41c-15.18,20.85 -10.05,25.81 -22.61,49.81 -9.49,-3.52 -2.39,9.97 -12.74,-13.78l0.88 -31.1 13.49 -11.69 -13.45 -22.75 0.95 -105.11c-0.1,-3.06 -1.39,-19.32 -0.54,-21.83 6.79,-19.94 -4.6,-9.72 15.06,-14.84l-0.45 -10.39 3 -32.53c-6.05,-4.26 -3.92,-3.93 -15.96,-6.09l-0.56 18 -17.97 18.38 -27.13 48.92c-24.48,40.83 3.58,21.38 -21.01,31.18 -23.24,-47.39 21.42,-31.2 10.3,-83.72l19.61 -1.08 1.98 -16.9c8.23,-28.9 7.18,-1.9 12.03,-35.45l-30.4 -0.56 0.18 20.04 -20.15 1.22 0.87 12.72c-22.83,8.64 -9.14,5.61 -15.89,10.12 -9.86,6.58 6.56,3.08 -17.5,8.52l-3.5 18.81c-23.18,-9.96 -18.36,-11.87 -13.91,-35.83l17.83 -2.46c5.47,-15.54 2.75,-9.41 12.88,-18.57 10.19,-9.22 4.84,-7.21 21.82,-13.15l17.38 -1.43 1.33 -16.07c29.77,-6.84 6.98,0.51 24.09,-17.09l10.4 -13.8 16.44 -2.6 -0.55 -35.77 17.42 -3.91 -0.27 -27.93 -16.34 -3.87c-6.47,28.3 9.63,2.41 -31.25,40.34 -14.42,13.37 0.47,1.6 -15.44,13.16 -4.72,-7.55 -12.34,14.54 -6.73,-21.1 2.57,-16.33 -7.37,-2.64 30.53,-35.14 17.56,-15.06 -7.88,-2.79 21.49,-13.28l0.59 -17.95c-25.17,-3.07 -20.31,-8.55 -19.94,-31.78l-12.69 -0.64 -2.37 -16.27 1.79 -14.52c-3.54,-9.18 -6.14,-18.8 -10.48,-29.72 -6.71,-16.89 -8.28,6.54 -5.89,-26.4l28.93 -2.69 3.56 20.95 15.52 -1.2 1.7 17.27 -1.04 14.7 16.28 2.17 2.27 22.28 13.38 25.77 6.22 0.8 15.16 -0.25 0.07 -29.86 0.73 -18.49 17.71 -1.27 2.18 -1.51 -3.18 -16.04 -1.34 -16.3 16.65 0.86 0.21 -18.87 19.4 -0.11c3.71,-17.51 -0.51,-10.5 11.33,-21.18 17.41,-15.69 -3.82,-4.28 22.11,-10.66l16.3 -2.12 2.38 -16.44 -0.94 -16.62 16.66 -5.48 0.55 -11.97 -0.84 -46.75c8.06,-9.03 0.88,-4.05 16.23,-8.34l-12.65 -14.97 -35.33 0.99 -5.43 14.06 -14.91 1.48 -0.86 0.33 0.74 16.43 -18.18 0.95 -47.58 -0.93 -19.76 0.66 0.61 -16.48 -19.51 -1.34 -0.28 16.45 -49.99 3.2 -1.78 15.55 -17.34 -0.62 -25.79 -0.2 -15.64 19.42 -11.76 -18.58 2.3 -11.94c-21.42,-6.54 -8.48,4.39 -17.41,-16.5 7.17,-6.41 2.7,-4.58 17.14,-8.34l1.07 -29.69 0.23 -19.11 1.76 -15.94 17.09 -9.72 12.43 -3.97 3.2 -20.47 16.54 -2.12 67.76 -86.01 3.25 -16.78 14.87 0.25 0.2 -18.83 18.38 -2.06 16.78 -31.87 2.05 -17.44 16.16 -0.15 -0.73 -8.88 0.55 -23.05 16.82 -2.48 0.55 -17.07 -0.61 -17.73 17.03 -3.12 8.92 -16.59 9.71 -28.22 15.49 -3.05 1.84 -17.37 15.71 2.74 -3.29 -22.06 -32.05 0.26 0.09 -31.37 2.5 -18.21 17.09 -1.37 -1.66 -19.98c1.64,-36.65 8.29,-20.1 13.08,-49.56l-12.02 -2.92 0.25 -30.39 -54.82 0.1 -15.28 -3.88 -0.76 -29.93 17.56 -2.01 53.27 0.58 17.25 -1.56 -3.34 -15.23 -40.94 -2.35c-7.93,-6.79 -3.48,-1.2 -8.51,-13.61l0.76 -17.72c25.23,4.37 10.78,6.29 40.26,13.06 25.34,-13.38 8.85,-12.61 45.75,-15.04l-2.41 -18.46 -9.28 0.81 -8.28 -0.07 -13.86 -0.21 -0.1 -14.66 -15.37 -1.61c-21.75,0.68 -22.8,3.21 -27.46,-14.4 -51.44,-5.11 -34.56,-3.16 -53.25,-20.64 -49.67,3.37 -42.52,4.28 -59.93,-8.43 32.04,-29.62 75.82,3.22 111.35,6.63 3.72,0.36 7.6,0.56 11.58,0.7l1.92 -1.74 3.8 1.9c9.06,0.21 18.52,0.28 27.84,1.16l3.25 14.37c25.08,4.81 22.44,4.59 36.34,20.34l15.55 -4.54 -4.56 -13.23 2.56 -16.23 17.02 1.72 -2.3 -16.35 16.38 -3.3 19.05 -34.62 -0.22 -16.48 14.98 2.3 2.05 -18.13 17.42 -1.64 1.45 -17.54 17.78 -4.46 28.18 -12.94 3.86 -16.6 18.43 -0.75 15.65 0.26 2.23 -16.07 18.34 -1.81c-5.76,-30.77 -6.71,-7.71 9.89,-22.36 14.31,-12.63 2.06,-5.37 23.26,-10.26l17.17 -17.25 -0.2 -17.41 14.29 -2.2 4.05 -16.73c-29.71,-1.07 -12.16,-1.37 -19.37,-6.75 2.58,-36.45 -6.52,-20.98 17.98,-30.03l-0.1 -13.9 -0.64 -20.52 0.57 -31.56 0.55 -17.83 16.46 -54.49c-21.37,-7.06 -11.74,14.65 -18.83,-26.19 1.42,-1.2 3.09,-5.71 3.96,-3.93 1.01,2.05 10.6,-0.89 14.01,-1.23l2.33 -16.73 17.36 -1.41 -1.19 -16.82 17.12 -3.88 17 -11.3 1.15 -18.5 32.61 -2.22 2.25 53.05c30.44,0.32 6.88,-2.22 15.73,10.07l-17.56 5.64 14.93 29.45 16.75 7.87 2.28 16.53 0.52 18.29 -0.07 14.93 16.17 2.37 2.2 17.73 0.69 13.79 15.76 -0.9 -4.24 18.17 41.16 -0.7 -2.07 -26.05c-21.58,-16.52 -9.18,3.51 -16.81,-19.87 10.34,-6.59 -2.91,-3.17 12.89,-5.47 0.29,-0.04 16.35,0.02 16.42,0.02l18.57 2.06 4.03 15.96 68.92 0.08 18.15 1.08 0.88 -15.42 20.2 -1.58 26.55 -0.82 -0.04 -16 20.53 -1.38 16.41 1.71 0.83 -4.73 0.76 -14.03 16.82 1.16 18.51 -0.85 48.56 -0.83 2.42 -16.46c79.59,-2.34 46.24,-8.55 84.65,-17.45l19.08 -19.97 -16.87 -1.56 -2.89 -28.6c11.05,-3.92 14.19,-3.1 23.2,-7.34 26.66,-12.54 -1.01,-7.42 27.75,-12.98l2.52 -30.56 16.69 -3.81 36.02 -68.7 0.07 -16.62 16.1 0.5 0.25 -1.27c2.66,-7.95 -0.84,-11.27 16.6,-24.26l18.81 -8.77 17.03 -0.88 3.7 -18.13 30.88 -1.52 -0.62 -15.78 19.92 1.13 65.48 0.91 17.99 -1.77 -0.21 16.66zm87.9 300.15l-0.95 42.08 -2.43 51.73 -16.14 4.89 1.88 50.82c-17.49,-13.86 -0.66,-2.95 -7.77,-17.74 -9.41,-19.58 3.38,-7.32 -13.36,-21.67l-13.03 -81.45 -17.52 0.2 0.21 -21.68 0.18 -7.23 0.09 -25.73 -2.81 -11.87c-28.21,-10.67 -4.13,2.83 -20.04,-15.48l-14.74 -17.84c-14.44,-14.97 -8.15,0.85 -17.03,-23.81l-12.83 -13.62 -40.72 -1.17 2.43 15.76 20.14 4.13 -8.15 14.7 -28.42 -0.67 -1 34.84 -66.4 -2.35 -2.45 25.05 16.45 -4.45 3.89 17.24 -5.69 12.86 18.25 3.87 1.84 18.3 17.23 1.81 4.47 18.57 13.43 9.87 1.36 20.54 -19.77 -0.64 1.61 18.58 15.78 1.35 -0.84 13.48 17.95 5.56c1.92,27.48 3.33,13.61 -4.52,33.24l-15.99 31.43 -13 -0.45 -1.55 18.93 -15.74 1.97 0.24 13.14 -1.71 22.6 19.81 -0.77 3.69 18.46 12.08 -5.83 17.54 2.6 -3.02 17.29 22.35 0.61 2.17 16.32 30.19 0.52 32.49 1.58 1.38 16.25c12.66,24.15 12.92,7.27 18.57,33.75 6.17,29.07 26.45,23 33.53,50.33l8.26 1.01c14.64,9.25 5.28,-10.28 10.69,18.54l17.02 2.26 -1.12 16.08 13.14 0.49 1.29 15.03 39.8 -2.43 -0.25 -26.72 -17.95 -10.34 0.7 -31.12 30.11 1.72 0.51 17.25 19.68 52.57c-26.54,-6.75 -6.07,-3.83 -13.98,5.79l14.85 7.59 2.03 4.98 12 16.32 33.8 -2.38 20.05 6.09c-4.87,15.93 8.61,6.62 -15.81,13.82 -11.36,35.53 -4.86,-5.89 -15.68,29.87l46.86 0.75c2.41,-29.82 3.7,-53.89 2.53,-83.91 -0.54,-13.86 -2.43,-31.05 0.32,-44.63 4.8,-23.74 0.69,-20.66 18.5,-19.74l-1.17 -19.95 -0.33 -51.77 -0.05 -70.04c-19.24,-4.13 -5.16,4.39 -18.32,-10.66l17.96 -7.8 0.27 -15.03 -17.37 -2.33 -0.3 -19.16c-16.41,-3.69 -8.36,-0.17 -19.24,-8.22 -3.49,-2.58 -10.65,-10.82 -13.56,-13.69l-30.56 -29.02c-20.16,-25.8 -20.28,-21.32 -22.91,-50.85 -24.58,-4.58 -19.34,-10.22 -20.43,-33.65l-9.17 -50.38c-49.81,-13.68 7.77,-15.96 -39.2,-19.22l-1.81 21.39 -14.81 0.71zm758.57 219.67c9.08,22.21 -3.75,9.74 18,18l36.45 1.53 -1.93 -20.57 -16.21 -1.39 -14.77 -0.01 -0.49 -14.22 -20.64 -1.01 -0.41 17.67zm859.73 220.28c0.01,0.02 0.02,0.03 0.04,0.03 -0.02,0 -0.03,-0.01 -0.04,-0.03zm0.04 0.02c0.01,-0 0.04,-0.02 0.06,-0.04 -0.02,0.02 -0.04,0.04 -0.06,0.04zm-1658.22 1007.98l19.26 0.07 3.51 -17.99 16.98 -1.17 1.48 -17.23 19.21 1.47 15.06 -0.27 -1.95 -17.19 17.75 -2.69c17.38,-1.83 9.44,11.44 16.82,-10.84l-1.28 -24.77 -15.57 3.5 3.81 -16.62 -19.45 -1.44 -0.78 -17.99 12.47 -8.12 -27.86 -6.57 0 15.79 -7.45 -16.83 -30.88 -1.38 0.82 36.46c30.69,-2.06 6.36,-2.29 16.59,7.71 -10.4,12.12 2.16,4.17 -16.11,9.14l-0.21 16.06 -18.43 0.98 -2.13 16.83 -30.08 5.87 -1.97 5.64c-3.13,2.72 -10.62,10.66 -14.38,13.19 -11.28,7.58 -3.65,4.81 -20.71,9.06l-17.29 7.56 -27.84 30.6c-0.96,0.97 -2.01,2.61 -2.98,3.52 -18.34,17.13 9.77,-5.02 -6.51,6.07 -13.01,8.86 -0.68,2.16 -14.67,4.4l-1.54 17.31 -18.46 2.38 3.14 15.63 -14.87 -2.31 -1.46 18.77 17.65 2.68 51.02 -1.48c2.58,-17.5 2.34,-13.3 13.56,-23.35 10.41,-9.32 4.59,-7.72 20.1,-12.93l2.5 0.68 -1.37 -16.4 16.4 0.2c30.94,-8.7 3.12,3.35 24.59,-17.92l15.43 -1.23 -4.25 -15.83 12.3 0.99zm126.74 -123.67l-0.77 -11 24.19 -20.12 6.31 1.38 5.26 -18.03 18.05 -1.58 -6.8 -18.66 -21.64 -0.17c-9.84,-8.11 -3.82,0.01 -7.64,-16.16l-0.36 -13.73 -16.65 -5.96 -2.83 -16.06c-4.7,-16.73 10.07,-9.15 -12.32,-15.28l-73.93 -1.45 1.45 14.87 -15.14 2.88 -3.4 15.49 -15.56 3.21 -3.01 14.83 -16.17 -0.12 0.14 20.39 -17.49 -2.42 -14.63 -2.2c-4.95,-16.72 2.36,-6.06 -9.05,-15.8 -37.77,3.78 -18.68,-3.49 -27.46,14.83 -23.91,9.2 -5.05,2.38 -16.53,14.13l18.74 24.17c1.64,8.64 -14.19,22.8 17.84,17.99 31.27,-4.7 8.43,2.62 15.06,-18.55l34.04 -0.83 1.09 -16.18 18.17 -1.43 16.93 1.2 18.1 2.3 3.58 18.32 12.25 -4.96c42.8,14.89 -10.07,7.94 34.5,19.19l0.29 17.21 3.76 18.22 9.82 2.92 -0.99 -19.75 14.2 15.72c10.69,-10.92 9.18,14.3 8.62,-18.81zm-976.56 -1438.2c0,0.79 0.01,1.55 0.05,2.28 -0.04,-0.74 -0.05,-1.5 -0.05,-2.28zm0.08 2.83c0.02,0.34 0.05,0.68 0.08,1.02zm0.01 0.09c0.14,1.42 0.37,2.81 0.74,4.25 -0.37,-1.44 -0.6,-2.83 -0.74,-4.25zm0.74 4.26c0.09,0.34 0.18,0.68 0.28,1.02 -0.1,-0.34 -0.2,-0.68 -0.28,-1.02zm1.1 3.45c0.21,0.57 0.45,1.14 0.71,1.75 -0.26,-0.6 -0.5,-1.18 -0.71,-1.75zm90.2 1671.22l29.87 -3 3.58 -51.49c-33.4,3.24 -27.9,5.36 -33.67,-15.07l-11.73 -0.78 -18.46 -0.24 -3.65 -15.6 -16.87 -1.04 2.23 17.23 -17.13 7.26c8.53,8.35 -13.63,10.12 16.49,4.97l18.73 1.66 -2.37 19.78 18.87 -0.43c1.39,24.87 -6.16,16.14 15.73,18.52l-1.61 18.22zm416.13 -1072.92l17.66 1.55 -0.47 13.91 14.12 -0.07 -1.06 -9.03 -2.35 -25.33c-11.2,-11.94 2.98,-26.7 17.79,-33.94 8.82,7.92 6.77,1.95 12.94,16.85zm-939 1208.81l-16.77 -2.22 -0.8 -60.07c41.78,-5.84 30.67,-2.93 36.74,76.03l9.07 82.66c0.17,-0.81 1.85,0.7 2.63,1.3 3.25,32.52 13.05,86.13 -6.09,113.58 -12.12,-17.37 -6.71,3.33 -10.05,-28.61 -3.58,-34.21 9.78,-43.95 -16.07,-64.88l0.09 -44.31 1.25 -73.48zm-170.26 74.26l-5.16 -29.29c12.14,-14.05 -1.63,-5.37 19.78,-9.34 -1.65,28.28 4.71,28.11 -14.61,38.63zm2001.27 -519.64c16.41,4.5 13.33,-9.25 18.35,13.07 8.29,36.87 -6.9,17.86 -15.44,20.75l-19.07 -0.89 -17.19 -2.75 -1.41 -24.68 15.02 -7.68 19.72 2.17zm-1226.67 -38.33c30.72,7.21 6.64,0.18 16.42,10.93l0.21 19.62 -16.51 10.4c-4.04,21.83 -13.81,15.57 -37.01,15.83l-16.94 -5.77 -1.96 -32.23 21.01 -1.38 0.29 -14.28 17.08 -1.34 17.4 -1.78zm2038.14 72.91l-16.07 -2.57c-8.81,-36.05 -6.25,-29.93 0.62,-64.03 20.85,-3.46 13.76,-6.97 35.17,5.73 20.02,11.87 18.87,12.59 13.24,10.38 -8.35,-3.27 -26.55,-12.98 -0.32,-2.31l0.32 2.31 2.39 17.31c-6.11,22.97 2.79,6.93 -10.48,19.87 -16.12,15.72 1.49,5.4 -24.88,13.31zm-794.6 1311.5c-34,6.64 -8.72,3.65 -18.25,-4.79l3.51 -27.58c15.44,4.07 5.9,0.27 18.56,6.83l16.35 10.4 -1.45 16.96 17.54 0.57 -2.12 31.73c-16.96,-5.19 -4.7,-0.52 -15.4,-7.46 -9.87,-6.4 6.51,-1.8 -16.03,-9.77l-2.72 -16.89zm903.24 -1953.11l16.06 2.54 -1.5 19.33 0.74 11.57c20.57,5.01 11.12,-4.56 15.9,14.71 -11.2,13.26 1.89,4.26 -16.28,4.3l2.97 15.42 -23.3 2.65 -16.42 -3.05 1.48 -17.74 -0.82 -13.07 -15.88 0.2 -2.17 -16.14 -15.6 -3.03 0.44 -15.11 -18.85 -0.52 3.01 -33.99c30.47,-8.26 10.95,-6.52 34.78,-1.75l3.56 16.92 12.02 -1.47 15.55 3.23 4.31 14.99zm-2216.99 15.89l-15.2 0.76 -0.51 3.83 0.8 14.96 16.27 -0.97 -4.92 -17.38 42.26 0.8 -2.77 -37.05 -26.55 -11.16c-18.47,19.3 3.94,7.94 -25.38,15.45l0.91 14.94 15.5 -0.31 -0.41 16.15zm2442.85 -85.06c-1.25,-1.45 -10.14,-10.31 -12.39,-13.76 -7.02,-10.79 -4.48,-2.68 -7.98,-19.51l-28.47 -2.56 -5 -15.35c-19.64,-2.91 -9.49,0.69 -26.8,-14.16 -4.98,-4.27 -6.92,-6.35 -9.24,-8.39l-0.89 -8.53 19.06 -2.61 -0.9 12.19c17.38,-0.16 4.61,7.5 17.39,-6.98l-16.49 -5.21 -0.31 -7.51 -16.27 2.81 1.1 -14.06c3.85,-24.77 2.98,-9.7 -5.56,-14.19l2.87 44.08c-16.45,4.35 -19.22,5.24 -19.2,-15.22 0.02,-16.87 2.68,-7.11 7,-15.38l0.61 -1.16 0.2 -0.38 0.2 -0.37 0.04 -0.08 0.15 -0.29 0.38 -0.71 0.18 -0.34 0.18 -0.34 0.08 -0.14 0.1 -0.2 0.18 -0.33 0.17 -0.33 0.17 -0.32 0.17 -0.32 0.11 -0.2 0.06 -0.11 0.17 -0.3 0.16 -0.3 0.16 -0.29 0.16 -0.29 0.13 -0.24 0.03 -0.05 0.15 -0.28 0.15 -0.27 0.15 -0.26 0.14 -0.26 0.14 -0.26 0.01 -0.01 0.13 -0.24 0.14 -0.25 0.13 -0.24 0.13 -0.24 0.13 -0.23 0.03 -0.06 0.09 -0.17 0.13 -0.22 0.12 -0.21 0.12 -0.21 0.12 -0.21 0.06 -0.1 0.06 -0.1 0.12 -0.2 0.11 -0.19 0.11 -0.19 0.11 -0.18 0.08 -0.13 0.03 -0.05 0.11 -0.17 0.11 -0.17 0.1 -0.17 0.1 -0.16 0.09 -0.14 0.01 -0.01 0.09 -0.16 0.09 -0.15 0.09 -0.14 0.09 -0.14 0.09 -0.13 0.01 -0.02 0.08 -0.11 0.08 -0.13 0.08 -0.12 0.08 -0.12 0.08 -0.12 0.03 -0.04 0.05 -0.07 0.08 -0.11 0.07 -0.1 0.07 -0.1 0.07 -0.1 0.12 -0.17 0.01 -0.01 -0.97 -4.59zm107.28 124.57l-12.57 -0.96zm-2532.49 97.9l2.6 -6.5 -13.81 -6.71c-4.08,18.59 1.55,18.79 -20.97,18.12l-18.44 2.41 3.98 14.42 47.19 3.34 -0.55 -25.06zm278.74 230.39c-6.32,21.53 10.2,9.65 -25.21,21.29 -2.02,-1.67 -6.45,-5.76 -6.57,-4.31l-0.93 -13.37 -16.56 -5.52c-0.22,-19.5 -3.18,-22.23 6.63,-39.06 12.13,-20.83 -0.97,2.81 8.48,-11.02l0.6 -17.63 28.73 1.64 10.2 17.13 -3.7 14.68c18.05,3.45 9.26,-3.17 17.8,13.24 -8.63,7.8 -1.6,4.41 -17.26,7.84l-2.22 15.09zm-480.42 -550.24l-12.96 -17.83c-6.18,-12.89 -2.23,-3.88 -4.63,-17.59l33.89 -2.8 0.87 19.22 -2.86 16.15 -14.32 2.85zm-416.06 1236.29l16.24 -2.87 0.72 -27.07c-28.3,-0.28 -6.83,-1.99 -15.23,7.61l-1.82 17.63 0.1 4.69zm727.49 -1049.48c-13.17,6.96 3.51,5.43 -16.48,5.02 -0.04,0 -16.41,-3.56 -17.95,-3.94l-1.76 -34.6 21.32 -1.67 12.94 4.52 1.92 30.68zm2054.21 1367.46c-0.78,-1.39 -2.12,-5.07 -2.49,-4.07l-13.61 -24.44c6.79,-5.76 -3.67,-3.63 17.26,-8.52l34.89 2.33 17.22 2.05c2.69,29.53 5.28,24.16 -9.71,36.34l-7.44 5.67c-7.22,4.56 0.12,2.4 -13.83,6.27 -0.54,-0.4 -9.28,-5.63 -9.29,-5.64 -0.96,-0.67 -2.98,-2.11 -3.98,-2.84 -1.13,-0.82 -3.33,-2.68 -4.33,-3.43 -1.08,-0.8 -3.14,-2.45 -4.68,-3.71zm-1657.08 -449.65c30.36,-5.14 7.39,-3.55 16.14,6.26 -7.53,18.35 1.28,8.1 -17.82,12.61l0.07 6.87 -43.12 43.77c-8.19,6.62 -3.34,1.98 -7.03,14.7l-19.29 2.22c-30.98,0.31 -5.83,2.04 -16.18,-8.84 9.08,-9.82 -0.21,-4.17 15.7,-8.84l0.84 -17.27 16.59 -2.2c2.38,-22.81 10.08,-44.39 33.96,-50.1 5.96,-29.52 -2.31,-12.54 14.28,-16.72l5.86 17.55zm-243.76 -1262.89c0.53,-22.25 -11.39,-7.86 10.96,-17.93 7.64,8.4 3.85,1.33 5.47,16.77l20.55 3.21 3.13 34.62 -35.19 -1.41 -5.85 -19.47c-31.7,6.02 -8.74,3.57 -17.2,-4.55 10.54,-21.81 -3,-7.93 18.13,-11.24zm226.66 1107.87l-2.02 16.9 -49.3 -0.37 -1.33 -17.8 -17.86 -4.01c7.89,-18.74 12.16,-14.31 36.02,-14.57 18.65,-0.21 34.41,-1.54 49.54,6.08 -4.13,16.85 11.37,7.25 -15.04,13.78zm2075.81 -418.07l16.45 3.26 2.41 16.73 -5.64 33.71c-19.41,-4.86 -13.23,2.42 -17.51,-16.82l0.5 -12.67c-25.68,-7.57 -10.08,3.55 -16.62,-15.45 11.46,-12.21 -4.85,-3.96 20.41,-8.76zm-2614.22 -485.72l17.04 3.04 1.09 17.34 -2.24 18 -17.46 5.58c-3.38,6.94 -3.16,5.65 -6.47,10.19 -0.61,0.84 -1.82,2.71 -2.54,3.63 -15.49,19.69 -15.73,14.99 -40.5,17.81l-1.02 -35.31 16.66 -2.65 1.22 -17.51 2.16 -16.39 32.07 -3.72zm1643.04 1473.2l0.06 17.53 -13.87 2.12c-6.12,23.23 14.96,14.78 -16.01,16.36 -30.19,1.54 -17.06,-9.95 -19.83,-18.54l-16.73 -0.05 -2.21 -16.42 1.58 -17.93 19.95 -1.93 29.88 3.26 17.2 -1.21 -0.01 16.82zm-587.46 -1744.23l0.96 14.8 13.44 -3.26 0.91 -10.79 -15.31 -0.74zm51.09 2142.69c0.8,31.97 1.04,7.13 -5.92,17.19l-19.82 0.8 -25.87 -53.53c0.3,-31.67 -1.39,-5.6 6.84,-16.44 15.38,11.83 3.75,-3.83 11.16,15.13l11.98 2.45c1.07,1.24 11.05,11.33 12.8,13.95 7.42,11.1 4.75,3.33 8.83,20.45zm778.71 -1195.92l20.55 4.7 -2.37 31.86 -30.71 6.02 -8.3 -23.72 2.93 -14.01c-2.86,-30.27 -2.43,-10.34 4.94,-19.3 17.86,5.01 7.52,-4.04 12.97,14.45zm570.18 -152.89c-23.75,-8.7 -6.51,1.72 -21.24,-13.16 -14.77,-14.91 -4.62,5.97 -12.72,-21.68l-0.9 -14.57c16.28,-7.77 -3.95,-8.18 28.49,-3.14l7.28 16.64 18.18 5.35 0 27.67 -19.09 2.89zm-2625.99 -503.52l1.94 20.45 -54.57 -1.6 1.04 13.22c-5.42,17.19 5.85,10.43 -12.24,14.97 -1.85,3.14 2.93,-7.16 7.47,19.69l-14.55 4.41 3.35 17.55 -3.02 16.48 0.77 16.95 -0.79 14.9 18 3.31 -0.5 32.99 -0.47 28.17 -16.94 6.48 -0.3 36.02c-30.74,-6.3 -12.9,2.73 -16.97,-15.77l-13.31 1.26 -14.2 -12.33c14.91,-29.74 3.6,-27.42 36.76,-24.55l7.4 -15.61 -12.81 1.1c-17.15,-26.1 2.42,-12.03 -21.22,-20.84l-17.98 1.35 -3.41 -36.85 1.57 -18.54 36.48 3.76 -2.07 -23.11 1.37 -27.26 0.29 -19.74 17.46 -1.07 0.59 -15.36 -1.87 -19.8c3.07,-22.97 0.95,-15.49 27.66,-21.35 13.07,11.9 3.31,4.93 9.95,12.44 11.74,13.25 -0.92,5.91 15.19,13.25l1.55 -20.97 3.12 -17.37 32.64 3.87 -4.14 24.47 -13.27 5.01zm1053.44 364.79c-4.99,-18.44 4.63,-5.4 -9.15,-15.63 -9.25,16.68 -8.03,-1.59 -6.46,30.82l15.41 3.65 0.2 -18.84zm-656.79 72.73c16.37,-14.41 11.44,-12.48 35.29,-4.88 6.32,21.19 7.56,3.17 -0.76,30.27l-28.4 3.11 -7.72 -16.82 1.59 -11.68zm100.9 -453.31l1.68 -12.4c-21.22,-6.1 -8.24,4.97 -17.36,-15.76 5.17,-3.67 5.43,-4.14 17.23,-6.3l18.15 0.91 17.73 -0.51 0.66 15.45 11.3 15.38c6.75,16.17 2.69,-0.31 3.34,20.17l27.21 1.78 10.07 15.21 14.9 2.05 0.19 15.57 17.76 -0.45c10.31,31.85 9.8,19.82 1.98,51.02l31.01 2.2 1.55 17.1zm1695.33 -159.09c19.21,8.03 9.76,-0.16 14.83,16.35 -9.6,11.59 2.7,4.32 -18.4,8.99l-9.8 -2.92 -20 -1.35 -2.92 -19.82 5.19 -17.92c19.96,8.76 15.98,2.47 17.12,19.92l13.98 -3.26zm-1207.11 449.88l-5.89 20.39c-19.48,-6.74 -7.56,8.74 -18.69,-16.21 5.99,-32.57 1.99,-10.06 10.12,-18.85l14.46 14.67zm-1313.15 -311.36l15.93 11.31 -20.07 11.06c-5.25,26.91 0.85,11.49 -13.56,15.15l-8.77 -35.2 26.47 -2.32zm325.26 950.96c3.41,20.09 -6.56,7.38 9.73,19.06l4.74 -16.02 -14.47 -3.04zm17.24 -18.5l-2.53 -11.36 -12.24 9.52 14.78 1.84zm84.29 24.27l-0.38 -17.04 -17.59 0.43 0.99 14.33 16.99 2.27zm2473.29 949.16l-3.68 16.44c-47.07,1.15 -22.99,4.78 -30.49,-12l-16.37 -7.84c-1.28,-18.31 -4.76,-14.34 1.13,-30.32 0.7,-1.89 3.68,-6.67 4.81,-8.33 5.65,-8.28 6.4,-6.74 11.83,-12.43l31.03 4.79 1.75 49.69zm32.88 -500.14c-29.91,-0.74 -6.65,2.17 -15.77,-10.62 9.66,-12.18 -0.64,-4.09 16.26,-9.59l0.58 -14.4 18.46 -2.31 20.27 1.76 0.89 19.24 -5.06 29.08 -14.33 2.75 -21.37 -1.64 0.07 -14.27zm18.07 -154.94c7.26,-32 -0.62,-12.35 13.98,-17.2 14.53,21.51 14.66,42.78 0.85,67.96 -19.01,-6.23 -8.11,4.47 -14.64,-15.63l-0.18 -35.13zm-1781.12 -1195.72c-22.83,-4.26 -14.62,17.14 -17.05,-14.83 -2.12,-27.92 10.17,-16.45 18.33,-18.78l19.99 -2.49 17.07 5.24c-5.02,31.15 -4.32,23.29 -21.7,29.75l-16.64 1.11zm-1156.18 51.09l3.85 -17.15c17.14,12.31 6.66,-2.07 10.74,17.33 5.3,35.85 2.56,8.6 -7.1,19.3 -10,-10.57 -7.74,-0.04 -7.49,-19.48zm1327.67 1369.26l-14.87 -2.95 -2.2 -64.5c-1.99,-0.62 -4.27,-2.12 -4.92,-0.85 -0.68,1.33 -3.43,-0.68 -4.39,-0.96 -25.59,-7.34 -11.62,1.68 -25.74,-11.06 12.68,-11.32 -20.53,-19.01 34.04,-5.51l6.68 -36.16 29.57 -0.26 1.31 21.94c-1.12,33.85 11.08,88.65 -3.94,115.32 -19.41,-4.81 -7.5,12.08 -15.55,-15.02zm-1069.42 -1543.93l0.35 18.7c-16.89,5.81 -8.68,-3.87 -14.41,17.11l-3.5 18.97 3.35 18.96 3.61 8.63c-19.67,15.85 19.57,7.44 -26.26,13.11l5.63 6.51 -5.62 37.42 -33.34 2.86 0.58 -20.98c6.4,-20.79 8.56,-2.51 23.28,-50.86 1.67,-5.47 10.09,-51.2 14.19,-67.25l15.03 -1.88 -0.66 -15.43c-24.99,-5.42 -23.55,-15.71 -17,-36.82 27.1,-3.59 8,-1.36 16.99,5.54l0.68 10.78 19.07 -0.08 -1.97 34.71zm-17.78 -14.13c7.66,-26.55 -5.83,-8.94 14.87,-15.54 -5.21,22.06 4.04,9.62 -14.87,15.54zm-260.53 933.99c-24.23,6.58 3.16,-1.79 -18.67,11.74 -12.35,7.65 -15.4,5.95 -32.08,7.57l-2.64 -17.11 4.35 -21.35 14.75 0.2 37.71 -0.63 11.39 0.12 22.08 2.34c-5.16,19.77 1.36,11.16 -15.23,16.64l-4.46 18.61c-20.97,-6.84 -11.11,7.53 -17.2,-18.14zm206.44 -276.53c-16.7,-0.73 -31.77,-15.92 -32.78,-32.91 23.35,-7.87 3.89,-5.97 32.71,0.03 5.01,26.63 7.35,9.69 0.07,32.88zm2165.7 -744.73l-48.66 2.51 -7.66 -20.26c-12.7,-5.47 -9.79,-4.42 -17.87,-12.43 -10.69,-10.6 -8.22,-3.83 -13.33,-21.26l49.01 1.7c10.39,2.08 9.97,2.9 15.56,5.13 21.55,8.6 -16.48,-0.55 20.57,7.94l2.14 20.34 16.45 -1.99 18.87 40.08c-34.71,-6.62 -31.17,1.36 -35.05,-21.77zm-1021.8 604.91l-18.38 -4.44c12.01,-21.08 18.77,-18.96 36.96,-7.55l5.75 35.28c-46.1,4.84 -16.24,1.43 -27.81,-6.17l3.48 -17.12zm-86.97 1751.15c-37.76,-65.69 -11.51,-55.65 -10.33,-58.29 0.17,0.07 12.26,-5.31 14.78,16.9l13.74 0.55 1.83 27.56c8.59,9.22 -12.51,8.66 13.59,7.1l19.55 6.23c-4.32,21.89 6.82,13.36 -16.03,16.71l-20.93 -4.01 -15.55 0.07 1.3 -15.35 -1.97 2.54zm-846.47 -2477.24l-17.41 1.6 -1.86 17.59 -16.39 0.35 -0.96 15.08 -32.6 -2.91c-0.38,-27.86 5.5,-45.44 33.65,-49.64 -1.54,-31.81 -2.55,-7.17 8.7,-18.37l39.34 2.04 4.2 27.53 -16.67 6.72zm1816.09 348.55l0.42 13.5 14.33 0.27c-4.96,-13.66 -0.32,-9.01 -14.76,-13.77zm-1782.85 947.87l-0.04 -15.7 -14.1 -0.73 -1.52 16.28 15.66 0.15zm-154.39 -1210.45l4.1 0.63c-5.64,35.18 1.76,5.57 -12.29,18.55 -9,-5.31 -6.23,-2.78 -12.35,-8.42l-10.01 -11.01c-0.76,-0.87 -2.09,-2.77 -3.22,-4.09l-0.38 -28.72 16.79 -1.85 2.16 -16.53 30.72 0.01 2.09 17.07 -1.1 17.9 0.3 17.37 -16.81 -0.91zm1074.37 1920.9l-21.25 0.17 0.25 -17.8 -17.91 -7.92c13.79,-15.75 -1.25,-6.59 18.32,-11.36l-1.54 -15.04c19.69,-6.95 8.53,-4.5 33.16,-0.3l6.8 43.4c-12.34,12.83 0.18,4.62 -17.83,8.85zm-1298.18 -865.51c-35.32,1.17 -8.61,1.23 -19.22,-6.22l-0.63 -28.62 19.96 0.83c17.36,6.2 13.13,-15.38 16.77,14.99 3.55,29.71 -7.53,16.23 -16.88,19.03zm114.19 -484.89c11.62,9.81 17.4,16.46 21.29,30.65l-24.1 12.65c-13.58,-12.59 -21.63,-23.76 -26.22,-38.03 13.28,-10.64 -2.21,-4.5 21.66,-7.22l7.37 1.95zm-132.09 570.87c-32.78,-0.52 -6.44,1.47 -17.79,-7.99 9.57,-10.35 -0.74,-4.41 16.95,-9.17 1.5,-29.52 -6.77,-10.39 13.24,-15.81l4.96 30.64 -17.36 2.33zm1003.15 328.86l17.29 -0.31 16.36 21.22c18.66,7.34 21.23,12.66 13.26,32.66 -22.93,-8.34 -18.2,-23.16 -42.43,-17.99l-3.8 -17.13c-24.5,-4.47 -13.81,5.92 -17.92,-17.03l-20.31 1.55c6.43,-21.82 -1.78,-9.76 12.76,-22.43l24.79 19.46zm1643.58 -901.52l14.14 4.16 2.97 16.82 -3.76 19.3 -32.77 -2.24 -3.96 -37.49 23.38 -0.55zm254.38 1091.83c7.6,-31.31 0.87,-11.47 16.87,-17.75 18.21,32.78 16.08,94.07 -0.7,124.34 -17.54,-6.72 -13.86,-9.81 -14.52,-35.18l-1.66 -71.41zm-1779.18 744.77c5.76,-24.99 -2.68,-11.64 12.22,-18.41 10.7,17 7.31,40.09 6.44,64.22l-17.05 11.47c-9.63,18.76 2.1,6.36 -16.48,9.94 -4.47,17.41 2.84,10.65 -11.81,19.06 -8.22,-9.62 -7.66,13.84 -6.38,-16.75l-0.48 -22.28 2.17 -15.87 14.56 -4.02 2.37 -27.41 14.46 0.06zm568.11 -2012.14l2.79 -9.64c-17.28,-6.56 -13.23,15.03 -16.7,-15.66 -4.01,-35.48 7.18,-17.52 17.23,-20.66l18.34 -1.72 -0.45 53.52c-3.42,20.31 5.23,11.28 -13.18,15.95l-8.03 -21.79zm987.56 348.15c4.14,-17.17 -3.77,-5.97 12.74,-14.64 4.95,5.97 4.21,2.56 8.13,15.17l15.95 3.07 -0.53 30.73c-16.21,2.88 -21.33,8.82 -39.33,-8.73l-12.57 -16.57c9.66,-12.04 -1.38,-3.95 15.61,-9.04zm-1519.77 -641.49c-25.5,8.19 -25.15,6.44 -31.76,-12.94 24,1.66 11.31,3.08 30.84,-2.17l1.22 -14.63 16.55 0.23 -3.58 16 -14.19 -1.6 0.92 15.1zm-136.84 1213.16l-17.62 1.03 -4.98 -16.02 18.59 -0.9 4.01 15.88 34.97 1.99 -4.91 -16.85 18.99 1.72c-3.75,22.3 4.93,10.4 -14.07,15.13 3.92,28.61 2.87,6.12 -5.83,17.58 -32.5,-2.91 -24.24,2.83 -29.15,-19.58zm1488.7 -411.82l-19.45 -1.29 -1.67 -18.9c4.94,-13.16 2.12,-9.8 10.01,-18.6 12.57,-14.01 6.5,-5.63 16.27,-12.46l7.83 -3.45 18.64 1.9 -1.87 16.75 1.83 15.06c-14.12,8.98 -18.62,13.85 -31.57,21zm135.27 -72.48c26.2,5.38 11.32,-2.12 19.54,12.41l-19.14 8.59c0.84,31.73 1.6,4.76 -6.9,16.06 -18.71,-8.53 -8.93,0.09 -15.31,-17.41l-29.63 -0.37 -18.32 -4.3c-5.36,-40.55 -0.58,-20.17 6.16,-30.35l9.66 0.55 18.73 0.71 28.64 -0.65 6.55 14.77zm-1870.11 606.62l14.76 -3.56 1.14 -14.89 -14.95 1.7 -4.76 -13.07c-9.89,23.4 -8.02,9.53 4.76,13.07l-0.95 16.75zm1975.02 -764.65l17.43 1.97c2.01,22.79 7.06,27.24 -12.12,38.02l-7.62 -17.62 -16.92 -1.67c2.15,-18.86 -5.35,-13.74 5.09,-31.84 16.23,3.89 6.04,-4.06 14.15,11.14zm-987.28 2305.43l-18.25 -2.27c2.32,-31.02 0.03,-26.03 25,-42.98 17.74,3.25 7.9,-3.88 14.16,12.48l-3.46 28.93 -17.45 3.84zm-1745.63 -2890.81l0.39 34.25 -37.12 0.3c-1.01,-1.7 -2.97,-2.6 -3.51,-2.99l-9.93 -7.3c-0.97,-0.74 -3.3,-2.29 -4.69,-3.71 3.21,-36.5 -0.99,-9.29 10.83,-19.84l25.93 1.97c-1.97,-34.63 -1.44,-8.84 6.96,-18.74 14.67,8.15 8.51,-8.03 11.15,16.06zm1240.38 1835.37c-8.7,-2.48 -21.31,0.62 -13.9,-48.38l7.7 -20.72c21.19,16.74 10.73,59.82 6.2,69.1zm1456.92 -774.34l-2.13 14.36 -32.54 -2.75 -2.76 -32.13 23.43 -2.31 14.61 3.72 -0.61 19.12zm-2646.75 -193.14l1.67 -21.84c24.04,1.33 18.24,-2.09 32.91,7.53 -4.49,15.95 3.72,9.88 -14.31,14.26 -0.78,30.8 2.02,5.04 -10.55,15.66 -9.22,-8.7 -4.34,-0.56 -9.72,-15.61zm2836.11 1263.28l-1.22 -40.54 5.92 -31.8c18.11,9.06 17.54,13.82 20.48,39.4 3.63,31.54 2.78,37.63 -18.82,51.78 -7.35,-8.88 -4.63,-1.65 -6.36,-18.85zm-2245.96 -1935.7l-19.01 0.23c-22.85,-11.32 -15.04,-6.85 -17.88,-39.1l19.86 -0.51 13.66 -0.03 19.25 7.43 1.01 22.37c-8.69,7.97 7.8,2.75 -16.9,9.61zm-418.99 434.17l-11.15 -1.69 -20.33 -5.63c4.99,-20.26 -2.91,-13.95 15.6,-19.2l19.88 0.1c27.66,10.68 9.4,-3.58 15.24,16.93l-19.24 9.5zm1919.62 1257.11l18.87 -1.93 1.57 21.65 -5.14 16.28c-36.68,5.08 -17.73,2.26 -30.34,-4.63l0.6 -13.87 -0.25 -16.98 14.69 -0.51zm-1501.93 -1987.16l4.41 -0.25 -21.28 -3.14c4.65,-23.1 -4.79,-10.56 15.09,-16.73l19.09 1.47 1.23 18.7c1.51,30.33 2.51,7.42 -7.62,16.17 -14.07,-10.1 -4.2,1.18 -10.93,-16.23zm17.32 -18.64l-2.83 -16.57c5.47,-31.86 1.58,-9.46 9.57,-18.22l13.54 13.17 2.5 21.43 -22.79 0.19zm0.11 104.26l-0.22 -20.24 13.2 1.72 19.2 0.33 2.87 14.17c32.22,7 10.08,-6.49 19,17.46 -13.52,7.69 -17.44,12.12 -34.97,8.63 -21.26,-4.23 -16.34,-5.36 -19.09,-22.07zm101.69 49.97l18.19 3.33c22.58,6.69 14.31,-4.06 19.5,33.68l-29.61 1.94c-7.3,-8.55 -4.42,-2.73 -6.29,-18.57l-18.05 -4.12c5.3,-19.91 -11.54,-10.41 16.26,-16.26zm-49.83 -69.81l-1.74 -15.2 -16.35 -1.59c5.68,-20.14 -5.16,-11.77 15.75,-16.7l19.72 2.86 2.22 17.55 15.07 -2.01 -2.43 15.19 18.5 4.52c1.17,18.37 5.42,19.08 -5.36,33.08 -17.92,-7.11 -10.25,3.73 -12.03,-17.48l-13.62 -0.52 -19.74 -19.71zm-675.59 349.4c-23.02,-6.47 -8.86,10.89 -16.84,-19.36 26.54,7.79 17.21,-10.82 16.84,19.36zm1142.02 -433.44l-16.48 -2.22 -1.58 -21.33 15.93 7.62 2.13 15.94zm1521.45 260.87l-17 -1.8 -0.32 -18.87c0.35,-30.32 -1.6,-7.57 7.23,-16.17 17.84,10.27 5.08,-4.3 11.74,18l12.36 -2.59 20.51 1.09 1.63 17.89c27.17,5.13 11.7,-2.5 16.02,13.53 -17.4,15.71 -23.67,8.82 -49.04,4.58l-3.13 -15.66zm-899.08 2607.81l-15.97 0.69 0.32 -16.36 16.38 -0.55 -0.74 16.23zm-1365.85 -2833.45l-17.36 -1.45 1.08 -10.85 -18.37 -8.26 1.96 -33.7 18.78 -0.79c-7.2,-27.6 -4.52,-7.23 5.65,-15.02 11.28,9.34 3.92,-1.24 6.62,14.91l17.53 5.21 2.25 48.2 -18.14 1.74zm1660.47 1331.48c-6.57,-28.03 -4.12,-11.86 10.65,-19.19 7.46,9.75 5,-9.38 6.65,18.49 2.06,30.68 2.94,7.86 -7.96,17.62l-9.34 -16.91zm-968.44 935.29l1.09 -21.64c18.32,-3.3 9.2,-8.66 32.42,-13.45 3.89,32.24 -8.74,42.2 -14.11,68.13 -6.44,23.78 1.31,9.84 -12.43,17.53l-7.99 -16.47 1.03 -34.11zm-554.41 -2460.39l0.99 -14.44 12.93 1.13 4.76 14.68 -18.68 -1.37 3.39 21.28 31.31 -0.91c20.92,-6.95 16.57,6.46 15.09,-24.46 -6.09,-4.31 -2.4,-5.11 -14.57,-7.76 -11.12,-2.43 -10.18,-1.18 -21.31,-1.47 12.93,-9.7 -16.75,-4.48 14.81,-7.53 9.54,-0.92 17.95,1.66 27.73,3.39 6.24,27.98 10.93,44.67 -19.5,54.23 -35.11,0.62 -30.58,5.58 -33.57,-15.5l-19.54 -3.06c5.38,-18.78 -1.81,-12.97 16.15,-18.22zm729.43 1708.17c-5.92,3.05 -3.62,5.99 -18.43,6.73 -11.78,0.59 -8.92,-0.77 -18.54,-3.06 0.78,-16.35 -0.69,-26.31 12.71,-29.87 27.41,-7.27 20.36,3.26 24.25,26.21zm-1217.14 -647.75l-11.18 -5.02 -2.31 -18.41 1.55 -14.19 29.65 -0.68 21.64 2.28 -2.92 32.78 -36.45 3.25zm2079.61 116.4l15.67 2.7 1.96 32.59 -30.19 5.17 -8.63 -20.7 3.21 -19.42 17.98 -0.35zm-984.66 -932.2l-4.47 -68.46 18.79 0.16 1.42 65.28 -15.74 3.02zm674.07 2336.39l-21.05 -5.08 3.1 -31.04 31.35 1.17 7.8 15.78c15.48,3.88 8.76,-1.7 13.47,13.42l-0.34 6.87 -0.21 14.52 -15.98 0.03 -17.95 -1.48 -0.2 -14.19zm1043.24 -1197.81c-21.7,-36.4 -2.91,-32.45 0,-37.33 18.02,12.08 13.34,-8.42 15.45,18.7 1.97,25.22 -9.35,16.11 -15.45,18.63zm-2441.6 -1335.46c-16.48,21.22 21.81,1.85 -9.71,7.22 -11.55,1.97 -16.14,0.17 -27.6,-1.1 1.4,-21.16 -3.21,-22.6 11.1,-30.94l9.18 -20.21 31.76 6.16c-8.6,18.58 0.59,9.1 -16.1,12.83l0.87 14.86 0.5 11.18zm-157.06 818.22c4.51,-21.81 -17.9,-12.11 25.02,-17.94 12.36,10.88 4.62,0.1 6.66,16.8l18.45 4.35c-5.09,18.61 2.29,12.44 -16.04,17.87 -9.17,19.74 14.47,12.13 -16.08,14.72 -31.43,2.66 -16.12,-4.24 -20.84,-15.79 -28.51,-5.01 -11.63,4.02 -16.53,-14.72l19.36 -5.3zm-294.1 277.19l-3.2 18.73c-20.42,-5.27 -10.85,10.23 -16.98,-16.82l0.37 -17.78c17.62,-8.13 15.36,-7.88 34.96,2.89 -4.93,18.4 3.66,7.81 -15.14,12.98zm1556.13 -726.7c38.18,-8.06 8.85,-4.19 20.02,6.33 -17.59,29.64 -21.44,21.99 -55.78,11.77l0.82 -32.48 31.73 -1.03 3.21 15.41c-3.61,14.98 13.14,10.49 -7.02,14.14 -20.53,3.71 0.5,4.7 -13.83,-6.57l20.85 -7.57zm-987.24 -457.68c-13.98,26.69 -24.63,12.04 -36.21,4.71 11.65,-22.72 -14.88,-13.71 18.11,-14.96 20.58,-0.78 17.53,9.68 18.11,10.25zm848.7 3157.56c-5.69,18.24 3.55,4.51 -9.69,15.11 -10.58,-10.49 -8.56,13.97 -8.81,-16.69l-0.94 -48.28 -18.45 0.82 4.09 -36.72c26.26,6.81 2.36,1.17 15.7,7.57 2.72,1.3 3.67,3.17 13.14,4.81l19.72 2.02 1.41 16.52 -0.28 53.74 -15.88 1.1zm-278.27 -3009.6l-1.35 -16.83 15.95 0.21 3.14 15.29 -0.04 19.33 -15.39 0.2 -2.32 -18.2zm218.09 1574.41l22.66 40.41c2.74,10.39 2.09,17.88 2.47,28.44l-17.71 0.33 -12.92 -2.66c-9.98,-14.85 -6.88,-13.57 -13.69,-28.3l-8.44 -40.56 17.89 -1.31 9.74 3.65zm452.67 -1575.37c9.99,14.05 15.33,18.02 20.88,34.67l-27.97 0.79c-9.44,-8.89 -3.92,0.45 -7.35,-16.16 -41,-6.89 4.74,-3.74 -31.91,-17.59 -12.71,-18.53 -4.37,-6.61 -16.98,-16.43 -12.8,-9.97 -9.8,-2.64 -14.89,-17.51 26.72,-6.28 10.88,-10.01 47.23,9.82 17.92,9.78 3.71,-1.51 18.01,10.96l-0.24 10.96 13.21 0.48zm-1241.77 596.94c-12.27,15.99 -4.85,13.4 -33.36,10.14l-0.1 -1.18 33.46 -8.97 -33.46 8.97zm-2.35 -28.17l17.81 -7.24 -15.92 29.93c0.53,-1.67 1.07,-2.73 1.41,-2.13l6.25 -11.1c4.88,-8.67 5.29,-3.49 8.26,-16.7l20.06 1.6 -2.06 24.84zm880.72 2428.92l2.5 -16.42 36.54 16.79c21.23,2.66 9.17,-0.3 18.74,8.49l-0.97 25.6 -52.95 -1.12 -3.12 -15.92 -0.75 -17.42zm-187.83 -328.97l-16.3 -0.59 -3.16 -16.38 16.87 -0.92 2.59 17.9zm-80.29 -462.95c-12.2,-20.39 -11.65,-34.66 0.03,-53.33 21.29,10.97 21.79,38.92 -0.03,53.33zm38.94 81.58c-16.73,-10.89 -10.84,-12.27 -11.89,-39.07 -2.3,-58.39 0.44,-39.35 11.89,-45.34 9.23,14.63 7.81,16.88 7.69,38.53 -0.11,20.68 0.95,30.22 -7.69,45.88zm-391.42 -2140.56l-0.03 12.14 -16.24 2.72 -18.27 -5.72c-2.41,-28.86 -2.52,-14.44 4.14,-29.43 27.27,7.08 7.5,-1.45 30.41,20.3zm190.33 1402.18l-16.63 5.35c3.36,1.47 3.81,3.43 11.66,1.82 6.5,-1.33 1.68,-1.24 4.97,-7.17zm0.32 -384.59c-13.88,3.15 -9.48,0.86 -17.02,7.38 8.06,5.42 -9.75,15.09 21.72,6.73 19.86,-5.28 1.69,4.09 10.57,-14.14l-15.28 0.04zm21.21 20.36l-39.86 1.39c-2.45,-21.74 -6.38,-18.21 6.17,-37.07l36.72 -9.11 -3.02 44.78zm63.88 -1055.71l-16.37 1.25 -0.27 -21.88 3.55 -13.49 14.52 -0.19 -1.43 34.32zm604.57 1608.02l-14.4 -2.71 -1.89 -15.76c3.2,-13.49 -9.05,-22.25 20.17,-18.24 22.7,3.12 13.6,1.88 16.82,29.14 -17.82,14.68 -3.43,3.94 -20.7,7.56zm-1597.63 -449.46l-8.24 2.6 -2.73 -18.77 5.03 -17.65 8.48 -1.56c8.74,8.34 1.54,-2.67 13.52,14.64 10.03,14.49 6.71,-4.87 6.56,19.9l-22.62 0.85zm1115.47 520.72c0.56,-28.65 1.66,-13.85 6.25,-19.63 20.65,10.35 24.33,62.72 23.7,68.11l-32.31 -11.95 2.36 -36.53zm468.05 -177.16c26.05,7.44 10.7,-1.44 16.45,13.19 -23.6,14.83 -15.51,10.39 -40.43,10.1 -0.62,-23.25 -5.74,-29.5 15.62,-41.09l8.36 17.8c-5.73,23.34 3.62,11.51 -18.15,17.29 6.76,-22.83 -4.54,-9.84 18.15,-17.29zm84.58 -363.29l-17.25 1.07 1.6 -15.66 16.23 -0.4 -0.59 14.99zm-1433.55 444.39l-3.11 -11.61c1.25,-20.98 -4.05,-11.66 14.93,-15.67 9.24,17.51 8.29,13.95 3,34.23 -24.35,1.55 -6.07,1.13 -14.82,-6.95zm-172.85 -1723.28c0.57,-0.89 4.93,-4.01 0.14,-9.65 2.62,-31.82 2.85,-13.9 9.45,-22.84l8.1 29.57 -17.69 2.91zm1174.28 587.42c-2.11,-29.53 -3.23,-7.5 8.94,-15.93 11.01,9.15 3.78,-0.55 7.97,16.07 3.08,36.68 2.55,8.05 -8.77,20.16 -11.24,-14.03 -5.77,0.95 -8.14,-20.29zm1176.67 2063.5c14.65,-6.59 8.39,1.55 15.87,-15.69 -10.37,-9.18 14.19,-8.84 -15.61,-7.12l-0.26 22.81zm0.26 -22.81c-3.33,-16.4 2.08,-6.51 -9.87,-16.62l-7.25 17.8 17.11 -1.18zm-34.85 0.84c7.02,-28.39 20.98,-22.77 51.25,-15.62l2.25 50.8 -18.13 1.41 -18.65 -2.96 -16.76 0.06 -0.01 -16.65 0.06 -17.04zm-1884.21 -1511l-18.81 0c14.24,-11.79 -22.25,-15.74 9.78,-6.4 0.81,0.24 3.81,1.58 4.62,1.87 1.02,0.38 2.71,3.3 4.42,4.53zm622.63 975.23c-4.55,30.48 7.13,10.59 -14.22,15.82 -10.23,-18.1 -8.29,-14.71 -4.02,-36.36 29.65,-5.44 7.99,-1.58 16.68,5.33l1.56 15.21zm-1149.01 -986.99l-31.19 3.99 4.95 -30.97 33.86 -7.76 -7.62 34.74zm1198.89 1643.83l1.3 -16.85 17.7 -0.58 -1.57 16.24 -17.42 1.19zm53.98 -1714.1c-13.04,7.56 4.66,6.55 -20.8,4.06 -1.86,-21.92 -6.4,-27.31 12.95,-37.16l6.77 17.34 1.08 15.76zm322.84 1210.11c1.36,1.67 5.02,6.13 5.87,7.15 0.62,0.74 2.3,2.56 3.04,3.5 0.75,0.95 2.34,2.39 3.14,3.51 11.11,15.56 9.76,12.54 9.76,39.62 -2.05,-0.67 -5.05,-3.88 -6.06,-2.28l-10.51 -5.22c-21.83,-14.83 -14.91,-12.03 -17.83,-27.51 -6.29,-2.21 -20.82,4.65 -17.3,-18.93 4.13,-27.71 -8.61,-10.56 24.52,-16.76 18.56,13.88 6.34,-4.04 5.38,16.92zm-1576.09 -1983.46c-21.35,-13.64 -16.55,-10.59 0.45,-20.93 6.43,10.82 6.49,12.15 -0.45,20.93zm1786.43 660.84c-10.19,8.37 19.31,15.54 -12.82,3.95 -0.82,-0.29 -2.59,-2.75 -4.05,-3.95l16.86 0zm-620.06 1811.44l-1.21 -18.6 16.1 -0.18 0.76 18.86 -15.66 -0.08zm1427.95 -847.94c-18.26,-12.8 -20.81,-24.1 -0.22,-36.43 7.67,12.33 5.95,-14.77 6.9,14.27 1.49,45.33 2.35,6.44 -6.68,22.16zm-2414.25 -1169.64l-0.38 -6.6 0.38 6.6zm1713.65 -629.77l-21.6 -2.59 2.68 20.29 18.92 -17.7zm-21.6 -2.59c-5.85,-1.23 -5.46,14.7 -7.82,-2.59 -1.78,-13.02 -2.46,-1.36 3.58,-11.23 7.43,8.17 3.69,0.41 4.24,13.81zm-828.67 2146.73l36.12 -21.37c-4.59,28.28 -12.94,47.59 -28.88,56.73 -10.58,-12.16 -4.31,13.77 -8.02,-17.62l0.78 -17.75zm7.44 691.29c28.77,38.76 -4.55,-28.44 6.14,9.3 8.18,28.89 5.72,-5.08 -5.89,9.66 -6.76,-15.82 -8.95,-1.42 -0.26,-18.96zm-1146.22 -2678.57c-33.81,-6.81 -14.06,1.75 -20.18,-14.2 23.62,-12.57 15.2,-5.89 20.18,14.2zm407.37 430.5c-13.95,-7.72 -17.9,-0.13 -26.43,-30.05l31.66 -6.27c1.72,11.19 4.21,6.79 1.75,19.63 -2.31,12.07 -4.32,12.08 -6.98,16.69zm-443.24 527.35c-25.92,25.1 -16.67,1.59 -18.71,0 6.7,-5.14 -2.23,-18.75 18.71,0zm150.28 60.87c-16.06,-13.47 6.88,-5.51 -30.54,-15.59l-4.84 -18.87 7.74 0.25 15.44 -1.65 18.4 1.51 -6.2 34.35zm2116.59 -145.16c-11.63,5.96 -6.52,5.44 -18.67,0 8.72,-6.58 -9.87,-18.83 18.67,0zm-934.33 695.34c-8.09,5.22 9.89,8.6 -18.96,4.09l4.14 -19.46 14.35 -0.13 0.47 15.5zm-1220.33 -1496.27c-18.69,-28.26 -4.4,-16.8 0,-22.89 0.34,0.44 25.4,-5.74 0,22.89zm198.69 393.68l1.89 -17.86 -1.89 17.86zm917.37 1684.62c-6.08,4.81 2.23,19.69 -19,-0.45 27.82,-24.63 16.27,-1.74 19,0.45zm187.97 -1946.09c-23.54,-4.35 -7.96,5.22 -14.82,-13.95 19.33,4.3 -2.84,-16.39 11.03,3.5 0.67,0.96 2.48,8.74 3.8,10.45zm-1446.68 589.87c-9.43,-18.86 -8.21,-10.98 6.48,-20.56 3.94,6.27 17.09,-10.74 5.25,13.61 -6.67,13.7 3.71,3.19 -11.73,6.95zm219.13 278.49c-9.36,14.42 4,7.84 -13.63,14.98 11.71,-38.69 4.08,-13.09 13.63,-14.98zm-49.35 -893.44c-12.37,11.1 6.85,8.72 -14.67,9 -25.72,0.35 -15.72,-5.79 -20.01,-9 6.29,-4.67 -7.68,-7.71 14.62,-8.59 37.35,-1.47 5.83,-3.69 20.07,8.59zm795.36 -182.03c10.45,2.92 6.13,-10.47 10.25,4.04 4.37,15.4 4.55,-0.29 -2.18,14.23 -14.19,-12.77 -4.99,1.58 -8.06,-18.27 -34.25,5.86 -10.06,2.36 -19.49,-6 8.69,-19.24 -4.15,-6.06 14,-10.66 10.4,10.02 4.78,-5.19 5.5,16.66zm-641.55 468.19l17.74 0.39 -17.74 -0.39zm-595.94 277.31c-8.49,-14.67 -10.51,10.74 -3.35,-15.32 0.24,-0.88 2.47,-2.68 3.36,-4.25 9.3,12.57 14.08,2.88 -0.01,19.57zm-7 378.8l14.08 0.14 0.29 2.92 -14.37 -3.06zm285.58 414.7c-16.65,-11.91 -16.98,-23.07 0.25,-34.56 7.07,11.28 7.19,-16.32 6.24,19.23 -0.89,33.4 1.57,0.71 -6.48,15.33z"/>
 </g>
</svg>
