<?xml version="1.0" encoding="UTF-8"?>
<!DOCTYPE svg PUBLIC "-//W3C//DTD SVG 1.1//EN" "http://www.w3.org/Graphics/SVG/1.1/DTD/svg11.dtd">
<!-- Creator: CorelDRAW 2020 (64-Bit) -->
<svg xmlns="http://www.w3.org/2000/svg" xml:space="preserve" width="7.07922in" height="1.93841in" version="1.1" style="shape-rendering:geometricPrecision; text-rendering:geometricPrecision; image-rendering:optimizeQuality; fill-rule:evenodd; clip-rule:evenodd"
viewBox="0 0 6421.16 1758.22"
 xmlns:xlink="http://www.w3.org/1999/xlink"
 xmlns:xodm="http://www.corel.com/coreldraw/odm/2003">
 <defs>
  <style type="text/css">
   <![CDATA[
    .fil3 {fill:#FEFEFE}
    .fil2 {fill:#0078C9}
    .fil4 {fill:#31B501}
    .fil0 {fill:#D60094}
    .fil1 {fill:#FE9D01}
   ]]>
  </style>
 </defs>
 <g id="Capa_x0020_1">
  <metadata id="CorelCorpID_0Corel-Layer"/>
  <path class="fil0" d="M1638.94 748.05c0.11,74.87 -7.07,137.74 -73.17,160.26 -67.72,23.09 -134.35,-12.29 -162.62,-47.06l-48.59 -62.24c-16.33,-21.88 -30.13,-42.58 -45.8,-64.95 -14.58,-20.82 -32.62,-45.72 -48.58,-62.24 -9.06,-9.37 -41.95,-56.59 -65.19,-35.96 -3.35,6.5 28.94,49.09 36.4,59.82 37.2,53.45 76.57,139.1 94.65,203.26 51.44,182.53 29.63,401.52 -76.53,562.18 -53.21,80.52 -132.73,143.32 -227.43,171.41 -30.32,9 -58.09,10.08 -55.25,47.18 40.47,16.82 200.58,-37.43 248.07,-61.14 91.4,-45.61 55.97,-50.8 134.51,5.46l187.29 134.19c-4.98,-41.91 -78.38,-281.15 -77.01,-303.43 1.13,-18.38 21.54,-35.16 30.69,-45.72 65.55,-75.69 135.18,-193.48 164.7,-290.76 47.48,-156.52 57.94,-377.04 1.67,-530.41 -6.53,-17.81 -16.08,-48.63 -31.14,-43.48 -14.77,5.05 -1.72,50.27 0.41,64.13 6.96,45.36 12.86,93 12.93,139.5z"/>
  <path class="fil1" d="M1160.72 941.51c-9.98,56.9 -39.43,98.39 -97.29,104.93 -61.03,6.9 -113.04,-31.79 -146.55,-58.29l-54.45 -46.57c-22,-22.9 -37.55,-44.66 -57.02,-33.24 -3.64,18.85 20.29,58.05 28.28,74.32 34.4,70.03 71.79,135.51 93,209.91 24.09,84.51 32.61,187.28 28.82,276.86 -1.3,30.67 -7.24,65.29 -7.4,93.57 -0.25,46.37 33.77,24.42 56.54,12.67 81.19,-41.9 111.7,-55.8 173.14,-129.7 141.48,-170.2 131.06,-436 37.28,-635.45 -21.84,-46.45 -45.84,-89.5 -70.24,-134.1 -5.74,-10.49 -10.47,-28.23 -26.19,-23.37 -33.8,10.45 65.42,155.41 42.08,288.46z"/>
  <path class="fil2" d="M389.64 915.78c-15.86,1.96 -18.69,20.19 -23.54,33.59 -12.97,35.8 -24.47,92.94 -35.67,131.77 -45.85,158.9 -195.76,122.85 -254.74,26.84 -6.47,-10.53 -12.6,-33.35 -24.96,-28.48 -13.02,5.13 -3.8,32.06 -0.29,43.91 21.02,70.93 74.73,164.25 116.6,218.22l104.79 119.2c128.02,112.84 270.22,195.67 444.95,224.54 40.68,6.72 170.91,20.66 206.2,8.01 15.72,-5.64 22.61,-23.78 5.6,-32.63 -8.91,-4.64 -37.44,-5.19 -49.39,-7.04 -30.9,-4.79 -61.17,-12.01 -89.35,-21.48 -297.63,-100.02 -398.03,-373.74 -392.95,-669.99 0.34,-19.88 4.84,-32.05 -7.27,-46.46z"/>
  <path class="fil3" d="M3565.48 751.25l125.55 2.46 0 -256.05c1.52,1.74 0.93,0.97 3.41,3.98l183.11 235.42c17.38,21.31 8.02,16.66 54.74,16.65 23.79,0 47.57,-0.01 71.36,-0.01l0.03 -465.3 -127.96 -0.02 -0.05 243.73c-5.65,-3.76 -8.49,-8.77 -12.65,-14.41l-130.48 -167.43c-8.19,-10.25 -15.59,-19.85 -23.57,-30.59 -8.4,-11.31 -16.33,-19.03 -22.84,-31.29l-120.61 -0 -0.04 462.86z"/>
  <path class="fil3" d="M4712.66 399.16l61.55 -0c46.76,0 86.84,6.32 91.38,49.13 4.55,42.88 -26.11,64.15 -71.69,64.15l-81.25 -0.01 0 -113.26zm-128 354.53l127.98 0.01 0.03 -140.29 56.62 -0.05c31.09,46.78 62.83,93.29 93.55,140.35l147.71 -0.01c-4.35,-8.3 -7.17,-11.96 -12.67,-19.32 -5.17,-6.92 -8.95,-13.12 -13.91,-20.55l-84.19 -122.62c38.4,-8.93 83.67,-58.77 92.92,-108.97 5.85,-31.76 3.84,-62.89 -5.14,-89.61 -27.61,-82.11 -107,-104.26 -198.56,-104.25 -68.09,0.01 -136.19,-0.1 -204.28,0.01l-0.05 465.31z"/>
  <path class="fil3" d="M6034.64 509.96c0.02,-27.98 18.61,-63.24 32.56,-78.23 42.31,-45.45 121.97,-47.29 162.6,-6.16 59.15,59.88 50.78,142.28 4.95,188.5 -58.84,59.33 -200.19,43.65 -200.1,-104.1zm-132.93 14.77l3.11 31.36c2.62,21.6 11.23,50.82 20.64,70.46 9.07,18.95 36.33,58.2 51.11,69.51 38.61,29.53 59.49,49.27 120.65,61.53 14.14,2.84 40.84,5.95 55.59,5.96 29.56,0.01 72.16,-8.2 98.44,-19.73 55.25,-24.23 96.91,-57.91 123.95,-112.4 25.21,-50.81 26.25,-68.34 26.25,-123.93 0,-37.21 -12.11,-71.07 -24.59,-96.05 -24.8,-49.67 -75.03,-96.63 -128.93,-114.8 -39.4,-13.29 -87.6,-21.24 -131.1,-14.71 -9.16,1.37 -16.19,2.69 -24.99,4.55 -109.49,23.12 -190.13,121.93 -190.13,238.23z"/>
  <path class="fil3" d="M3137.13 537.04c-0,-38.79 2.39,-72.69 32.55,-105.32 35.27,-38.16 99.47,-45.68 139.73,-22.65 75.38,43.13 82.6,145.89 31.49,201.27 -23.05,24.98 -47.43,33.77 -81.95,35.98 -46.58,2.97 -88.98,-25.34 -107.95,-64.05 -3.62,-7.38 -13.87,-36.8 -13.87,-45.22zm-130.47 -44.32c0,27.83 -6.99,20.83 2.75,76.05 3.19,18.11 7.75,29.1 13.55,45.53 10.5,29.74 36.65,65.77 60.38,84.88 6.67,5.37 7.88,8.23 15.84,13.69 6.61,4.55 10.98,8.34 17.47,12.09 30.06,17.36 72.3,36.16 111.58,36.13 12.49,-0.01 13.68,2.66 27.08,2.66 22.32,0 60.74,-6.91 82.21,-14 57.15,-18.88 110.55,-59.96 137.75,-113.37 26.86,-52.77 28.69,-70.59 28.69,-128.89 0,-49.02 -19.72,-93.93 -45.34,-129.47 -34.71,-48.12 -85.85,-78.2 -144.14,-92.2 -16.66,-4 -33.41,-3.99 -52.9,-6.35 -22.84,-2.77 -75.05,7.69 -97.68,15.94 -80.66,29.42 -149.34,106.34 -157.22,197.29z"/>
  <path class="fil0" d="M692.5 346.73c3.59,-3.04 56.12,-26.43 64.49,-30.68 35.54,-18.07 84.33,-51.62 117.92,-74.06 35.44,-23.68 31.36,-42.66 113.52,39.33l46.46 51.99c13.71,17.3 27.38,35.64 40.81,55.22 8.87,12.93 34.63,46.94 34.34,64.86 -12.59,9.19 -21.88,17.21 -32.7,25.48 -60.52,46.21 -119.85,81.02 -187.73,117.49 -22.62,12.15 -59.21,32.36 -82.49,40.23l-100.96 -252.7c-3.42,-8.92 -10.08,-30.04 -13.65,-37.17zm251.58 -150.19c4.81,-7.54 12.57,-14.75 19.59,-20.86l53.13 -45.37c12.32,-10.33 47.7,-43.72 57.1,-46.58 42.8,-13.02 243.2,90.97 277.87,127.58 -4.06,42.89 -177.54,201.98 -214.18,218.3 -42.4,-78.11 -108.28,-167.8 -178.39,-220.01 -5.37,-4.01 -10.87,-8.63 -15.13,-13.06zm-345.73 -85.04c73.78,-1.22 238.51,33.84 282.2,85.04 -29.13,29.64 -54.8,47.59 -91.31,70.51 -29.03,18.23 -72.37,42.14 -106.7,54.12l-84.19 -209.67zm47.86 -24.77c73.23,-41.08 303.91,-47.69 397.2,-18.35 -7.17,10.05 -26.94,24.91 -37.61,33.7 -10.08,8.31 -69.87,60.35 -80.14,65.1 -18.12,8.38 -40.21,-7.87 -53.89,-15.4 -92.54,-50.98 -129.4,-50.63 -225.57,-65.05zm-95.2 -32.61c7.42,15.57 15.74,51.27 17.78,70.69 15.73,32.7 28.91,69.95 42.85,104.93 8.1,20.33 38.57,90.61 40.65,106.84l10.17 21.96 115.81 293.9c4.42,5.76 11.23,21.51 11.86,30.77 9.38,12.78 21.79,50.23 29.33,67.48 4.81,11.01 8.68,21.06 14.39,32.26 7.07,13.87 18.38,16.32 28.85,2.89 0.66,-13 -36.57,-92.24 -42.07,-114.13 3.99,-4.51 69.12,-36.65 79.78,-42.32 60.55,-32.25 138.13,-79.15 193.35,-119.32 10.48,-7.63 27.91,-23.69 36.76,-27.75 7.8,16.66 16.82,33.34 24.56,53.33 7.4,19.13 13.49,41.65 23.24,54.77 25.84,-0.49 14.54,-27.96 3.43,-59.24 -7.69,-21.64 -18.18,-43.74 -24.94,-63.81l64.25 -51.53c32.45,-25.78 98.2,-83.22 121.07,-110.41 15.69,-18.66 38.12,-39.82 47.49,-67.66 54.73,25.83 138.24,139.47 169.01,189.69l32.8 55.89c5.3,10.37 5.29,14.76 19.23,14.1 9.9,-32.54 -44.13,-115.54 -59.43,-138.84 -28.77,-43.83 -58.13,-78.34 -89.05,-112.85 -23.29,-25.98 -76.65,-71.79 -107.81,-94.09 -133.04,-95.2 -279.47,-145.28 -454.73,-151.13 -132.66,-4.43 -232.8,18.34 -348.62,53.57z"/>
  <path class="fil3" d="M4062.76 522.27c0,49.14 13.27,91.37 37.4,130.01 73.06,116.97 236.01,138.3 358.95,76.8 36.8,-18.41 45.34,-29.6 59.07,-36.93l0.03 -209.27 -214.2 -0 -0 93.57 91.09 -0.02 0 56.63c-53.87,28.54 -119.7,27.11 -161.89,-15.33 -66.63,-67.03 -41.51,-191.15 46.69,-218.05 26.81,-8.18 50.25,-7.32 77.29,0.49 40.1,11.56 38.52,17.43 69.92,38.4l73.86 -91.09c-18.83,-25.63 -85.56,-54.81 -124.88,-62.25 -59.35,-11.23 -111.91,-5.02 -161.06,12.66 -65.83,23.67 -114.15,78.38 -137.91,142.74 -8.31,22.52 -14.37,55.85 -14.37,81.65z"/>
  <polygon class="fil3" points="5054.85,753.71 5431.52,753.71 5431.51,642.92 5180.37,642.91 5180.4,571.52 5404.42,571.51 5404.42,468.11 5180.42,468.11 5180.4,399.16 5426.54,399.17 5426.53,288.39 5054.86,288.38 "/>
  <path class="fil3" d="M2019.41 298.22l103.48 0 0.01 435.79 0.05 2.47 -103.48 -0.01 -0.02 -435.78 -0.05 -2.47zm-199.33 0.02l71.38 0.04 0.01 438.23 -78.81 -0.05 0.01 14.81 68.96 -0.04c10.93,0.58 9.31,2.46 19.68,2.46l253.56 0.01c51.02,-0.06 96.46,-2.46 145.25,-2.46l0.03 -14.79 -49.31 0.02 0.04 -438.2 56.62 -0.06 0.01 -14.77c-159.31,0 -329.49,-1.82 -487.43,0.03l-0.01 14.76z"/>
  <path class="fil3" d="M5731.84 615.83c0,24.5 -6.89,33.93 -42.44,38.81 -19.14,2.62 -50.1,-3.6 -65.74,-6.95 -35.99,-7.72 -67.33,-29.72 -96.15,-49.1 -9.9,18.79 -38.42,46.29 -53.12,65.06 -5.77,7.37 -12.34,15.51 -18.26,21.13 7.85,5.29 12.49,9.22 19.66,14.79 18.47,14.33 45.8,28.62 68.24,37.62 121.67,48.81 318.28,30.88 318.28,-123.82 0,-38.33 -6.49,-61.86 -32.63,-88 -10.22,-10.22 -17.23,-16.2 -30.58,-23.59 -42.86,-23.73 -74.96,-28.78 -121.93,-40.56 -22.98,-5.76 -68.43,-14.43 -68.43,-39.89 0,-42.41 59.6,-34.79 87.63,-28.55 36.06,8.02 63.87,23.58 89.6,40.84 10.15,-14.93 20.18,-30.13 31.33,-44.99l32.7 -46.11c-31.46,-20.85 -40.08,-29.81 -80.92,-44.63 -87.02,-31.58 -230.76,-28.18 -277.72,72.52 -30.39,65.15 -6.94,139.72 57.43,172.42 53.58,27.21 96.11,29.02 146.45,45.58 9.3,3.06 14.55,4.62 22.43,9.57 5.33,3.35 14.16,10.75 14.16,17.85z"/>
  <path class="fil4" d="M491.7 1107.27c-28.1,58.7 41.53,225 81.54,283.61 8.63,12.65 17.03,23.95 26.4,35.12 49.5,58.96 104.38,104.12 178.36,134.28 22.1,9.01 77.83,34.74 97.32,11.61 13.38,-15.88 14.61,-95.6 14.61,-122.16 0,-140.7 -46.72,-304.28 -113.24,-424.81 -3.48,-6.3 -12.97,-19.16 -22.89,-10.5 -16.59,14.49 30.38,99.25 0.49,168.07 -35.48,81.69 -156.57,81.73 -202.23,20.32 -56.39,-75.85 -27.96,-98.83 -60.36,-95.55z"/>
  <path class="fil3" d="M2740.78 283.47c-43.18,0.86 -112.67,42.15 -142.06,77.03 -25.67,30.45 -46.61,70.18 -54.23,110.72 -23.46,124.79 40.71,243.49 160.9,280.96 51.52,16.06 122.32,13.31 169.08,-5.11 23.9,-9.41 28.45,-12.55 48.07,-25.79 20.02,-13.52 48.34,-43.2 61.96,-63.6 -18.31,-12.25 -83.44,-60.98 -98.47,-68.92 -2.59,9.68 -15.42,19.71 -22.72,26.52 -75.53,70.51 -214.48,13.68 -187.97,-123.98 3.91,-20.31 10.75,-33.76 21.58,-49.83 11.66,-17.29 33.08,-33.82 55.77,-40.23 37.81,-10.69 82.84,0.39 108.17,25.57 8.58,8.53 15.4,17.63 25.17,24.03 7.57,-6.49 14.7,-11.99 23.2,-18.62l72.81 -55.21c-43.28,-64.55 -121.1,-98.6 -199.4,-98.5l-41.85 4.95z"/>
  <path class="fil2" d="M59.24 681.27c1.25,-34.27 36.19,-119.41 49.53,-149.34 36.26,-81.35 64.95,-104.2 75.38,-124.19l101.35 10.68c23.25,1.53 85.82,-0.58 101.79,6.39 3.97,10.62 2.01,27.33 2,40.1 -0.04,80.51 3.64,138.92 23.77,217.26 3.88,15.11 12.65,39.88 14.31,53.47 -147.42,6.12 -225.04,-14.14 -368.12,-54.37zm147.02 -299.41c11.3,-29.35 86.98,-111.34 117,-135.21 6.66,-5.29 12.09,-10.58 18.56,-15.84 30.52,-24.78 142.78,-98.37 176.6,-107.66 -50.9,64.29 -78.66,111.45 -105.58,193.43 -4.01,12.21 -16.37,72.73 -20.73,78.01 -29.97,11.09 -151.5,-6.92 -185.85,-12.73zm583.86 301.35c-0.64,-9.26 -7.44,-25.01 -11.86,-30.77 -81.19,36.27 -228.84,78.96 -317.37,80.21 -13.42,-47.43 -25.81,-91.98 -33.64,-143.42 -5.22,-34.33 -14.27,-137.35 -2.49,-164.72 7.18,-4.17 104.28,-21.87 125.13,-27.55 39.69,-10.83 95.46,-34.15 112.55,-38.41l-10.17 -21.96c-24.54,13.61 -192.75,63.39 -218.99,55.13 -2.26,-3.16 -1.34,-0.51 -2.51,-5.97l1.2 -18.19c1.13,-7.28 2.03,-13.4 3.5,-20.74 2.89,-14.49 6.41,-27 10.92,-41.03 7.83,-24.33 18.06,-48.76 30.31,-70.59 19.12,-34.08 63.13,-99.79 92.09,-110.38 -2.04,-19.42 -10.36,-55.12 -17.78,-70.69 -45.11,19.06 -89.7,44.33 -127.64,68.64 -98.99,63.44 -165.94,116.16 -240.34,202.85 -87.84,102.35 -149.47,228.08 -172.41,371.66 -17.3,108.31 -12.16,210.26 6.01,317.24 2.9,17.09 4.75,30.07 20.87,31.33 11.72,-14.56 1.71,-52.02 -0.24,-74.01 -2.43,-27.48 -4.18,-56.39 -4.77,-83.62 -0.69,-31.28 -1.83,-143.07 15.79,-161.01 8.88,-2.07 72.45,13.48 89.04,16.61 103.16,19.44 196.21,24.75 302.33,27.3l56.6 130.4c5.97,13.79 13.54,37.12 33.4,26.93 9.75,-7.75 -17.43,-60.51 -25.33,-79.29 -5.81,-13.81 -32.89,-71.54 -30.76,-82.36 57.35,-7.96 113.22,-19.04 167.5,-32.34 26.53,-6.49 51.73,-13.56 76.82,-21.73 27.88,-9.07 47.98,-20.47 72.22,-29.53z"/>
  <path class="fil3" d="M2756.96 1528.21c2.7,-4.12 1.36,-2.24 4.02,-5.83 2.07,-2.79 2.66,-3.42 4.42,-5.44l-0.01 140.34 66.48 0 0.02 -243.75c-87.34,0.12 -67.05,-8.42 -86.64,24.17 -7.29,12.13 -39.05,60.79 -41.42,69.43 -6.47,-7.57 -10.15,-14.13 -15.82,-23.58 -5.55,-9.26 -9.61,-15.27 -15.13,-24.27 -4.62,-7.53 -23.24,-45.74 -33.03,-45.74l-66.47 0 0.01 243.74 66.45 0.03 2.29 -135.26c0.39,0.49 1.75,2.18 2.16,2.77 3.25,4.54 0.81,1.05 3.77,6.07 7.8,13.28 48.07,76.88 55.8,82.07l53.1 -84.75z"/>
  <path class="fil3" d="M3843.69 1524.36c5.29,3.88 9.91,11.89 14.41,17.54l52.79 67.84c6.48,7.92 31.54,47.55 41.09,47.55l54.16 0 0 -243.74 -66.44 0.01 -0.06 125.52c-7.08,-4.72 -44.03,-54.98 -50.25,-62.93l-48.16 -62.6 -64 0.01 -0.04 243.77 66.47 -0.04 -0.01 -113.26 0.04 -19.67z"/>
  <path class="fil3" d="M1923.48 1216.57l59.08 0 0 -140.34 93.53 140.32 54.17 0.04 0 -256.05 -61.51 -0.02 -0.03 132.98 -45.79 -67.49c-8.18,-12.3 -14.61,-21.91 -22.64,-33.97 -26.42,-39.67 -8.97,-31.51 -76.81,-31.52l0 256.05z"/>
  <path class="fil3" d="M2775.25 1216.57l59.08 0 0 -140.34 12.32 17.22c4.03,6.05 7.51,11.31 11.82,17.74l58.56 89.14c13.95,21.33 5.67,16.24 65.01,16.24l0 -256.06 -61.56 -0 0.02 132.95 -79.26 -117.7c-13.23,-20.36 -4.29,-15.24 -65.99,-15.24l0 256.05z"/>
  <path class="fil3" d="M3801.82 962.98l0.01 253.6 59.06 -0.01 -0 -140.37 93.56 140.4 54.11 -0.02 0 -256.05 -61.5 -0.01c0,17.91 3.09,124.17 -2.44,132.96 -2.4,-8.86 -54.77,-84.63 -64.03,-98.5 -7.38,-11.06 -15.89,-22.55 -22.15,-34.46l-56.61 2.46z"/>
  <path class="fil3" d="M2356.74 1529.25c-0.09,-78.88 123.02,-82.07 123.1,4.93 0.08,85.43 -122.98,94.49 -123.1,-4.93zm39.4 -120.64c-10.08,0 -36.6,12.01 -45.19,16.35 -39.56,19.98 -70.17,73.55 -64.32,117.6 2.89,21.73 4.53,32.56 12.61,49.13 19.65,40.26 64.19,70.4 114.13,70.5 131.64,0.25 173.16,-143.02 99.17,-217.36 -36.77,-36.94 -73.05,-36.22 -116.41,-36.22z"/>
  <path class="fil3" d="M2927.87 1529.25c-0.09,-78.88 123.02,-82.07 123.09,4.93 0.08,85.43 -122.98,94.49 -123.09,-4.93zm39.4 -120.64c-10.07,0 -36.59,12.01 -45.19,16.35 -39.56,19.98 -70.17,73.55 -64.33,117.6 2.89,21.73 4.53,32.56 12.62,49.13 19.65,40.26 64.19,70.4 114.13,70.5 131.64,0.25 173.16,-143.02 99.17,-217.36 -36.77,-36.94 -73.05,-36.22 -116.41,-36.22z"/>
  <path class="fil3" d="M3558.08 1529.25c-0.02,-17.55 7.17,-33.83 19.3,-44.73 36.64,-32.92 103.74,-11.92 103.8,49.66 0.08,85.43 -122.98,94.49 -123.09,-4.93zm39.4 -120.64c-10.08,0 -36.6,12.01 -45.19,16.35 -56.14,28.36 -81.76,105.17 -51.71,166.73 5.74,11.76 17.14,27.24 26.07,35.47 19.27,17.75 52.01,34.95 88.06,35.02 131.64,0.25 173.16,-143.02 99.17,-217.36 -36.76,-36.94 -73.04,-36.22 -116.4,-36.22z"/>
  <path class="fil3" d="M2120.42 1470.16c24.95,0 77.1,-6.22 81.23,24.92 5.82,43.9 -48.73,34.19 -81.24,34.19l0.01 -59.1zm98.49 100.97c12.42,-2.94 25.05,-12.82 32.64,-21.52 25.13,-28.8 26.12,-84.92 -7.43,-114.53 -21.55,-19.02 -44.87,-21.54 -84.31,-21.54 -35.29,0.01 -70.59,-0 -105.88,-0l0.03 243.78 66.46 -0.03 0.01 -73.87 31.98 -0.01c2.3,8.56 17.7,29.03 23.64,37.94 8.27,12.38 16.48,23.38 22.84,35.94l79.08 0 -59.05 -86.15z"/>
  <path class="fil3" d="M6256.19 1472.62l34.47 0c37.9,0 66.92,31.26 59.58,74.29 -8.43,49.39 -50.44,51.29 -94.05,51.29l-0 -125.58zm-66.45 184.69c62.14,-0.26 118.17,5.31 163.25,-14.02 65.64,-28.13 88.29,-116.37 48.39,-177.99 -42.03,-64.91 -135.48,-51.77 -211.67,-51.77l0.02 243.78z"/>
  <path class="fil3" d="M4195.71 1472.62c29.52,0 49.97,-1.88 68.54,10.21 39.43,25.68 33.03,84.63 -0.54,104.62 -16.54,9.85 -42.62,10.68 -68.04,10.78l0.02 -123.14 0.01 -2.46zm27.06 184.66c129.55,0 165.55,-118.67 118.1,-191.98 -41.96,-64.83 -135.72,-51.77 -211.65,-51.77l0 243.75 93.54 0z"/>
  <path class="fil3" d="M2617.7 1022.06l17.23 0c31,0 56.61,-0.98 56.63,29.56 0.01,19.55 -14.39,32.01 -34.47,32.01l-39.4 0 0.01 -61.57zm-59.09 194.51l59.09 0 0 -78.79c31.55,-0.01 23.01,-8.66 48.38,37.78 7.88,14.42 15.74,27.24 23.03,41.01l68.92 -0c-2.09,-7.77 -8.52,-15.87 -12.21,-22.29 -4.45,-7.75 -8,-14.33 -12.56,-21.89l-24.49 -44.46c5.16,-6.99 41.87,-22.75 41.87,-68.94 0,-30.7 1.38,-53.69 -25.14,-78.27 -12.01,-11.13 -35.68,-20.21 -58.56,-20.21l-108.32 0 0 256.05z"/>
  <path class="fil3" d="M4924.35 1022.03l2.49 0.01c34.86,0 71.36,-5.54 71.4,29.57 0.02,18.02 -14.02,32.01 -32.02,32.01l-41.85 -0 -0.02 -61.59zm-59.04 -59.05l0.01 253.6 59.06 -0.01 0.03 -78.77 27.05 -0.01 44.31 78.79 68.96 -0.01c-3.05,-11 -46.63,-77.21 -49.25,-88.63 5.93,-8.16 33.61,-16.81 40.92,-57.55 11.51,-64.14 -20.67,-110.3 -90.14,-109.9 -33.63,0.19 -67.3,0.04 -100.94,0.04l-0.01 2.45z"/>
  <polygon class="fil3" points="4451.76,1470.17 4582.19,1470.16 4582.19,1413.53 4385.25,1413.53 4385.26,1657.28 4582.19,1657.28 4582.19,1600.65 4451.75,1600.64 4451.73,1561.26 4569.89,1561.27 4569.88,1507.08 4451.72,1507.11 "/>
  <path class="fil3" d="M3604.86 1091c0,-96.31 110.97,-93.81 110.97,-2.46 0,68.27 -65.39,90.2 -96.28,46.87 -7.47,-10.48 -14.69,-26.26 -14.69,-44.41zm44.32 130.49c19.47,0 23.64,1.21 44.09,-5.14 25.46,-7.9 33.93,-17.41 51.34,-34.82 58.96,-58.94 44.8,-226.09 -90.51,-225.93 -34.78,0.04 -59.1,20.23 -79.46,41.16 -50.63,52.04 -43.25,187.07 48.51,218.76 3.07,1.06 24.57,5.97 26.02,5.97z"/>
  <path class="fil3" d="M6061.71 1022.02c25.84,0.2 49.91,1.02 64.73,14.11 26.05,23.02 28.11,69.54 8.2,95.8 -19.22,25.34 -41.91,20.64 -72.93,20.64l0 -130.55zm-59.06 -59.04l-0.01 253.59c72.03,0 126.14,10.34 171.73,-35.06 50.47,-50.26 50.71,-160.57 -22.55,-205.22 -35.53,-21.65 -93.58,-15.77 -149.14,-15.77l-0.02 2.45z"/>
  <path class="fil3" d="M6046.94 1662.2c16.99,-0 36.61,-4.17 50.24,-8.84 43.62,-14.97 63,-58.24 63,-109.33l0.02 -130.49 -68.95 -0 0 145.27c0,37.13 -48.43,55.44 -75.75,31.44 -10.81,-9.49 -15.34,-36.35 -15.34,-48.67l0 -128.03 -66.47 -0.01 0 150.19c0,68.5 54.75,98.5 113.24,98.48z"/>
  <polygon class="fil3" points="2356.75,1216.57 2534,1216.57 2533.99,1155.02 2415.84,1155.02 2415.83,1115.63 2521.68,1115.6 2521.71,1058.99 2415.83,1059 2415.83,1019.61 2531.5,1019.61 2531.5,960.53 2356.74,960.52 "/>
  <polygon class="fil3" points="6234.04,1182.1 6234.03,1216.56 6411.25,1216.57 6411.24,1155.03 6293.1,1155.02 6293.11,1115.64 6398.97,1115.6 6398.98,1059 6293.12,1059 6293.11,1019.6 6408.83,1019.61 6408.82,960.52 6234.02,960.52 "/>
  <path class="fil3" d="M5557.04 1561.25c3.72,-15.97 19.48,-44.23 24.61,-66.5 5.93,2.15 3.3,0.59 6.49,5.87 0.14,0.24 3.3,8.47 3.45,8.87l19.63 51.77 -54.18 -0.02zm-36.9 96.06c1.82,-7.89 6.72,-17.97 9.46,-25.02 6.02,-15.46 5.01,-19.33 12.67,-19.33l83.71 -0c7.18,0 6.12,2.96 8.66,8.56l13.49 35.76 73.86 0.04 -103.4 -246.25 -66.48 -0.01c-5.04,9.62 -8.25,20.23 -13.13,31.18 -4.92,11.02 -8.78,19.81 -13.24,31.09l-77 183.96 71.4 0.03z"/>
  <path class="fil3" d="M4990.83 1561.27c3.67,-15.9 19.46,-44.21 24.63,-66.51l4.95 -0.01c3.81,16.46 21.18,51.77 24.61,66.51l-54.18 0.01zm-36.91 96.05c1.84,-7.95 6.74,-17.95 9.49,-25.02 5.81,-14.93 4.98,-19.34 12.67,-19.34 104.14,0.03 85.77,-7.57 97.08,21.1 3.1,7.88 7.03,15.77 8.76,23.22l73.87 0c-9.52,-18 -18.92,-42.97 -26.74,-61.89l-52.37 -124.89c-3.47,-8.44 -21.07,-52.86 -26.75,-59.43l-64.03 0.01c-5.09,9.6 -8.24,20.23 -13.13,31.15l-90.29 215.04 71.43 0.04z"/>
  <path class="fil3" d="M5443.83 1440.64c-39.43,-26.49 -54.09,-32.03 -108.34,-32.03 -41.06,0 -86.16,29.08 -86.16,76.32 0,92.78 132.91,68.13 132.91,100.94 0,14.92 -12.41,19.74 -27.06,19.69 -39.75,-0.08 -56.11,-16.29 -81.24,-29.54 -5.54,8.3 -30.1,39.74 -36.91,44.34 15.03,13.08 30.93,23.57 52.81,30.84 43.24,14.37 97.8,15.53 134,-11.43 33.68,-25.09 48.52,-97.63 -27.11,-125 -14.62,-5.29 -32.39,-9.18 -48.46,-13.08 -30.6,-7.41 -29.96,-10.75 -30.01,-29.07 34.86,-23.41 76.61,10.82 93.54,14.77l32.03 -46.75z"/>
  <path class="fil3" d="M5276.41 1118.09c0,61.57 36.8,103.41 103.39,103.41 56.42,0 87.79,-35.1 96.08,-83.65 6.92,-40.59 2.4,-128.94 2.4,-177.31l-61.51 -0.02 -0.57 159.5c-2.89,20.4 -15.49,38.96 -41.19,37.57 -21.97,-1.18 -37.05,-21.8 -37.05,-44.43l0 -152.65 -61.55 0.01 0 157.57z"/>
  <path class="fil3" d="M1893.91 1470.15c23.98,0 71.33,-7.4 71.42,29.56 0.11,40.38 -40.33,34.48 -71.4,34.48l0 -39.41 -0.02 -24.63zm0.01 118.19c46.94,-0.02 79.93,-2.06 107.71,-22.79 27.51,-20.52 38.12,-61.15 27.28,-94.96 -24.52,-76.46 -127.51,-57.04 -201.4,-57.04l-0.04 243.77 66.46 -0.04 -0.02 -68.94z"/>
  <path class="fil3" d="M4116.91 1115.64c4.6,-9.61 8.88,-25.39 12.62,-36.64 4.18,-12.57 7.61,-29.83 14.48,-34.77 0.89,10.45 7.25,25.41 10.77,36.01 4.07,12.21 8.64,23.62 11.38,35.4l-49.26 0zm-95.99 100.95l63.99 -0.01c1.34,-15.48 11.1,-30.88 14.77,-46.79l83.7 0.01c0.35,1.5 14.3,42.28 14.32,42.31 3.54,5.51 -7.01,4.87 25.05,4.49l41.88 -0.03c-17.8,-36.85 -76.48,-223.39 -93.58,-258.5l-56.59 -0.01 -3.34 6.5c-1.27,2.98 -1.43,3.91 -2.68,7.17l-17.7 48.78c-7.73,22.94 -15.95,42.96 -23.36,65.27l-46.47 130.81z"/>
  <path class="fil3" d="M3090.36 1115.64c4.62,-9.62 8.84,-25.33 12.61,-36.63 4.27,-12.8 7.53,-29.75 14.51,-34.78 1.06,13.3 17.6,52.36 22.14,71.42l-49.26 -0.01zm-95.97 100.94l61.51 -0.01 17.24 -46.77 83.69 -0.01 16.33 45.22c0.17,0.34 0.56,1.06 0.9,1.55l64.01 0.01c-3.66,-7.66 -8.29,-21.25 -11.42,-30.45l-82.13 -228.07 -59.08 0c-0.92,11.06 -40.34,115.09 -45.22,129.58l-34.46 96.03c-4.16,12.2 -8.55,20.4 -11.37,32.92z"/>
  <path class="fil3" d="M5597.92 1060.49c3,-9.42 2.08,-11.67 8.37,-16.26 1.15,13.71 17.76,52.24 22.18,71.41l-49.26 0 18.72 -55.16zm-114.68 156.11l63.97 -0.02c1.27,-15.11 11.07,-31.1 14.77,-46.83l81.24 0.06 5.75 9.02c1.89,4.21 2.98,8.41 4.42,12.8 2.38,7.24 6.33,16.02 7.07,25.01l66.42 -0.06 -81.49 -226.2c-2.76,-8.33 -8.26,-24.5 -12.03,-32.29l-56.61 -0 -93.51 258.54z"/>
  <path class="fil3" d="M3265.14 1662.2c48.92,0 85.35,-23.56 105.85,-54.17 -4.49,-6.75 -40.18,-30.89 -49.23,-36.93 -10.95,7.31 -23.49,29.57 -54.16,29.54 -69.3,-0.07 -81.82,-108.05 -17.67,-128.48 41.08,-13.09 60.34,19.07 69.37,25.08 9,-6.04 43.1,-34.62 51.7,-36.93 -13.29,-20 -33.07,-36.27 -56.25,-44.7 -48.86,-17.74 -113.88,-5.99 -146.71,36.21 -11.28,14.52 -15.45,20.14 -22.54,39.02 -4.61,12.27 -8.95,37.44 -7.08,51.68 6.53,50.02 26.35,89.6 75.32,109.53 14.98,6.1 30.7,10.14 51.4,10.14z"/>
  <path class="fil3" d="M3230.68 1083.62l0 14.77c0,62.16 48.5,123.07 110.78,123.1 70.76,0.04 83.18,-45.45 98.47,-56.59 -0.44,-0.39 -1.15,-1.54 -1.35,-1.12l-45.48 -38.3c-41.2,62.76 -100.87,23.17 -100.87,-36.93 0,-65.61 57.32,-85.4 88.07,-53.62 5.84,6.03 5.93,9.55 12.86,14.25 15.53,-10.48 28.25,-28.56 44.28,-39.41 -34.82,-67.06 -130.2,-72.66 -176.22,-13.79 -17.05,21.82 -30.54,50.02 -30.54,87.65z"/>
  <path class="fil3" d="M4614.2 1219.03l56.61 -0.01 42.79 -129.56c4.27,-12.95 42.58,-118.9 43.35,-128.94l-66.43 -0.01c-0.96,11.55 -7.91,28.65 -11.28,40.43l-24.11 79.28c-3.22,9.89 -10.63,31.33 -11.38,40.31 -4.55,-5.29 -5.61,-10.31 -7.42,-17.19l-18.77 -62.48c-3.96,-13.46 -7.7,-25.94 -12.25,-39.45 -4.54,-13.47 -7.96,-29.82 -13.24,-40.95l-66.45 0.04c4.79,21.18 15.26,44.66 21.83,64.29l66.76 194.22z"/>
  <polygon class="fil3" points="5069.62,1022.03 5136.09,1022.07 5136.13,1216.57 5195.17,1216.57 5195.17,1022.03 5261.64,1022.07 5261.64,960.54 5069.62,960.52 "/>
  <polygon class="fil3" points="4695.42,1657.28 4880.09,1657.27 4880.11,1598.18 4761.9,1598.23 4761.92,1413.53 4695.43,1413.53 "/>
  <polygon class="fil3" points="5736.77,1657.31 5739.22,1657.28 5921.39,1657.28 5921.39,1598.19 5803.23,1598.19 5803.23,1413.54 5736.74,1413.53 5736.76,1416 "/>
  <polygon class="fil3" points="2147.51,962.98 2147.5,1022.03 2213.96,1022.07 2213.97,1216.57 2273.05,1216.58 2273.05,1022.05 2339.55,1022.07 2339.52,960.51 "/>
  <polygon class="fil3" points="4279.39,1191.95 4279.39,1216.57 4444.33,1216.57 4444.33,1155.02 4338.48,1154.99 4338.45,960.53 4279.38,960.52 "/>
  <polygon class="fil3" points="5739.22,1216.57 5904.16,1216.57 5904.16,1157.48 5904.19,1155.03 5800.77,1155.02 5798.32,1154.99 5798.3,960.52 5739.22,960.52 "/>
  <path class="fil0" d="M1491.98 698c-35.46,9.07 -64.73,44.29 -53.47,91.04 8.08,33.6 43.65,65.4 88.78,53.5 89.03,-23.48 57.83,-168.38 -35.31,-144.54z"/>
  <polygon class="fil3" points="3393.17,1657.31 3395.62,1657.28 3462.08,1657.28 3462.09,1413.53 3393.14,1413.53 3393.15,1416 "/>
  <polygon class="fil3" points="4771.75,1191.95 4771.75,1204.26 4771.74,1216.57 4833.29,1216.58 4833.29,960.52 4771.73,960.52 "/>
  <polygon class="fil3" points="3457.16,1182.1 3457.16,1199.34 3457.16,1216.56 3518.71,1216.57 3518.71,960.52 3457.14,960.52 "/>
  <polygon class="fil3" points="1829.93,1216.57 1891.47,1216.57 1891.47,960.51 1829.93,960.52 "/>
  <path class="fil2" d="M185.21 964.38c-82.69,25.69 -42.85,152.96 38.69,125.89 75.49,-25.06 44.17,-151.64 -38.69,-125.89z"/>
  <path class="fil1" d="M1027.96 863.85c-85.11,21.41 -51.21,138.43 26.07,121 29.71,-6.7 55.13,-36.7 46.67,-74.76 -6.26,-28.18 -37.06,-55.22 -72.74,-46.24z"/>
  <path class="fil4" d="M633.95 1060.63c-75.35,17.18 -50.22,131 22.48,115.05 70.2,-15.4 48.51,-131.22 -22.48,-115.05z"/>
  <path class="fil3" d="M3595.06 1396.27c11.37,0.05 23.28,0.37 34.59,0.19 16.85,-0.28 16.17,-3.35 25.08,-11.84 8.32,-7.92 32.82,-26.22 38.76,-35.09 -21.31,-0.46 -42.72,-16.77 -64,-17.24 -2.47,10.62 -28.52,52.82 -34.43,63.99z"/>
 </g>
</svg>
