<?xml version="1.0" encoding="UTF-8"?>
<!DOCTYPE svg PUBLIC "-//W3C//DTD SVG 1.1//EN" "http://www.w3.org/Graphics/SVG/1.1/DTD/svg11.dtd">
<!-- Creator: CorelDRAW 2020 (64-Bit) -->
<svg xmlns="http://www.w3.org/2000/svg" xml:space="preserve" width="3.68293in" height="6.22781in" version="1.1" style="shape-rendering:geometricPrecision; text-rendering:geometricPrecision; image-rendering:optimizeQuality; fill-rule:evenodd; clip-rule:evenodd"
viewBox="0 0 328.68 555.8"
 xmlns:xlink="http://www.w3.org/1999/xlink"
 xmlns:xodm="http://www.corel.com/coreldraw/odm/2003">
 <defs>
  <style type="text/css">
   <![CDATA[
    .fil0 {fill:#001F45;fill-rule:nonzero}
   ]]>
  </style>
 </defs>
 <g id="Capa_x0020_1">
  <metadata id="CorelCorpID_0Corel-Layer"/>
  <g id="logo_uady.svg">
   <g id="Capa_1_1_">
    <g>
     <g>
      <path class="fil0" d="M162.51 0l2.55 0c7.64,4.58 -1.53,24.45 -2.04,31.08 -1.02,-9.17 -1.53,-18.85 -4.08,-27 1.02,-1.02 2.55,-2.55 3.57,-4.08z"/>
      <path class="fil0" d="M152.32 8.66c2.55,5.6 2.04,14.77 2.55,21.91 -2.55,-7.13 -9.68,-12.74 -8.66,-21.4 0.51,-3.06 4.59,-1.53 6.11,-0.51z"/>
      <path class="fil0" d="M172.19 31.08c0,-6.62 0,-18.34 3.06,-23.43 3.06,-0.51 4.58,-0.51 6.11,1.53 -1.02,10.19 -7.13,13.75 -9.17,21.91z"/>
      <path class="fil0" d="M148.76 35.15c-4.58,-6.62 -12.74,-9.68 -14.26,-19.87 9.68,-5.09 11.21,12.23 14.26,19.87z"/>
      <path class="fil0" d="M191.55 17.32c-1.53,8.66 -7.64,12.23 -11.21,18.34 0.51,-6.11 3.57,-25.47 11.21,-18.34z"/>
      <path class="fil0" d="M201.74 24.45c1.02,0.51 0,3.06 1.53,2.55 -3.06,6.62 -10.19,9.68 -15.28,14.26 2.04,-5.6 4.58,-16.3 13.75,-16.81z"/>
      <path class="fil0" d="M137.55 48.4c-4.08,0.51 -7.64,-2.55 -12.74,-4.58 -4.08,-1.53 -13.25,-2.55 -12.74,-8.15 0.51,-2.04 3.06,-3.57 5.09,-3.57 7.64,-0.51 14.77,13.25 20.38,16.3z"/>
      <path class="fil0" d="M213.46 35.15c-3.57,9.17 -14.77,9.68 -22.92,13.75 6.62,-4.58 13.25,-19.87 22.92,-13.75z"/>
      <path class="fil0" d="M163.02 40.76c-3.06,16.81 8.15,23.43 4.58,37.7 -4.58,-9.68 -21.91,-30.57 -4.58,-37.7z"/>
      <path class="fil0" d="M172.7 41.77c0.51,0 1.02,0 1.02,0.51 -4.08,15.79 14.26,30.57 -1.02,38.72 0.51,-7.13 0,-15.28 -2.55,-21.91 -1.53,0 -2.04,1.02 -2.55,2.04 -5.09,-7.64 0.51,-16.3 5.09,-19.36z"/>
      <path class="fil0" d="M132.96 56.04c-5.09,0.51 -10.19,-1.53 -16.81,-3.06 -4.58,-1.02 -14.26,-1.02 -14.77,-6.11 -0.51,-4.08 3.57,-5.09 6.62,-4.58 7.13,1.02 17.32,11.72 24.96,13.75z"/>
      <path class="fil0" d="M224.66 45.85c-5.6,7.64 -19.36,6.62 -29.04,10.19 2.55,-2.04 6.62,-4.08 10.7,-6.62 5.6,-3.06 12.23,-10.19 18.34,-3.57z"/>
      <g>
       <path class="fil0" d="M169.64 555.8l-4.58 0c-6.62,-3.06 -11.21,-5.6 -11.21,-13.25 -0.51,-9.17 7.13,-10.7 5.09,-21.4 -13.75,-0.51 -29.04,1.02 -41.77,-0.51l0 -12.74c-9.17,-0.51 -19.36,0 -28.02,-1.02 7.64,-15.79 16.3,-30.57 23.43,-46.36 -40.25,-13.25 -72.85,-40.76 -92.21,-78.45 -6.62,-12.74 -14.26,-31.08 -14.77,-48.91 7.64,-9.17 17.32,-16.3 25.47,-24.45l0 -19.87 -31.08 0c13.25,-20.38 27.51,-39.23 40.76,-59.1 -8.66,-0.51 -18.34,1.02 -25.98,-0.51 -1.02,-24.96 -1.02,-54 0,-78.96l21.91 0 0 -20.89c36.68,-1.02 75.4,-0.51 113.1,-0.51 2.04,-12.74 -5.6,-17.83 -5.09,-27.51 -3.06,-2.55 -7.13,-10.7 -1.53,-13.75 -10.7,-11.72 -1.53,-36.17 8.66,-38.72 -3.06,15.28 12.23,21.4 7.64,36.17 -2.55,-9.68 -9.17,-14.26 -14.26,-20.89 -2.04,8.15 -4.08,26.49 6.11,24.45 0,-4.08 -4.08,-6.62 -2.04,-10.7 3.57,0.51 3.57,5.09 5.09,7.64 1.53,2.55 5.09,3.57 5.09,7.13 -0.51,2.04 -5.09,-1.02 -3.57,2.55 0.51,4.08 6.11,2.04 7.64,4.08 -1.53,3.57 -10.19,0 -12.74,3.06 -1.53,2.04 -0.51,6.11 2.04,5.6 3.57,0 -2.04,-5.09 1.02,-5.6 5.09,-1.53 3.57,3.57 5.09,6.11 2.04,1.53 5.6,1.53 6.11,4.58 -2.55,1.53 -7.64,0 -11.21,0.51 1.02,4.58 -1.02,14.26 3.06,14.77 5.6,-3.57 -4.08,-8.66 -0.51,-11.72 7.64,-2.04 2.55,10.19 6.62,11.72l2.04 0c3.06,-5.09 -3.57,-7.64 -1.53,-11.21 5.6,-3.06 4.58,6.11 4.58,11.21l7.64 0c0,-4.58 0,-9.68 0.51,-13.75 0,-2.55 -4.58,-0.51 -4.08,-4.08 2.04,-3.57 7.13,-3.06 6.62,-9.17 -2.55,-2.04 -10.7,1.53 -12.23,-2.55 4.58,-4.08 17.32,1.02 17.32,-7.64 -7.64,-1.02 -17.32,4.58 -22.92,0 9.68,-2.04 18.85,-2.55 20.38,-12.74 3.06,3.57 -3.06,8.15 0,10.19 14.26,-11.72 -9.68,-28.53 -0.51,-43.81 0.51,10.19 9.17,16.81 9.68,26.49 0.51,7.13 -3.57,13.25 -2.04,21.91 -7.64,7.13 -9.68,19.87 -9.68,34.64l111.06 0 0 21.4c9.17,-0.51 16.3,1.02 25.47,0.51 -0.51,26.49 0.51,54 0,78.96 -9.17,-0.51 -17.32,1.02 -26.49,0.51 12.74,19.87 28.53,39.23 39.74,58.59l-30.57 0 0 18.34c4.58,5.09 9.68,9.17 15.79,14.26 4.58,4.08 13.75,8.66 14.77,15.79 1.02,9.17 -6.62,23.43 -8.66,30.06 -16.81,47.38 -54,76.93 -95.77,93.23 7.64,16.3 16.3,31.59 23.94,47.89 -9.68,0.51 -20.89,-0.51 -29.55,0.51l0 12.74 -43.3 -0c-2.55,8.15 5.09,11.72 6.11,17.32 1.02,10.7 -4.58,14.26 -11.72,17.83l0 0zm-127.36 -422.84c-0.51,0.51 -1.02,0.51 -1.02,2.04l0 20.38 -22.42 0 0 69.79c10.7,0 20.89,0 30.57,1.02 -7.13,9.68 -13.75,19.87 -20.89,29.04 -5.09,6.62 -10.19,15.79 -15.28,22.92 -1.53,2.04 -5.09,4.08 -4.08,6.62l25.47 0 0 20.38 7.64 0 0 -27c-7.13,0 -13.25,-1.02 -20.89,-0.51 11.72,-17.32 24.96,-35.66 36.68,-52.47 1.53,-2.04 4.08,-4.08 4.08,-7.13 -12.23,-0.51 -25.47,1.02 -36.68,-0.51 0.51,-18.34 -0.51,-37.7 0.51,-55.02l22.42 0c0.51,-7.13 -0.51,-15.79 0.51,-21.91 75.91,0.51 153.34,-1.02 228.74,0.51l0 21.4c7.64,0.51 16.81,-1.02 23.43,0.51 -0.51,17.83 0.51,37.19 -0.51,54.51 -10.19,1.53 -22.92,0 -34.64,0.51 11.72,19.36 29.04,40.25 40.25,59.6 -7.64,-0.51 -13.75,1.02 -21.4,0.51l0 27 7.64 -0 0 -20.38c8.15,-1.02 17.83,-0.51 26.49,-0.51 -10.7,-19.36 -28.53,-39.74 -39.74,-58.59 10.19,0 19.36,-1.02 30.06,-0.51 -0.51,-24.96 1.53,-45.85 0,-69.79l-24.96 0 0 -21.91 -241.99 -0.51 0 0zm10.7 11.72l0 22.92 -22.42 0 0 45.85c11.72,1.53 26.49,-0.51 38.21,1.02 -0.51,27.51 0.51,57.06 -0.51,83.55l-15.28 0 0 -13.25c3.06,0.51 7.64,-1.53 8.15,1.53 0.51,4.08 -5.6,0.51 -3.57,6.11 0,2.55 4.58,0.51 6.62,1.02l0 -15.28 -16.3 0 0 27 28.53 0 0 -64.7c21.4,-14.77 52.98,-25.47 87.62,-25.47 35.15,0 66.74,10.19 88.13,25.47l0 64.7 29.04 0 0 -27 -16.3 0 0 14.77c2.04,-1.02 7.64,1.53 7.13,-2.04 1.53,-4.58 -5.6,0 -4.08,-5.6 0.51,-2.04 6.62,-1.53 7.64,-0.51 -0.51,4.08 0.51,9.68 -0.51,12.74 -5.09,-0.51 -11.21,0.51 -15.28,-0.51 0.51,-28.02 -0.51,-57.06 0.51,-84.06l36.17 0 0 -46.36 -22.92 0 0 -21.91 -220.59 0 0 0zm193.08 137.04c0.51,1.53 2.55,16.81 2.04,8.15l0 -47.89c-17.83,-9.17 -36.68,-19.87 -60.11,-20.89 28.53,9.17 49.42,30.57 58.08,60.62l0 0zm-165.57 -39.23c0.51,15.28 -0.51,32.6 0.51,47.38 6.62,-36.17 28.02,-56.55 57.06,-68.27 -22.92,2.55 -40.76,11.21 -57.57,20.89l0 0zm47.38 -12.23c-18.34,9.68 -31.59,24.96 -39.23,44.83 -11.21,30.06 -2.04,60.62 8.66,76.42 13.75,20.38 39.23,36.17 67.25,35.66 33.62,0 62.66,-22.92 74.89,-51.45 11.21,-26.49 3.06,-63.17 -9.68,-80.49 -11.72,-16.3 -36.17,-36.17 -70.3,-33.62 -12.74,1.53 -22.42,4.08 -31.59,8.66l0 0zm137.04 43.3l34.64 0c-10.19,-15.28 -23.43,-32.6 -34.64,-48.91l0 48.91zm-218.55 -23.43c-2.55,3.57 -5.09,7.64 -8.15,12.23 -2.55,3.57 -7.13,7.64 -6.62,11.21l32.6 0c-0.51,-15.79 0.51,-33.62 -0.51,-48.4 -5.6,8.66 -11.72,16.81 -17.32,24.96l0 0zm23.94 59.1l-34.64 0c-9.17,8.66 -20.89,16.81 -27.51,26.49 6.62,3.06 10.7,-5.09 15.79,-9.68 4.58,-4.08 11.21,-11.72 16.3,-13.25 8.15,-2.04 21.91,0 30.06,0 2.55,0 7.13,1.53 8.66,-2.04 -1.02,-3.06 -6.11,-1.53 -8.66,-1.53l0 0zm238.42 12.74c-4.58,-3.57 -11.21,-11.21 -16.3,-12.74 -13.75,-3.57 -29.04,2.04 -44.32,0.51l0 2.04c11.72,2.55 28.02,0.51 40.76,1.02 8.15,5.6 17.32,14.26 24.96,20.89 2.04,2.04 6.11,6.62 8.66,2.04 -2.04,-5.09 -7.64,-9.17 -13.75,-13.76l0 0zm-236.89 -4.08c-9.17,0 -23.43,-2.04 -31.59,0 -5.6,1.53 -9.17,7.64 -13.75,11.72 -4.58,4.08 -10.7,7.64 -11.21,11.72 -0.51,5.09 3.06,13.75 5.6,19.36 6.62,15.28 14.26,31.08 24.45,43.81 21.4,25.98 51.45,42.79 84.57,52.98 -6.62,13.25 -13.75,25.98 -20.38,40.25 7.13,0.51 15.28,-1.02 21.4,0.51l0 12.74 73.87 0 0 -13.25 21.91 0c-5.6,-14.77 -14.26,-27 -20.38,-41.77 58.59,-14.77 96.28,-52.47 112.08,-114.62 -4.08,-3.06 -8.66,-7.64 -14.26,-11.72 -4.58,-3.57 -10.7,-10.19 -15.28,-11.21 -9.17,-2.04 -23.94,0 -33.11,0 -2.55,0 -8.66,-1.53 -8.15,3.57 11.72,3.57 27,-2.55 39.23,0.51 5.09,1.02 9.17,6.62 13.25,10.19 4.58,3.57 11.72,7.13 12.23,11.72 0.51,4.58 -3.06,13.25 -5.6,18.34 -2.55,6.11 -5.09,12.23 -7.64,16.81 -21.4,38.21 -59.1,62.66 -100.87,75.4 6.11,12.23 12.74,23.43 17.83,36.17 -7.13,-0.51 -12.23,1.02 -18.85,0.51l0 12.74c-19.36,-0.51 -40.25,1.02 -59.1,-0.51l0 -11.72c-6.62,0 -13.25,0 -18.85,-0.51 5.09,-13.25 13.25,-22.92 17.83,-36.17 -57.57,-16.81 -99.85,-50.43 -116.15,-112.59 3.06,-3.57 7.13,-6.62 11.21,-10.19 3.57,-3.06 8.15,-8.66 12.74,-9.68 7.64,-2.04 20.38,0 28.53,0 2.04,0 7.13,2.04 7.64,-2.55 -2.04,-4.58 -6.62,-2.55 -9.17,-2.55l0 0zm-26.49 8.15c-3.57,1.02 -18.85,13.75 -19.87,16.3 -0.51,2.55 2.04,9.17 3.06,12.74 1.53,4.08 3.57,8.15 5.09,11.21 20.38,45.34 61.13,73.36 109.53,85.59 -6.62,11.21 -12.23,23.43 -17.83,35.66l15.79 -0 0 12.74 50.94 0c0,-4.58 0,-9.17 1.02,-12.74 5.09,-0.51 11.72,0.51 15.79,-0.51 -6.11,-12.23 -12.23,-23.43 -17.83,-35.66 58.08,-14.77 99.34,-47.38 116.15,-107.49 -7.64,-3.06 -13.25,-15.28 -22.92,-17.32 -12.23,-2.55 -24.96,1.53 -38.21,0.51 -11.21,35.15 -35.66,61.64 -75.4,64.7 -45.34,3.06 -77.94,-25.98 -88.13,-64.7 -11.21,0.51 -25.47,-3.57 -37.19,-1.02l0 0zm172.7 146.21c6.62,11.72 12.74,26.49 22.42,31.59 -3.06,-8.15 -8.66,-17.32 -13.75,-25.98 -4.08,-7.64 -6.11,-16.81 -14.26,-18.34 1.53,3.57 3.06,8.66 5.6,12.74l0 0zm-109.53 8.15c-5.09,6.62 -9.17,16.3 -11.72,21.91 13.25,-9.17 18.85,-29.04 25.47,-42.79 -9.17,2.55 -8.15,12.74 -13.75,20.89l0 0zm12.23 24.45c0.51,3.57 -0.51,8.15 0.51,10.7 1.02,-2.04 4.08,-2.55 5.6,-4.08 -0.51,-3.57 0.51,-8.15 -0.51,-10.7 -2.04,1.53 -4.08,2.55 -5.6,4.08l0 0zm87.11 6.62c1.53,1.53 4.58,2.04 6.11,3.57l0 -9.17c-2.04,-1.53 -3.57,-3.06 -6.11,-4.08l0 9.68zm-43.3 16.81c1.02,-1.02 5.6,-1.02 6.62,0l0 -7.13 -7.13 0c0,2.04 -1.02,6.11 0.51,7.13l0 0zm6.11 22.42c8.66,-2.55 7.13,-21.4 -5.6,-17.32 -10.7,3.06 -5.6,19.87 5.6,17.32z"/>
      </g>
      <path class="fil0" d="M130.42 65.72c-11.72,-1.53 -32.6,1.53 -41.26,-5.09 -0.51,-3.06 2.04,-6.11 4.08,-6.11 10.19,1.02 27,8.66 37.19,11.21z"/>
      <path class="fil0" d="M126.85 75.4c-7.64,1.53 -17.32,1.53 -25.98,2.55 -8.66,0.51 -18.34,3.57 -23.94,-1.53 -1.02,-2.04 0.51,-5.6 2.55,-6.62 16.3,1.02 31.59,3.57 47.38,5.6z"/>
      <path class="fil0" d="M198.17 75.91c12.74,-1.53 30.57,-4.58 42.28,-5.6 3.57,0 9.68,-1.53 8.15,5.6 -1.53,6.62 -17.32,2.04 -23.94,1.53 -10.19,-0.51 -17.32,-1.02 -26.49,-1.53z"/>
      <path class="fil0" d="M127.87 86.1c-15.79,3.06 -33.62,7.13 -50.94,10.7 -5.6,1.02 -14.26,2.55 -14.77,-3.06 -0.51,-4.08 5.09,-5.6 8.15,-6.11 16.81,-2.04 41.26,0.51 57.57,-1.53z"/>
      <path class="fil0" d="M197.66 86.6c0,-0.51 0.51,-0.51 1.02,-0.51 14.26,1.02 33.11,1.02 47.89,2.04 5.6,0 13.75,-2.04 16.3,4.08 -0.51,8.15 -9.17,5.6 -14.26,4.58 -15.79,-3.06 -34.64,-7.64 -50.94,-10.19z"/>
      <path class="fil0" d="M198.17 96.28c13.25,1.53 27.51,5.6 41.77,9.17 13.75,3.57 29.04,4.58 40.25,11.21 -0.51,11.72 -13.75,4.58 -18.34,3.06 -20.38,-7.64 -42.79,-16.81 -63.68,-23.43z"/>
      <path class="fil0" d="M173.21 118.19c1.02,2.04 0.51,5.6 0.51,8.15l-1.53 -0c-1.53,-1.53 -2.04,-4.58 -2.04,-7.64 0.51,-0.51 1.53,-0.51 3.06,-0.51z"/>
      <path class="fil0" d="M67.76 149.78c-3.06,13.25 -7.13,26.49 -10.19,39.74 2.55,0 3.57,-1.53 6.62,-1.02l0 6.62c14.77,11.21 7.64,-31.59 9.17,-45.34l5.6 0c-2.04,19.36 6.62,50.94 -9.68,55.02 -4.08,-2.55 -10.19,-2.55 -10.7,-8.15 -2.55,1.02 -6.62,1.02 -8.66,2.55 2.04,-15.79 8.66,-32.6 12.23,-48.91l5.6 0c0,0 0,-0.51 0,-0.51z"/>
      <path class="fil0" d="M87.62 149.78c5.6,5.6 6.62,16.3 11.72,22.42 3.06,-9.68 -3.57,-13.25 -2.55,-21.91 1.02,-1.02 4.08,-0.51 6.11,-0.51 0.51,3.57 0.51,7.64 2.55,9.68l0 28.02c-2.04,0.51 -3.06,1.53 -5.6,1.02 -4.08,-7.13 -6.62,-15.28 -10.19,-22.92 -1.02,4.08 0,10.7 -0.51,16.3 0.51,1.53 2.55,1.02 3.06,2.04l0 7.64c-2.04,1.02 -3.57,2.55 -6.62,3.06 1.02,-5.09 -1.02,-7.13 -2.55,-9.68 0.51,-11.72 -0.51,-24.45 0.51,-35.15l4.08 -0 0 0z"/>
      <path class="fil0" d="M124.3 149.78c1.53,8.15 -4.08,24.96 4.58,25.47 1.53,-7.13 -0.51,-18.34 1.02,-25.47l5.6 0c0.51,10.7 3.06,29.04 -5.09,32.09 -6.11,1.02 -8.66,-2.04 -11.21,-5.6l0 -27 5.09 0.51 0 0z"/>
      <g>
       <path class="fil0" d="M171.17 152.83c1.02,11.72 -3.57,18.34 1.02,26.49l-6.11 0c-1.02,-2.55 -1.02,-6.11 -2.55,-8.15 -3.06,0 -1.02,5.6 -1.53,8.15l-6.11 0c0.51,-10.19 -1.02,-18.34 -0.51,-28.53 3.57,0 13.25,-1.53 15.79,2.04l0 0zm-9.68 13.25l3.06 0 0 -9.68c-5.09,-1.53 -2.04,6.11 -3.06,9.68z"/>
      </g>
      <path class="fil0" d="M190.53 158.95c-1.02,1.02 -3.06,0.51 -5.09,0.51 -2.04,-0.51 -1.02,-4.08 -4.58,-3.06 -1.02,0 -0.51,2.04 -0.51,3.06 4.08,5.09 12.74,5.09 9.68,17.32 -1.53,1.02 -2.55,2.55 -4.08,3.57 -3.06,0 -5.09,-1.02 -8.66,-0.51 -1.02,-3.06 -3.57,-4.08 -3.06,-9.17 1.53,-1.53 4.08,0 6.11,0l0 4.08c2.04,0.51 2.04,-1.02 3.57,-0.51 1.02,-8.15 -6.11,-7.13 -9.68,-10.19 0.51,-4.58 -1.02,-7.13 0,-10.19 3.06,-7.64 18.85,-5.6 16.3,5.09z"/>
      <path class="fil0" d="M199.7 149.78l0 31.59c-2.55,0.51 -3.06,-1.02 -5.6,-0.51l0 -31.08 5.6 0 0 0z"/>
      <g>
       <path class="fil0" d="M214.48 149.78c5.6,9.17 9.68,19.36 10.7,32.6 -3.57,-1.53 -4.08,1.02 -5.6,3.06 -6.62,-0.51 -12.23,-2.55 -15.79,-7.13 0.51,-9.17 -0.51,-19.36 0.51,-27.51 2.55,-1.53 7.13,-0.51 10.19,-1.02l0 0zm0 28.53c1.02,-1.02 1.53,-2.55 3.06,-2.55 -2.04,-6.11 -2.55,-14.77 -6.11,-19.87l-1.53 0c1.02,8.66 -2.04,20.89 4.58,22.42z"/>
      </g>
      <g>
       <path class="fil0" d="M246.06 152.83c1.02,12.74 0,28.53 0.51,42.28 -2.55,0 -3.57,-2.04 -6.11,-1.53l0 -15.79c-1.02,-1.53 -3.57,-1.02 -6.11,-1.02 -1.02,4.08 -0.51,9.68 -1.53,13.25 -1.53,-1.02 -3.57,-1.53 -6.11,-1.53 0,-3.06 2.04,-4.08 2.04,-6.62 1.02,-8.15 -6.11,-16.81 -6.11,-24.45 0,-2.04 1.53,-6.11 3.06,-7.13 5.6,-2.55 16.81,-0.51 20.38,2.55l0 0zm-12.23 18.34l6.62 0 0 -14.77 -9.68 0c-0.51,6.62 1.53,10.19 3.06,14.77z"/>
      </g>
      <path class="fil0" d="M250.14 149.78c5.09,1.02 11.21,0.51 16.81,0.51 5.09,17.83 10.19,35.15 15.28,52.47 -3.57,-0.51 -5.6,-2.55 -8.66,-3.57 -1.02,3.06 0,8.15 -3.06,9.17 -5.09,-2.55 -9.17,-6.62 -15.28,-9.17 1.53,-6.11 -3.57,-5.6 -5.09,-9.17l0 -40.25 0 0zm6.62 36.68c1.53,3.57 5.09,4.58 3.57,10.7 2.04,1.02 4.08,2.04 6.62,3.06 0.51,-3.06 -0.51,-7.64 0.51,-9.68 2.04,0 2.55,1.53 5.09,1.02 -3.57,-11.72 -6.62,-23.94 -10.19,-35.15l-5.6 0 0 30.06z"/>
      <path class="fil0" d="M114.62 150.29c-0.51,11.21 0.51,23.94 -0.51,34.13 -1.53,0.51 -3.06,1.53 -5.09,1.53 -1.02,-10.7 0,-23.94 -0.51,-35.66l6.11 0 0 0z"/>
      <path class="fil0" d="M139.08 150.29c6.11,-0.51 10.7,0.51 13.25,3.57 -0.51,1.53 -2.04,2.55 -2.55,4.58 -1.53,-0.51 -2.55,-2.04 -4.08,-2.55 -1.02,1.02 0,4.08 -0.51,6.11l7.64 0c-1.02,1.02 -0.51,4.58 -0.51,6.62l-6.62 0c-1.02,0.51 0,3.57 -0.51,5.6 2.55,0 4.08,-1.02 7.13,-0.51l0 6.11c-4.58,0 -7.64,1.02 -12.74,0.51 -1.53,-8.66 -0.51,-19.87 -0.51,-30.06z"/>
      <g>
       <path class="fil0" d="M156.91 186.46c3.06,6.62 1.02,18.34 0,24.96 -4.58,-0.51 -7.64,0.51 -12.23,0.51 -3.57,-10.19 -5.09,-31.59 12.23,-25.47l0 0zm-9.68 6.62l0 11.72c1.53,1.53 2.55,3.06 6.11,2.55 1.53,-3.57 1.53,-11.72 0.51,-16.3 -2.55,0.51 -5.6,0.51 -6.62,2.04z"/>
      </g>
      <path class="fil0" d="M162.51 186.46c10.7,0.51 9.17,13.75 15.28,19.36 1.02,-3.57 0,-9.17 0.51,-13.75 -0.51,-1.53 -3.57,0 -3.57,-1.02l0 -4.08 7.64 0 0 24.96c-3.06,0.51 -4.08,-1.02 -7.13,-0.51 -2.55,-5.09 -4.58,-10.19 -7.64,-14.26 -3.06,6.62 3.57,7.64 2.04,14.26l-4.58 0c1.02,-4.08 -1.53,-4.58 -2.55,-6.62l0 -18.34 0 0z"/>
      <g>
       <path class="fil0" d="M198.17 212.95c-3.57,0 -6.62,-1.02 -9.68,-1.02 -3.06,-3.06 -5.6,-21.91 0,-24.45 2.55,-1.02 6.11,1.02 9.68,1.02 5.09,3.57 5.09,21.4 0,24.45l0 0zm-8.15 -6.11c1.53,1.53 3.57,2.04 6.62,1.53 2.04,-3.57 1.02,-11.21 0.51,-15.28 -8.66,-4.58 -7.13,6.11 -7.13,13.75z"/>
      </g>
      <path class="fil0" d="M139.59 187.98l0 5.6c-3.06,1.53 -4.08,-1.02 -7.64,-0.51 -2.55,2.55 -0.51,10.19 -1.02,14.77 0,1.53 2.55,0 3.06,0.51l0 4.58c-4.08,0 -6.62,2.04 -10.7,2.04l0 -4.58c0.51,-0.51 2.04,-0.51 3.06,-0.51l0 -15.79c-5.09,-1.02 -4.08,4.08 -8.66,3.06l0 -6.11c6.62,-1.53 12.74,-3.57 21.91,-3.06z"/>
      <path class="fil0" d="M205.3 190.02c3.06,-0.51 4.58,0.51 7.13,1.02 2.55,4.58 4.08,10.19 5.6,16.3 3.57,-3.06 4.08,-9.17 7.13,-12.74 2.04,1.02 4.58,1.02 6.62,2.55l0 17.83c-1.02,2.04 -3.06,3.57 -2.04,7.64 -2.55,0 -3.57,-1.53 -5.09,-2.55 0,-6.62 3.57,-10.19 2.04,-18.34 -3.06,5.09 -5.6,11.21 -8.66,16.3 -3.57,-5.6 -4.58,-14.26 -7.64,-20.38 -3.57,7.64 2.04,10.7 1.53,18.34 -1.53,-0.51 -3.57,-0.51 -5.09,-1.02 -1.53,-7.13 -2.04,-15.79 -1.53,-24.96z"/>
      <path class="fil0" d="M113.61 192.06c-1.02,7.64 1.53,15.79 0,21.4 -1.53,6.62 -12.23,10.7 -16.3,4.08 0,-7.13 0,-13.75 -0.51,-20.38 2.04,-1.02 4.58,-2.04 7.64,-2.55 -1.02,6.11 -3.06,13.75 -1.02,20.89 3.57,0 5.09,-2.04 6.62,-4.08 1.02,-8.66 -1.02,-11.72 -1.53,-17.83 1.02,-0.51 3.06,-1.02 5.09,-1.53z"/>
      <g>
       <path class="fil0" d="M93.74 200.72c0.51,9.17 0,17.83 -1.02,25.47 -1.53,1.02 -3.06,1.53 -5.6,2.04 -0.51,-4.58 1.53,-6.62 2.04,-10.19 -2.55,-0.51 -6.62,2.55 -8.66,4.58 3.06,3.57 2.55,10.7 -2.55,11.21 -1.02,-8.15 -2.55,-15.79 -1.53,-25.47 4.08,-4.08 9.17,-7.64 17.32,-7.64l0 0zm-5.6 4.58c-2.04,1.53 -5.09,2.55 -7.64,3.57 0.51,2.55 -0.51,6.11 0.51,7.64 2.55,-1.53 5.09,-3.06 8.15,-4.08 -0.51,-2.04 1.02,-6.62 -1.02,-7.13z"/>
      </g>
      <g>
       <path class="fil0" d="M252.17 207.34c0.51,10.19 -0.51,18.85 -1.53,27 -1.53,-0.51 -2.55,-1.53 -3.57,-2.55 -0.51,-4.08 1.02,-6.11 1.02,-9.68 -2.04,-2.04 -5.09,-3.06 -7.64,-4.08 -1.02,2.55 2.04,5.6 1.02,10.19 -2.04,0 -2.55,-2.04 -5.09,-2.04 -1.02,-7.64 -2.55,-17.32 -1.02,-25.47 7.64,0 11.72,3.57 16.81,6.62l0 0zm-12.74 5.09c2.55,1.53 5.09,3.06 8.66,3.57l0 -7.13c-3.06,-1.02 -5.6,-2.55 -8.66,-3.57l0 7.13z"/>
      </g>
      <g>
       <path class="fil0" d="M156.4 226.7c34.64,-3.06 62.66,15.28 75.4,40.25 11.21,22.42 11.21,54 -1.02,75.91 -13.75,24.45 -41.77,42.79 -74.38,40.25 -25.98,-2.04 -47.89,-19.36 -59.6,-40.76 -6.62,-12.74 -11.72,-34.64 -8.15,-52.98 2.04,-9.17 5.6,-16.3 8.66,-21.91 11.21,-20.38 31.08,-38.21 59.1,-40.76l0 0zm-59.1 47.38c-12.23,27 -3.06,59.6 8.15,75.4 12.23,17.32 32.6,30.57 59.1,30.57 40.25,0 76.93,-35.66 71.83,-85.59 -2.04,-18.34 -14.26,-36.17 -22.42,-44.32 -13.75,-13.25 -34.64,-21.91 -60.62,-18.85 -24.96,2.55 -46.87,23.43 -56.04,42.79z"/>
      </g>
      <path class="fil0" d="M57.06 247.59c2.55,4.58 0.51,13.75 1.02,20.38l-15.28 0c4.08,-7.13 9.68,-13.25 14.26,-20.38z"/>
      <path class="fil0" d="M272.04 247.59c4.58,6.62 11.21,13.75 14.26,20.38l-14.26 0 0 -20.38z"/>
      <path class="fil0" d="M33.62 343.87l15.28 0 0 7.13c-1.02,1.02 -3.57,0.51 -5.6,0.51 0.51,2.55 1.53,4.58 2.55,6.62l16.3 0c1.02,-1.02 0,-4.08 0.51,-6.11 0,-1.53 -2.55,0 -3.57,-0.51l0 -7.64 11.21 0c1.02,5.6 1.02,15.28 0,20.89 -2.55,1.02 -7.13,0 -10.19,0.51 -2.55,11.72 2.04,20.89 1.53,32.09 -5.6,-6.62 -10.19,-13.75 -15.28,-20.89l0 -7.13c2.55,0 2.55,3.06 4.58,3.57l0 -7.13 -6.62 0c-5.09,-5.09 -10.19,-11.21 -10.7,-21.91z"/>
      <path class="fil0" d="M76.42 343.87c6.11,7.13 13.75,12.74 13.25,27.51 -1.02,3.06 -3.06,-2.04 -4.58,-2.55l0 34.13c0.51,3.06 4.08,3.06 3.06,7.64 1.53,2.55 4.58,3.06 6.62,4.58 1.02,-2.04 1.02,-4.58 4.58,-3.57l0 -28.02c-3.57,-2.55 -4.58,-7.13 -3.57,-14.26 4.58,2.55 8.66,5.6 11.21,10.19l0 40.25c-3.06,1.53 -4.58,4.58 -7.13,7.13 -7.13,-2.55 -11.72,-8.15 -18.85,-10.7 0.51,-5.6 -1.53,-7.64 -3.06,-10.19 0.51,-21.91 -1.02,-41.26 -1.53,-62.15z"/>
      <path class="fil0" d="M254.72 343.87l0 58.08c-0.51,1.53 -1.53,2.04 -2.04,3.57 2.04,6.62 -0.51,12.23 -5.6,13.25 -2.04,-7.64 0,-14.26 0,-22.92 -4.08,1.53 -8.15,8.15 -12.23,11.21 1.02,5.6 4.58,9.17 3.06,17.32 -3.06,1.02 -5.09,3.06 -8.15,4.08 -1.02,-3.57 0,-10.19 -3.06,-11.21l0 -42.28c7.13,-10.7 17.32,-17.83 22.42,-31.08l5.6 0 0 0zm-19.87 34.64c-1.53,5.09 1.02,10.19 1.02,16.81 2.04,-4.58 9.68,-7.64 11.21,-13.25 1.53,-4.58 -0.51,-10.7 -0.51,-16.81 -2.04,5.09 -10.19,7.13 -11.72,13.25z"/>
      <path class="fil0" d="M260.32 343.87l8.15 0c5.09,6.62 8.66,14.77 13.25,21.91 3.06,-3.06 4.58,-7.64 5.09,-13.75 -1.02,-1.53 -4.08,0 -5.6,-1.02l0 -7.13c5.6,0 11.72,-0.51 16.3,0.51 -1.02,8.66 -3.06,18.34 -7.64,26.49 -0.51,1.53 -6.11,10.19 -7.13,10.19 -2.55,0 -5.6,-6.62 -7.13,-9.17 -2.55,-4.58 -3.57,-7.13 -6.11,-10.19 -1.02,6.62 0,16.3 -0.51,23.94 6.11,6.62 0.51,17.32 -5.6,19.87l0 -10.7c-0.51,-2.04 -2.55,-2.55 -3.06,-4.58l0 -46.36z"/>
      <path class="fil0" d="M221.61 399.4c-2.55,0.51 -4.58,1.02 -6.62,2.55 -1.02,-2.04 0,-6.11 -0.51,-9.17 -3.06,1.53 -6.62,2.55 -8.15,6.11l0 30.57c1.02,1.53 4.58,0.51 6.11,0l0 8.15c-6.62,0.51 -11.72,3.06 -17.83,3.57l0 -8.15c1.53,0.51 2.04,-1.02 4.08,-0.51l0 -24.96c-3.57,3.06 -10.7,6.62 -9.17,17.32l-7.64 0 0 -9.68c6.62,-8.15 13.25,-15.79 19.36,-24.45 5.6,-1.02 15.28,-12.74 19.87,-7.13 2.04,2.55 0,9.17 0.51,15.79z"/>
      <path class="fil0" d="M140.61 409.08c-1.53,1.53 -3.57,2.55 -5.09,4.08 -6.11,-4.08 -6.11,-14.26 -14.26,-15.28 -0.51,12.23 -4.08,33.11 8.15,33.62 1.02,-0.51 0.51,-3.06 1.53,-3.57 3.57,-0.51 5.6,1.02 8.66,1.02l0 7.64c-4.58,-1.53 -3.06,4.08 -5.6,4.58 -6.62,0 -12.23,-5.09 -19.36,-6.11 0.51,-3.57 -1.53,-4.58 -2.55,-6.11l0 -43.81c1.02,-0.51 1.53,-1.02 1.53,-2.04 14.26,4.08 21.4,13.75 27,25.98z"/>
      <path class="fil0" d="M189.51 394.82c-0.51,8.15 -10.19,5.6 -13.75,10.19 0.51,1.02 5.09,1.02 5.6,0 1.02,4.58 -4.08,7.64 -9.68,6.62 -0.51,3.06 0.51,5.09 1.02,7.13 1.02,1.02 3.06,0.51 4.58,1.02l0 4.08c-1.53,1.02 -4.58,0.51 -7.13,0.51 -2.04,-5.09 -5.6,-7.64 -5.09,-12.74 0.51,-6.11 9.17,-10.7 10.7,-15.28 5.09,0 9.17,-1.53 13.76,-1.53z"/>
      <g>
       <path class="fil0" d="M163.02 407.55c0,8.15 -1.02,14.26 -6.11,16.81 -5.09,-8.15 -10.7,-15.28 -15.79,-23.43 5.6,-11.21 16.3,2.04 21.91,6.62l0 0zm-5.09 7.64c0,-6.62 -4.08,-8.66 -8.66,-10.7 2.04,4.58 5.09,7.64 8.66,10.7z"/>
      </g>
      <g>
       <path class="fil0" d="M181.87 431.5c2.55,5.09 1.53,13.25 1.53,21.4 0,11.21 1.53,23.43 -2.55,28.53l0 10.19c-1.53,1.02 -5.09,0.51 -7.64,0.51 -1.02,-10.7 2.04,-16.3 1.53,-25.47l-15.79 -0c-1.02,3.57 -1.02,10.7 2.04,11.21l0 14.26c-1.53,1.02 -5.09,0.51 -7.64,0.51 0.51,-7.13 0,-13.75 -4.08,-16.3 0,-14.77 -0.51,-30.06 0.51,-43.81 9.17,-2.04 21.91,0 32.09,-1.02l0 0zm-23.94 9.17l0 17.32c4.58,1.02 13.25,1.02 17.83,0l0 -17.32c-4.58,-1.02 -13.25,-1.02 -17.83,0z"/>
      </g>
      <path class="fil0" d="M123.79 24.96c9.17,-8.66 13.75,10.19 19.87,14.77 -7.13,-2.04 -16.3,-7.13 -19.87,-14.77z"/>
      <path class="fil0" d="M198.17 65.72c-0.51,0 -0.51,0 -0.51,0.51 4.08,-2.55 11.72,-4.58 18.85,-7.13 4.08,-1.53 18.34,-8.15 18.34,0 0,6.62 -11.72,5.09 -16.81,5.6 -7.64,0.51 -12.74,1.02 -19.87,1.02z"/>
      <path class="fil0" d="M133.47 97.3c2.55,0 0,1.02 -1.02,0.51 -21.91,7.13 -44.83,14.77 -68.77,21.91 -3.57,1.02 -21.91,9.17 -19.87,-2.55 1.02,-5.09 15.28,-5.09 21.4,-6.62 22.42,-4.58 45.85,-9.68 67.76,-13.75l0.51 0.51 0 0z"/>
      <g>
       <path class="fil0" d="M196.64 263.89c18.34,-0.51 27,4.58 25.47,27 0,3.06 -1.02,8.15 -2.04,11.72 -2.04,8.15 -3.06,13.75 -7.64,17.32 3.06,7.64 8.66,12.74 11.21,20.89 -12.74,2.04 -24.45,-2.55 -35.15,0 -6.11,1.53 -13.75,10.7 -18.34,14.77 -6.11,5.6 -12.23,10.7 -17.32,15.28 -8.15,-9.17 -15.79,-19.87 -22.42,-30.57l-28.02 0c2.55,-6.62 6.11,-12.74 8.66,-19.36 -7.13,-3.57 -15.28,-7.13 -15.79,-16.3 -0.51,-14.77 17.83,-27 29.55,-28.53 0,-4.58 0,-8.66 0.51,-12.74 0.51,-0.51 2.04,-0.51 3.06,-0.51 5.09,-23.43 39.23,-34.13 57.57,-15.28 5.09,5.09 7.64,10.7 10.7,16.3l0 0zm-23.43 -20.38c0,-2.04 -3.57,-2.55 -4.58,-2.04 1.53,1.02 2.55,2.55 4.58,2.04l0 0zm-15.28 -1.02c-0.51,1.53 -4.08,1.53 -2.55,3.57l2.55 -3.57zm-0.51 5.09c2.04,0 2.55,1.02 5.09,0.51 0,-2.55 0,-4.58 -1.02,-6.11 -0.51,3.06 -4.08,3.06 -4.08,5.6l0 0zm7.13 1.02l4.58 0c-0.51,-3.06 -3.06,-4.08 -4.58,-6.11 -0.51,2.55 -1.02,3.57 0,6.11l0 0zm-23.94 2.04c4.58,1.02 8.15,-4.58 11.21,-7.13 -4.08,-0.51 -9.68,3.06 -11.21,7.13l0 0zm31.08 -4.08c0,-2.04 -3.06,-4.58 -4.58,-3.06 2.55,0 1.02,4.08 4.58,3.06l0 0zm3.06 -0.51c4.08,0.51 7.13,9.68 10.7,5.6 -1.53,-2.55 -6.11,-7.13 -10.7,-7.64 0,1.02 -1.02,1.02 0,2.04l0 0zm-31.08 8.15c1.53,1.53 4.58,5.09 7.13,4.08 1.02,-3.57 3.57,-8.15 3.06,-11.72 -4.08,-0.51 -8.15,4.08 -10.19,7.64l0 0zm31.08 6.11c3.06,-1.02 6.11,-2.04 7.13,-5.6 -2.04,-3.57 -6.62,-9.17 -10.7,-6.62l3.57 12.23zm-22.42 0c3.06,1.02 5.6,2.04 9.68,2.04l0 -12.23c-2.55,0 -4.58,-0.51 -6.11,-1.02 -1.02,3.57 -2.55,7.13 -3.57,11.21l0 0zm12.23 -9.68l0 11.21c2.55,1.02 6.11,-0.51 8.66,-1.02 -1.53,-5.09 -1.53,-13.75 -8.66,-10.19l0 0zm-33.62 12.74c0.51,1.53 2.04,2.55 4.08,3.06 -0.51,-6.62 5.6,-8.66 4.58,-14.26 -3.57,0.51 -7.13,6.62 -8.66,11.21l0 0zm55.02 -7.13c2.04,3.06 3.57,6.11 5.09,10.19 2.55,0 3.06,-1.53 4.58,-3.06 -3.57,-2.55 -4.08,-8.15 -7.64,-10.7 -1.02,1.53 -2.04,1.53 -2.04,3.57l0 0zm-50.43 11.72c4.08,1.53 7.13,4.58 12.23,6.11 0,-5.09 1.53,-7.64 1.53,-12.74 -2.55,-2.55 -5.09,-4.58 -8.15,-6.11 -2.04,4.58 -3.57,8.66 -5.6,12.74l0 0zm47.38 -10.7c-2.04,2.04 -4.08,4.08 -7.13,4.58 1.53,3.57 2.04,8.15 2.04,13.25 4.58,-1.53 8.15,-4.08 11.21,-6.62 -1.02,-4.58 -2.04,-9.17 -6.11,-11.21l0 0zm-33.62 17.83c4.08,1.02 8.15,2.55 13.25,2.55l0 -12.74c-3.57,-1.02 -7.13,-2.04 -10.7,-3.06 -1.02,5.09 -2.55,8.15 -2.55,13.25l0 0zm14.77 -10.19l0 13.25c4.58,0 8.15,-1.02 12.23,-2.04 -0.51,-4.58 -1.53,-8.66 -1.53,-13.25 -3.57,1.02 -7.64,1.02 -10.7,2.04l0 0zm16.3 34.13c1.02,4.58 1.02,1.53 -2.55,2.04 -1.53,1.02 1.53,3.06 -1.02,3.06l-1.53 -0c-1.02,-6.11 -3.06,-11.21 -2.04,-18.85 -1.53,0.51 -1.02,-1.02 -2.04,-1.02 -1.02,1.02 -2.55,1.53 -2.04,4.08 0,2.04 3.06,1.02 4.08,2.55 -2.04,1.02 -2.55,1.02 -5.09,0.51 -1.53,10.7 1.53,16.81 2.04,26.49 4.58,0 7.64,1.02 12.74,0.51 9.17,-12.74 24.45,-27.51 16.81,-52.47 -3.57,-0.51 -2.04,7.64 0.51,9.17 -1.02,0 -1.02,-0.51 -2.04,-0.51 0.51,11.21 -1.53,19.87 -7.13,24.45 1.53,-7.13 6.62,-10.7 5.09,-21.4 -1.53,0 -2.55,0 -2.55,-1.02 1.53,0.51 2.04,-0.51 3.06,-0.51 0,-2.04 0.51,-4.58 -1.53,-4.58l-1.53 0c-3.06,10.7 -5.6,21.91 -13.25,27.51l0 0zm-33.11 0c-9.17,-4.58 -10.7,-18.34 -14.26,-29.04 -4.08,0 -2.04,6.11 0,6.62l-2.04 0c-1.53,10.19 4.58,15.28 5.09,21.4 -5.09,-5.09 -7.13,-12.74 -6.62,-23.94 -1.02,0 -2.04,0 -2.04,-0.51 0,-2.04 3.06,-0.51 2.55,-3.06 0,-2.55 0.51,-5.6 -2.04,-5.6 -5.6,24.96 6.62,40.25 15.79,52.98 4.58,-0.51 8.66,-1.53 14.26,-1.02 0.51,-8.15 3.06,-18.85 0.51,-27 0,1.02 -3.57,2.55 -3.06,0 0,-1.53 3.06,0 3.06,-1.02 0.51,-3.06 -0.51,-4.58 -3.06,-4.58 -2.04,6.62 0.51,18.34 -6.11,20.38 0,-1.53 1.02,-1.53 0.51,-3.57 -2.04,-1.02 -3.57,2.04 -4.58,0.51 1.02,0 1.53,-1.02 2.04,-2.55l0 0zm-16.81 -30.57c1.02,0 2.04,0 2.04,-0.51 -1.02,-0.51 -1.02,-2.04 -2.04,-2.55l0 3.06zm63.17 0l2.04 0c0,-1.02 0,-2.04 -0.51,-2.55 0,2.04 -2.04,1.02 -1.53,2.55l0 0zm7.13 -1.02c2.55,-0.51 7.13,1.02 8.66,-0.51 -1.53,0 -7.64,-2.04 -8.66,0.51l0 0zm0 3.06c4.08,1.53 10.19,0 15.28,0.51 -1.53,-3.06 -12.23,-2.04 -15.28,-0.51l0 0zm-53.49 17.83c0,-4.58 0,-8.15 -0.51,-11.72 -3.57,-2.04 -7.13,-4.08 -10.7,-6.11 -0.51,10.19 2.55,16.81 11.21,17.83l0 0zm41.77 -16.81c-3.06,2.04 -6.62,4.08 -10.19,6.11l0 11.21c3.57,0.51 5.6,-0.51 8.15,-2.04 1.53,-3.06 4.58,-11.21 2.04,-15.28l0 0zm11.72 2.55l0 1.02c4.58,-0.51 15.79,1.53 16.3,-1.02 -2.55,-2.04 -13.25,-2.04 -16.3,0l0 0zm-50.94 16.3c4.58,-1.02 1.53,-6.62 5.6,-7.64 4.08,-1.02 4.58,4.58 6.62,8.15 1.02,-2.55 0,-7.13 0.51,-10.7 -5.6,0 -8.66,-2.04 -13.75,-2.55 0.51,4.08 -1.53,10.19 1.02,12.74l0 0zm68.77 -11.72c-4.08,-0.51 -13.75,-1.53 -16.81,0.51l16.81 -0.51zm-99.85 2.55l5.6 0c1.02,-4.08 -5.09,-1.53 -5.6,0l0 0zm45.85 -1.02l0 10.7c2.55,-2.55 2.04,-8.66 7.13,-8.15 3.06,0.51 1.53,6.11 2.55,8.15 2.55,-2.04 1.53,-8.15 2.55,-11.72 -4.59,-0.51 -8.66,0 -12.23,1.02l0 0zm-51.45 4.58c3.06,-1.02 10.19,2.04 10.7,-2.04 -2.55,-1.02 -9.68,-1.02 -10.7,2.04l0 0zm88.64 -0.51c4.58,0.51 13.75,1.53 17.32,-0.51 -4.58,-1.02 -14.26,-2.04 -17.32,0.51l0 0zm-95.77 5.09c6.11,-0.51 14.77,1.53 18.85,-1.02 -4.08,-2.04 -15.79,-2.04 -18.85,1.02l0 0zm43.81 9.68c-0.51,-7.13 -5.09,-10.19 -10.19,-11.72 2.04,5.09 5.6,9.17 10.19,11.72l0 0zm50.94 -11.21l0 2.04 10.19 -0c3.06,0 8.15,1.53 8.66,-2.04 -4.59,-1.02 -13.25,-1.02 -18.85,0l0 0zm-22.42 3.57c0,4.08 -5.09,6.11 -2.04,9.68 3.57,-3.06 6.62,-6.11 8.66,-10.7 -1.53,-1.02 -4.59,1.02 -6.62,1.02l0 0zm-73.36 0.51c-0.51,0 -0.51,0.51 -1.02,0.51 0,0.51 -1.02,1.02 0.51,1.02l21.91 0c-4.08,-3.57 -14.77,-0.51 -21.4,-1.53l0 0zm46.36 4.08c1.02,0 0,-2.55 0.51,-3.57 -1.02,0 -1.53,0 -2.04,-0.51 0,2.04 0,4.08 1.53,4.08l0 0zm48.4 -3.06c5.09,0.51 15.28,1.53 19.36,-0.51 -5.09,-0.51 -15.28,-1.53 -19.36,0.51l0 0zm-37.19 10.19l0 -10.19 -1.53 0c0,4.08 -1.02,8.66 1.53,10.19l0 0zm2.55 0c0,-2.55 2.04,-8.66 -0.51,-10.19 0,3.57 -1.02,8.15 0.51,10.19l0 0zm-48.4 -6.11l-14.26 0c-0.51,0 -0.51,0.51 -0.51,1.02 5.6,1.53 18.34,0 26.49,0.51 -2.04,-3.06 -7.13,-1.53 -11.72,-1.53l0 0zm81.51 1.02c3.06,0.51 15.79,1.53 19.87,-0.51 -5.09,-1.02 -15.79,-2.04 -19.87,0.51l0 0zm-98.83 4.58c9.17,1.02 21.91,1.02 31.08,0 -7.64,-2.04 -22.93,-2.04 -31.08,0l0 0zm96.28 -0.51c0,0.51 -1.02,1.02 0.51,1.02 6.62,-1.02 15.79,1.53 20.89,-1.02 -6.11,-1.02 -15.79,-1.02 -21.4,0l0 0zm-60.62 5.6c-9.68,-2.55 -25.98,-1.02 -36.68,-0.51 10.19,2.04 25.98,1.02 36.68,0.51l0 0zm25.47 0c-1.53,0.51 6.11,1.53 5.6,-0.51 -0.51,-1.02 -5.6,-2.04 -5.6,0.51l0 0zm31.08 -1.02c0,0.51 -1.02,1.02 0.51,1.02 7.64,-1.02 19.36,2.04 23.94,-2.04 -7.64,1.02 -17.32,0 -24.45,1.02l0 0zm-89.66 6.62l35.66 0c-3.06,-4.08 -10.7,-2.55 -16.81,-2.55l-19.87 0c0,1.53 1.02,1.53 1.02,2.55l0 0zm58.08 -1.02c1.02,0.51 6.62,1.53 6.62,-0.51 -1.02,-1.02 -6.62,-1.53 -6.62,0.51l0 0zm28.53 -0.51c0,1.02 -0.51,1.02 -0.51,1.53l14.26 0c4.58,0 11.21,1.53 12.74,-1.53 -7.64,-1.02 -18.85,-1.02 -26.49,0l0 0zm-48.4 5.09c-9.17,-2.55 -24.45,-1.02 -34.13,-0.51 8.66,2.55 23.94,1.53 34.13,0.51l0 0zm17.83 0c2.04,4.08 8.66,4.58 10.19,0 -1.53,-1.53 -8.66,-2.04 -10.19,0l0 0zm26.49 1.02c9.68,-1.53 21.4,3.06 28.02,-2.04 -9.17,1.02 -21.4,-2.04 -28.02,2.04l0 0zm-77.94 20.89l48.91 0c3.06,6.11 11.72,5.09 15.28,0l48.91 0c-3.57,-5.6 -6.62,-12.23 -10.19,-18.34l-11.72 0c-5.6,1.02 6.62,0 7.64,0.51 3.57,1.53 3.57,11.21 6.62,12.74 -55.02,2.55 -49.93,4.08 -48.91,3.57 -10.19,-11.72 -31.59,-1.02 -47.89,-4.08 2.04,-3.57 3.06,-8.15 5.6,-11.21 3.06,0 6.11,0 8.66,-0.51l4.58 0c2.55,0.51 2.55,-1.02 0,-0.51l-19.87 0c-0.51,0 -0.51,0 -0.51,0.51 -0.51,5.09 -4.58,11.72 -7.13,17.32l0 0zm50.94 4.08c-5.6,-2.55 -15.28,-0.51 -22.42,-1.02 3.06,3.06 16.81,1.02 22.42,1.02l0 0zm12.23 -0.51c0.51,2.55 10.7,2.04 12.74,-0.51 -4.08,0 -9.17,-1.02 -12.74,0.51l0 0zm-30.57 6.11c12.74,-1.53 30.06,3.06 39.23,-2.55l-40.76 0c0,2.04 1.53,1.53 1.53,2.55l0 0zm3.06 4.59c8.66,0 24.45,3.06 30.57,-1.53 -10.7,0.51 -22.42,-1.02 -32.09,0.51 0.51,-0.51 0.51,1.02 1.53,1.02l0 0zm24.96 3.06c-7.64,0.51 -16.3,-1.02 -22.92,0.51 4.08,2.55 19.36,3.06 22.92,-0.51l0 0zm-19.36 5.09c2.55,2.04 12.23,2.04 14.26,-0.51l-14.26 0.51zm8.15 4.08c-1.53,0.51 -4.08,-0.51 -4.58,0.51 1.02,2.04 4.08,2.04 4.58,-0.51z"/>
      </g>
     </g>
    </g>
   </g>
  </g>
 </g>
</svg>
